<?xml version="1.0" encoding="utf-8"?>
<!-- Generator: Adobe Illustrator 21.1.0, SVG Export Plug-In . SVG Version: 6.00 Build 0)  -->
<svg version="1.1" id="Layer_1" xmlns="http://www.w3.org/2000/svg" xmlns:xlink="http://www.w3.org/1999/xlink" x="0px" y="0px"
	 viewBox="0 0 1800 1200" style="enable-background:new 0 0 1800 1200;" xml:space="preserve">
<g>
	<rect x="889.1" y="798" width="34.2" height="1.9"/>
	<rect x="889.1" y="784.5" width="34.2" height="1.9"/>
	<rect x="889.1" y="825.1" width="34.2" height="1.9"/>
	<rect x="889.1" y="811.5" width="34.2" height="1.9"/>
	<rect x="889.1" y="852.5" width="34.2" height="1.9"/>
	<rect x="889.1" y="839" width="34.2" height="1.9"/>
	<rect x="889.1" y="879.9" width="34.2" height="1.9"/>
	<rect x="889.1" y="866" width="34.2" height="1.9"/>
	<rect x="889.1" y="934.4" width="34.2" height="1.9"/>
	<rect x="889.1" y="920.9" width="34.2" height="1.9"/>
	<rect x="889.1" y="907" width="34.2" height="1.9"/>
	<rect x="889.1" y="893.4" width="34.2" height="1.9"/>
	<rect x="875.6" y="968.2" width="35.7" height="1.9"/>
	<rect x="875.6" y="954.7" width="35.7" height="1.9"/>
	<rect x="875.6" y="995.6" width="35.7" height="1.9"/>
	<rect x="875.6" y="981.7" width="35.7" height="1.9"/>
	<rect x="875.6" y="1022.7" width="35.7" height="1.9"/>
	<rect x="875.6" y="1009.1" width="35.7" height="1.9"/>
	<rect x="875.6" y="1050.1" width="35.7" height="1.9"/>
	<rect x="875.6" y="1036.6" width="35.7" height="1.9"/>
	<rect x="875.6" y="1063.6" width="35.7" height="1.9"/>
	<rect x="992.8" y="857.7" width="35.7" height="1.9"/>
	<rect x="992.8" y="843.8" width="35.7" height="1.9"/>
	<rect x="992.8" y="884.8" width="35.7" height="1.9"/>
	<rect x="992.8" y="871.3" width="35.7" height="1.9"/>
	<rect x="992.8" y="912.2" width="35.7" height="1.9"/>
	<rect x="992.8" y="898.7" width="35.7" height="1.9"/>
	<rect x="992.8" y="939.6" width="35.7" height="1.9"/>
	<rect x="992.8" y="925.7" width="35.7" height="1.9"/>
	<rect x="992.8" y="980.6" width="35.7" height="1.9"/>
	<rect x="992.8" y="966.7" width="35.7" height="1.9"/>
	<rect x="992.8" y="953.2" width="35.7" height="1.9"/>
	<rect x="912.4" y="600" width="26.3" height="1.9"/>
	<rect x="912.4" y="586.5" width="26.3" height="1.9"/>
	<rect x="912.4" y="627.4" width="26.3" height="1.9"/>
	<rect x="912.4" y="613.9" width="26.3" height="1.9"/>
	<rect x="912.4" y="654.9" width="26.3" height="1.9"/>
	<rect x="912.4" y="641" width="26.3" height="1.9"/>
	<rect x="912.4" y="681.9" width="26.3" height="1.9"/>
	<rect x="912.4" y="668.4" width="26.3" height="1.9"/>
	<rect x="912.4" y="763.8" width="26.3" height="1.9"/>
	<rect x="912.4" y="750.3" width="26.3" height="1.9"/>
	<rect x="912.4" y="709.3" width="26.3" height="1.9"/>
	<rect x="912.4" y="695.8" width="26.3" height="1.9"/>
	<rect x="912.4" y="736.8" width="26.3" height="1.9"/>
	<rect x="912.4" y="722.9" width="26.3" height="1.9"/>
	<rect x="948.8" y="338.9" width="25.2" height="1.9"/>
	<rect x="948.8" y="352.4" width="25.2" height="1.9"/>
	<rect x="930.8" y="383.6" width="43.6" height="1.9"/>
	<rect x="930.8" y="411.1" width="43.6" height="1.9"/>
	<rect x="930.8" y="397.2" width="43.6" height="1.9"/>
	<rect x="930.8" y="438.1" width="43.6" height="1.9"/>
	<rect x="930.8" y="424.6" width="43.6" height="1.9"/>
	<rect x="930.8" y="533.9" width="21" height="1.9"/>
	<rect x="930.8" y="520" width="21" height="1.9"/>
	<rect x="930.8" y="561" width="21" height="1.9"/>
	<rect x="930.8" y="547.4" width="21" height="1.9"/>
	<rect x="930.8" y="465.5" width="21" height="1.9"/>
	<polygon points="974.4,453.9 974.4,452 951.8,452 930.8,452 930.8,453.9 951.8,453.9 	"/>
	<rect x="930.8" y="506.5" width="21" height="1.9"/>
	<rect x="930.8" y="493" width="21" height="1.9"/>
	<rect x="930.8" y="479.1" width="21" height="1.9"/>
	<rect x="961.6" y="487.3" width="26.3" height="1.9"/>
	<rect x="961.6" y="473.8" width="26.3" height="1.9"/>
	<rect x="961.6" y="514.7" width="26.3" height="1.9"/>
	<rect x="961.6" y="501.2" width="26.3" height="1.9"/>
	<rect x="961.6" y="542.2" width="26.3" height="1.9"/>
	<rect x="961.6" y="528.3" width="26.3" height="1.9"/>
	<rect x="961.6" y="569.2" width="26.3" height="1.9"/>
	<rect x="961.6" y="555.7" width="26.3" height="1.9"/>
	<rect x="961.6" y="596.6" width="26.3" height="1.9"/>
	<rect x="961.6" y="583.1" width="26.3" height="1.9"/>
	<rect x="961.6" y="623.7" width="26.3" height="1.9"/>
	<rect x="961.6" y="610.2" width="26.3" height="1.9"/>
	<rect x="975.5" y="664.3" width="37.6" height="1.9"/>
	<rect x="975.5" y="650.4" width="37.6" height="1.9"/>
	<rect x="975.5" y="691.3" width="37.6" height="1.9"/>
	<rect x="975.5" y="677.8" width="37.6" height="1.9"/>
	<rect x="975.5" y="718.7" width="37.6" height="1.9"/>
	<rect x="975.5" y="705.2" width="37.6" height="1.9"/>
	<rect x="975.5" y="746.2" width="37.6" height="1.9"/>
	<rect x="975.5" y="732.3" width="37.6" height="1.9"/>
	<rect x="975.5" y="773.2" width="37.6" height="1.9"/>
	<rect x="975.5" y="759.7" width="37.6" height="1.9"/>
	<rect x="975.5" y="814.2" width="37.6" height="1.9"/>
	<rect x="975.5" y="800.6" width="37.6" height="1.9"/>
	<rect x="975.5" y="787.1" width="37.6" height="1.9"/>
	<rect x="860.5" y="1100.1" width="34.9" height="1.9"/>
	<rect x="860.5" y="1086.2" width="34.9" height="1.9"/>
	<rect x="860.5" y="1127.1" width="34.9" height="1.9"/>
	<rect x="860.5" y="1113.6" width="34.9" height="1.9"/>
	<rect x="860.5" y="1154.5" width="34.9" height="1.9"/>
	<rect x="860.5" y="1141" width="34.9" height="1.9"/>
	<rect x="860.5" y="1182" width="34.9" height="1.9"/>
	<rect x="860.5" y="1168.1" width="34.9" height="1.9"/>
	<rect x="1008.2" y="1125.6" width="42.8" height="1.9"/>
	<rect x="1008.2" y="1153" width="42.8" height="1.9"/>
	<rect x="1008.2" y="1139.1" width="42.8" height="1.9"/>
	<rect x="1008.2" y="1180.1" width="42.8" height="1.9"/>
	<rect x="1008.2" y="1166.6" width="42.8" height="1.9"/>
	<rect x="1008.2" y="1016.7" width="42.8" height="1.9"/>
	<rect x="1008.2" y="1002.8" width="42.8" height="1.9"/>
	<rect x="1008.2" y="1043.7" width="42.8" height="1.9"/>
	<rect x="1008.2" y="1030.2" width="42.8" height="1.9"/>
	<rect x="1008.2" y="1071.1" width="42.8" height="1.9"/>
	<rect x="1008.2" y="1057.2" width="42.8" height="1.9"/>
	<rect x="1008.2" y="1112.1" width="42.8" height="1.9"/>
	<rect x="1008.2" y="1098.2" width="42.8" height="1.9"/>
	<rect x="1008.2" y="1084.7" width="42.8" height="1.9"/>
	<path d="M1038.6,988.5V827.7h-16.2V635h-26.7V460.6h-11.6V323.9H965V210.8h-9.4V79.7h-15v285.9H921v208.1h-17.3v195.7h-22.2V940
		h-14.7v131.1h-15V1203h208.9V988.9h-22.2V988.5z M1019.1,835.2h12.4v153.3h-18.8c-5.6,0-13.5,3.8-13.5,13.9v192.7h-8.6V841.6
		c0-5.6,4.9-6,6.4-6L1019.1,835.2L1019.1,835.2z M1015.3,642.5v185.2h-18.8c-5.6,0-13.5,3.8-13.5,13.9v353.5h-9.4V648.5
		c0-5.6,4.9-6,6.4-6h8.6H1015.3z M988.3,467.8v166.8h-8.6c-5.6,0-13.5,3.8-13.5,13.9v546.6h-5.3V474.2c0-5.6,4.9-6,6.4-6h21V467.8z
		 M947.7,86.8h0.4V218h9.4V325h-9.8V86.8z M947.7,329.2h9.8v1.9h19.2v36.1h-29.3L947.7,329.2z M927.8,372.7h19.5v-1.9h29.3v89.4
		h-9.4c-5.6,0-13.5,3.8-13.5,13.9v720.9h-5.3V587.3c0-10.1-8.3-13.9-13.5-13.9h-6.8V372.7H927.8z M910.5,580.9h1.9v0.4h22.2
		c1.1,0,6.4,0.4,6.4,6v607.9h-8.6V783c0-10.1-8.3-13.9-13.5-13.9h-8.3V580.9z M890.2,776.6L890.2,776.6h28.2c1.1,0,6.4,0.4,6.4,6
		v412.1h-4.9V953.2c0-10.1-8.3-13.9-13.5-13.9h-18v-163h1.9V776.6z M873.7,947.5h32.7c1.1,0,6.4,0.4,6.4,6v241.6H906v-110.5
		c0-10.1-8.6-13.5-13.5-13.9h-18.8L873.7,947.5L873.7,947.5z M858.7,1078.3h33.4c0.8,0,6.4,0.8,6.4,6v110.5h-39.8L858.7,1078.3
		L858.7,1078.3z M1052.9,1195.1h-46.6v-192.7c0-5.6,4.9-6,6.4-6h22.2l0,0h18V1195.1z"/>
</g>
</svg>
