<svg height="480pt" viewBox="0 0 480 480.00352" width="480pt" xmlns="http://www.w3.org/2000/svg"><path d="m472 80.003906h-59.46875l-7.691406-12.800781c-5.152344-8.53125-12.492188-15.53125-21.261719-20.273437l8.238281-37.183594c.59375-2.648438-.195312-5.417969-2.097656-7.351563-1.902344-1.9375-4.65625-2.777343-7.316406-2.230469l-38.402344 7.679688-38.398438-7.679688c-2.65625-.535156-5.40625.3125-7.300781 2.25s-2.679687 4.703126-2.082031 7.347657l6.75 30.402343c-12.789062.550782-22.894531 11.039063-22.96875 23.839844.027344 2.730469.527344 5.4375 1.472656 8h-17.472656c-9.484375-.042968-18.09375 5.53125-21.945312 14.199219-3.847657 8.667969-2.207032 18.792969 4.1875 25.800781-8.320313 9.042969-8.320313 22.957032 0 32-8.320313 9.042969-8.320313 22.957032 0 32-.089844.09375-.167969.207032-.25.304688h-.046876v.046875c-3.8125 4.324219-5.925781 9.882812-5.945312 15.648437h-22.101562l-62.265626-31.199218c-12.457031-6.253907-27.277343-5.53125-39.070312 1.902343l-46.855469 29.296875h-61.707031c-4.417969 0-8 3.582032-8 8v112c0 4.417969 3.582031 8 8 8h88v136c0 13.253906 10.746094 24 24 24h176c13.257812 0 24-10.746094 24-24v-146.929687c6.449219 1.589843 13.039062 2.542969 19.671875 2.839843 1.472656.066407 2.929687.097657 4.394531.097657 57.414063-.035157 103.941406-46.59375 103.933594-104.007813h24c4.421875 0 8-3.582031 8-8v-112c0-4.417968-3.578125-8-8-8zm-129.597656-56.160156c1.035156.207031 2.101562.207031 3.136718 0l28-5.601562-5.113281 23.097656c-3.816406-.855469-7.714843-1.304688-11.625-1.335938h-37.519531l-4.800781-21.753906zm-38.402344 32.160156h52.800781c14.042969.042969 27.042969 7.40625 34.304688 19.421875l8.894531 14.792969v21.601562c-18.09375-1.421874-34.398438-11.480468-43.78125-27.015624l-5.359375-8.9375c-1.453125-2.402344-4.054687-3.867188-6.859375-3.863282h-40c-4.417969 0-8-3.582031-8-8 0-4.417968 3.582031-8 8-8zm-8 136c0 4.417969-3.578125 8-8 8h-24c-4.417969 0-8-3.582031-8-8 0-4.417968 3.582031-8 8-8h24c4.421875 0 8 3.582032 8 8zm-40-32c0-4.417968 3.582031-8 8-8h24c4.421875 0 8 3.582032 8 8 0 4.417969-3.578125 8-8 8h-24c-4.417969 0-8-3.582031-8-8zm0-32c0-4.417968 3.582031-8 8-8h24c4.421875 0 8 3.582032 8 8 0 4.417969-3.578125 8-8 8h-24c-4.417969 0-8-3.582031-8-8zm8-40h24c4.421875 0 8 3.582032 8 8 0 4.417969-3.578125 8-8 8h-24c-4.417969 0-8-3.582031-8-8 0-4.417968 3.582031-8 8-8zm-138.949219 88.304688c7.070313-4.472656 15.972657-4.90625 23.445313-1.144532l33.648437 16.839844h-46.144531c-3.367188-.003906-6.375 2.105469-7.523438 5.273438-1.148437 3.167968-.191406 6.710937 2.398438 8.871094l33.285156 27.75c4.976563 4.175781 5.808594 11.515624 1.890625 16.695312-4.226562 5.296875-11.914062 6.242188-17.296875 2.121094l-23.761718-18.960938c-1.75-1.398437-4.011719-2-6.226563-1.652344-2.21875.347657-4.1875 1.609376-5.429687 3.476563-3.625 5.445313-8.394532 10.03125-13.980469 13.433594-.832031.574219-1.695313 1.089843-2.59375 1.550781-5.210938 2.804688-10.914063 4.566406-16.800781 5.183594v-51.300782zm-109.050781 31.695312h48v96h-48zm64 96v-32.304687c5.460938-.417969 10.84375-1.5625 16-3.398438v35.703125zm216 160h-176c-4.417969 0-8-3.582031-8-8v-196.417968c3.402344-2.417969 6.535156-5.191407 9.355469-8.269532l17.460937 13.933594c5.011719 3.972656 11.207032 6.152344 17.601563 6.195312 11.851562-.035156 22.417969-7.476562 26.441406-18.625 4.023437-11.148437.644531-23.625-8.457031-31.214843l-16.3125-13.601563h81.960937v3.359375c1.59375 40.605469 26.515625 76.625 63.949219 92.433594v152.207031c0 4.417969-3.578125 8-8 8zm108.9375-192.496094c-17.277344 16.652344-40.632812 25.484376-64.609375 24.421876-8.742187-.367188-17.375-2.074219-25.597656-5.0625-32.714844-11.785157-55.539063-41.578126-58.402344-76.230469 2.464844.875 5.058594 1.335937 7.671875 1.367187h24c9.488281.042969 18.097656-5.53125 21.949219-14.199218 3.847656-8.667969 2.203125-18.792969-4.1875-25.800782 8.320312-9.042968 8.320312-22.957031 0-32 7.96875-8.640625 8.347656-21.835937.886719-30.921875l17.519531-25.078125h15.304687l3.023438 5.046875c10.65625 17.589844 28.300781 29.8125 48.511718 33.601563 3.28125 4.535156 6.808594 9.085937 10.824219 13.773437 1.875 2.257813 3.816407 4.503907 5.753907 6.761719l2.800781 3.246094c12.347656 14.046875 19.828125 31.703125 21.328125 50.347656.214844 2.398438.285156 4.796875.285156 7.261719.078125 23.972656-9.710938 46.921875-27.0625 63.464843zm59.0625-79.503906h-17.253906c-2.949219-19.320312-11.367188-37.390625-24.257813-52.082031l-2.78125-3.199219c-1.234375-1.429687-2.464843-2.894531-3.707031-4.359375v-36.359375h48zm0 0"/><path d="m338.59375 168.003906h10.816406c5.847656.007813 10.582032 4.746094 10.589844 10.589844h16c-.039062-13.640625-10.417969-25.027344-24-26.328125v-8.261719h-16v8.261719c-12.488281 1.183594-22.4375 10.957031-23.84375 23.425781-1.40625 12.464844 6.117188 24.210938 18.03125 28.144532l22.566406 7.511718c4.929688 1.644532 7.941406 6.621094 7.113282 11.75-.832032 5.128906-5.261719 8.902344-10.457032 8.90625h-10.816406c-5.847656-.007812-10.582031-4.746094-10.59375-10.59375h-16c.042969 13.644532 10.421875 25.03125 24 26.328125v8.265625h16v-8.265625c12.492188-1.179687 22.441406-10.957031 23.847656-23.421875s-6.117187-24.210937-18.03125-28.144531l-22.566406-7.511719c-4.929688-1.644531-7.941406-6.621094-7.113281-11.75.832031-5.132812 5.261719-8.902344 10.457031-8.90625zm0 0"/><path d="m248 360.003906v-40h16c3.347656-.003906 6.335938-2.089844 7.496094-5.226562 1.160156-3.140625.246094-6.667969-2.292969-8.847656l-56-48c-2.996094-2.558594-7.40625-2.558594-10.402344 0l-56 48c-2.539062 2.179687-3.453125 5.707031-2.292969 8.847656 1.160157 3.136718 4.148438 5.222656 7.492188 5.226562h16v40c0 4.417969 3.582031 8 8 8h64c4.421875 0 8-3.582031 8-8zm-40-85.464844 34.402344 29.464844h-68.800782zm24 77.464844h-16v-16h-16v16h-16v-32h48zm0 0"/><path d="m232 384.003906h56v16h-56zm0 0"/><path d="m256 416.003906h32v16h-32zm0 0"/><path d="m128 384.003906h48v16h-48zm0 0"/><path d="m128 416.003906h48v16h-48zm0 0"/><path d="m336 328.003906h16v16h-16zm0 0"/><path d="m336 360.003906h16v16h-16zm0 0"/><path d="m336 392.003906h16v32h-16zm0 0"/></svg>