<svg id="Layer_3" enable-background="new 0 0 64 64" height="512" viewBox="0 0 64 64" width="512" xmlns="http://www.w3.org/2000/svg"><path d="m1 61h62v2h-62z"/><path d="m1 55h2v2h-2z"/><path d="m30.066 55h3.866v2h-3.866z"/><path d="m22.333 55h3.866v2h-3.866z"/><path d="m14.6 55h3.866v2h-3.866z"/><path d="m6.866 55h3.866v2h-3.866z"/><path d="m37.8 55h3.866v2h-3.866z"/><path d="m45.533 55h3.866v2h-3.866z"/><path d="m53.267 55h3.866v2h-3.866z"/><path d="m61 55h2v2h-2z"/><path d="m58 40.91c2.833-.478 5-2.942 5-5.91 0-3.309-2.691-6-6-6s-6 2.691-6 6c0 2.967 2.167 5.431 5 5.91v8.09h-24-24v-8.09c2.833-.478 5-2.942 5-5.91 0-3.309-2.691-6-6-6s-6 2.691-6 6c0 2.967 2.167 5.431 5 5.91v8.09h-5v2h62v-2h-5zm-5-5.91c0-2.206 1.794-4 4-4s4 1.794 4 4c0 1.859-1.279 3.411-3 3.858v-3.858h-2v3.858c-1.721-.447-3-1.999-3-3.858zm-50 0c0-2.206 1.794-4 4-4s4 1.794 4 4c0 1.859-1.279 3.411-3 3.858v-3.858h-2v3.858c-1.721-.447-3-1.999-3-3.858z"/><path d="m41.943 15.669c-.14-.4-.518-.669-.943-.669h-5.382l-2.724-5.447c-.34-.678-1.449-.678-1.789 0l-2.723 5.447h-5.382c-.425 0-.803.269-.943.669s-.013.847.318 1.112l4.456 3.564-1.779 5.338c-.128.384-.013.807.293 1.072s.741.316 1.103.139l5.552-2.776 5.553 2.776c.141.072.295.106.447.106.235 0 .47-.083.655-.244.306-.266.421-.688.293-1.072l-1.779-5.338 4.456-3.564c.331-.266.459-.713.318-1.113zm-6.568 3.55c-.327.262-.456.7-.323 1.098l1.236 3.71-3.841-1.921c-.14-.071-.294-.106-.447-.106s-.307.035-.447.105l-3.841 1.921 1.236-3.71c.133-.397.004-.836-.323-1.098l-2.774-2.218h3.149c.379 0 .725-.214.895-.553l2.105-4.211 2.105 4.211c.17.339.516.553.895.553h3.149z"/><path d="m32 5c-7.72 0-14 6.28-14 14s6.28 14 14 14 14-6.28 14-14-6.28-14-14-14zm0 26c-6.617 0-12-5.383-12-12s5.383-12 12-12 12 5.383 12 12-5.383 12-12 12z"/><path d="m46.279 30.363c2.4-3.246 3.721-7.256 3.721-11.293v-.07c0-9.925-8.075-18-18-18s-18 8.075-18 18.07c0 4.037 1.321 8.047 3.721 11.293l13.476 18.231c.188.256.486.406.803.406s.615-.15.804-.405zm-26.951-1.189c-2.146-2.903-3.328-6.492-3.328-10.174 0-8.822 7.178-16 16-16s16 7.178 16 16v.07c0 3.611-1.182 7.2-3.328 10.104l-12.672 17.143z"/></svg>