<?xml version="1.0" encoding="utf-8"?>
<!-- Generator: Adobe Illustrator 21.1.0, SVG Export Plug-In . SVG Version: 6.00 Build 0)  -->
<svg version="1.1" id="appointment" xmlns="http://www.w3.org/2000/svg" xmlns:xlink="http://www.w3.org/1999/xlink" x="0px"
	 y="0px" viewBox="0 0 512 512" style="enable-background:new 0 0 512 512;" xml:space="preserve">
<path d="M457.4,348.2h-41c0-7.5-6.1-13.7-13.7-13.7c-7.5,0-13.7,6.1-13.7,13.7h-81.9c0-7.5-6.1-13.7-13.7-13.7
	c-7.5,0-13.7,6.1-13.7,13.7h-41c-7.5,0-13.7,6.1-13.7,13.7c0,7.5,6.1,13.7,13.7,13.7h41c0,7.5,6.1,13.7,13.7,13.7
	c7.5,0,13.7-6.1,13.7-13.7h81.9c0,7.5,6.1,13.7,13.7,13.7c7.5,0,13.7-6.1,13.7-13.7h41c7.5,0,13.7-6.1,13.7-13.7
	C471,354.3,464.9,348.2,457.4,348.2z"/>
<path d="M457.4,293.5h-54.6v-27.3c0-7.5-6.1-13.7-13.7-13.7h-81.9c-7.5,0-13.7,6.1-13.7,13.7v27.3h-54.6c-7.5,0-13.7,6.1-13.7,13.7
	v88.7H92.2c-13.2,0-23.9-10.7-23.9-23.9V177.5h300.4V201c0,7.5,6.1,13.7,13.7,13.7c7.5,0,13.7-6.1,13.7-13.7v-37.1v-56.6
	c0-21.5-17.5-39-39-39h-70.2V54.6c0-7.5-6.1-13.7-13.7-13.7c-7.5,0-13.7,6.1-13.7,13.7v13.7h-81.9V54.6c0-7.5-6.1-13.7-13.7-13.7
	c-7.5,0-13.7,6.1-13.7,13.7v13.7H80c-21.5,0-39,17.5-39,39v56.6V372c0,28.2,23,51.2,51.2,51.2h133.1v34.1c0,7.5,6.1,13.7,13.7,13.7
	h218.5c7.5,0,13.7-6.1,13.7-13.7V307.2C471,299.7,464.9,293.5,457.4,293.5z M80,95.6h70.2v13.7c0,7.5,6.1,13.7,13.7,13.7
	c7.5,0,13.7-6.1,13.7-13.7V95.6h81.9v13.7c0,7.5,6.1,13.7,13.7,13.7c7.5,0,13.7-6.1,13.7-13.7V95.6h70.2c6.5,0,11.7,5.3,11.7,11.7
	v42.9H68.3v-42.9C68.3,100.8,73.5,95.6,80,95.6z M320.9,279.9h54.6v13.7h-54.6V279.9z M443.7,443.7H252.6V320.9h54.6h81.9h54.6
	V443.7z"/>
</svg>
