<?xml version="1.0" encoding="utf-8"?>
<!-- Generator: Adobe Illustrator 21.1.0, SVG Export Plug-In . SVG Version: 6.00 Build 0)  -->
<svg version="1.1" id="Layer_1" xmlns="http://www.w3.org/2000/svg" xmlns:xlink="http://www.w3.org/1999/xlink" x="0px" y="0px"
	 viewBox="0 0 512 512" style="enable-background:new 0 0 512 512;" xml:space="preserve">
<g>
	<g>
		<path d="M406.2,344.2c-14.3,0-25.9,11.6-25.9,25.9s11.6,25.9,25.9,25.9s25.9-11.6,25.9-25.9C432.1,355.9,420.5,344.2,406.2,344.2z
			 M406.2,381.1c-6,0-10.9-4.9-10.9-10.9s4.9-10.9,10.9-10.9s10.9,4.9,10.9,10.9S412.2,381.1,406.2,381.1z"/>
		<path d="M105.1,344.2c-14.3,0-25.9,11.6-25.9,25.9s11.6,25.9,25.9,25.9s25.9-11.6,25.9-25.9C131.1,355.9,119.4,344.2,105.1,344.2z
			 M105.1,381.1c-6,0-10.9-4.9-10.9-10.9s4.9-10.9,10.9-10.9c6,0,10.9,4.9,10.9,10.9S111.2,381.1,105.1,381.1z"/>
		<path d="M500.2,277.8l-18.7-14.1c-1.3-1-2.5-2.2-3.4-3.6l-58-87.8c-5.5-8.3-14.8-13.3-24.7-13.3h-64.1v-52.1
			c0-10.9-8.9-19.9-19.9-19.9H19.9C8.9,86.9,0,95.8,0,106.7v248.1c0,11,8.9,19.9,19.9,19.9h30.5c2.3,28.2,26,50.4,54.8,50.4
			s52.5-22.2,54.8-50.4h191.5c2.3,28.2,26,50.4,54.8,50.4s52.5-22.2,54.8-50.4h32.4c10.3,0,18.6-8.4,18.6-18.6v-54.6
			C512,292.2,507.6,283.3,500.2,277.8z M497,329.5h-2c-8.4,0-15.2-6.8-15.2-15.2v-5.8H497V329.5z M105.1,410.1c-22,0-40-17.9-40-40
			s17.9-40,40-40c22,0,40,17.9,40,40S127.2,410.1,105.1,410.1z M316.2,359.7H159.1c-4.9-25.3-27.2-44.5-54-44.5
			c-26.7,0-49.1,19.2-54,44.5H19.9c-2.7,0-4.9-2.2-4.9-4.9V106.7c0-2.7,2.2-4.9,4.9-4.9h291.5c2.7,0,4.9,2.2,4.9,4.9L316.2,359.7
			L316.2,359.7z M406.2,410.1c-22,0-40-17.9-40-40s17.9-40,40-40s40,17.9,40,40S428.2,410.1,406.2,410.1z M493.4,359.7h-33.3
			c-4.9-25.3-27.2-44.5-54-44.5s-49.1,19.2-54,44.5h-21V173.9h64.1c4.9,0,9.5,2.5,12.2,6.6l58,87.8c1.9,2.8,4.2,5.3,6.9,7.3
			l18.7,14.1c1.4,1,2.6,2.3,3.5,3.8h-17.7c-6.7,0-12.2,5.5-12.2,12.2v8.6c0,16.7,13.6,30.2,30.2,30.2h2V356
			C497,358,495.4,359.7,493.4,359.7z"/>
		<path d="M437.6,251.7l-35.9-54.3c-3.8-5.8-10.2-9.2-17.1-9.2h-15.5c-11.1,0-20.1,9-20.1,20.1v54.5c0,11.1,9,20.1,20.1,20.1h51.7
			c7.4,0,14.2-4.1,17.7-10.6C442,265.7,441.6,257.8,437.6,251.7L437.6,251.7z M425.3,265.1c-0.4,0.8-1.7,2.7-4.5,2.7h-51.7
			c-2.8,0-5.1-2.3-5.1-5.1v-54.5c0-2.8,2.3-5.1,5.1-5.1h15.5c1.9,0,3.6,0.9,4.6,2.5l35.9,54.3C426.6,262.2,425.7,264.3,425.3,265.1z
			"/>
		<path d="M272.2,248.4h-5.9c-8.2-47.8-46.7-83.8-93.2-87.3v-5c0-4.1-3.4-7.5-7.5-7.5s-7.5,3.4-7.5,7.5v5
			c-17.8,1.3-34.9,7.5-49.8,17.9c-3.4,2.4-4.2,7.1-1.8,10.4c2.4,3.4,7.1,4.2,10.4,1.8c14.4-10.1,31.2-15.5,48.6-15.5
			c41.7,0,77.1,30.7,85.5,72.6H80.2c2.8-13.8,8.5-26.7,16.9-37.8c2.5-3.3,1.8-8-1.5-10.5c-3.3-2.5-8-1.8-10.5,1.5
			c-10.4,13.7-17.3,29.8-20.2,46.8H59c-8.4,0-15.2,6.8-15.2,15.2v7.4c0,8.4,6.8,15.2,15.2,15.2h213.2c8.4,0,15.2-6.8,15.2-15.2v-7.4
			C287.4,255.2,280.6,248.4,272.2,248.4z M272.4,271c0,0.1-0.1,0.2-0.2,0.2H59c-0.1,0-0.2-0.1-0.2-0.2v-7.4c0-0.1,0.1-0.2,0.2-0.2
			h213.2c0.1,0,0.2,0.1,0.2,0.2L272.4,271L272.4,271z"/>
	</g>
</g>
</svg>
