<?xml version="1.0" encoding="iso-8859-1"?>
<!-- Generator: Adobe Illustrator 19.0.0, SVG Export Plug-In . SVG Version: 6.00 Build 0)  -->
<svg xmlns="http://www.w3.org/2000/svg" xmlns:xlink="http://www.w3.org/1999/xlink" version="1.1" id="Layer_1" x="0px" y="0px" viewBox="0 0 512 512" style="enable-background:new 0 0 512 512;" xml:space="preserve" width="512" height="512">
<g>
	<g>
		<g>
			<g>
				<g>
					<g>
						<path style="fill:#F43B45;" d="M495.686,283.739l-18.677-14.085c-2.015-1.519-3.755-3.372-5.146-5.477l-58.026-87.844        c-4.101-6.208-11.044-9.943-18.484-9.943h-94.318v200.786h192.334c6.147,0,11.131-4.983,11.131-11.131v-54.62        C504.5,294.473,501.236,287.925,495.686,283.739z"/>
						<path style="fill:#D82B2B;" d="M495.686,283.738l-18.677-14.085c-2.015-1.519-3.755-3.372-5.146-5.477l-58.026-87.844        c-4.101-6.208-11.044-9.943-18.484-9.943h-40.124l64.594,97.787c1.391,2.105,3.131,3.958,5.146,5.477l18.677,14.085        c5.551,4.186,8.814,10.735,8.814,17.687v65.75h40.91c6.147,0,11.131-4.983,11.131-11.131v-54.62        C504.5,294.473,501.236,287.925,495.686,283.738z"/>
						<g>
							<path style="fill:#EDEDED;" d="M7.5,106.743v248.075c0,6.825,5.533,12.358,12.358,12.358h303.861V106.743         c0-6.825-5.533-12.358-12.358-12.358H19.858C13.033,94.384,7.5,99.917,7.5,106.743z"/>
						</g>
						<path style="fill:#D6D6D6;" d="M311.361,94.384h-39.015v272.791h51.373V106.743C323.719,99.917,318.186,94.384,311.361,94.384        z"/>
						<path style="fill:#75CFF2;" d="M431.3,255.796l-35.888-54.329c-2.413-3.653-6.498-5.85-10.876-5.85h-15.454        c-6.954,0-12.592,5.638-12.592,12.592v54.527c0,6.954,5.638,12.592,12.592,12.592h51.711        C430.826,275.329,436.83,264.168,431.3,255.796z"/>
						<g>
							<circle style="fill:#1E4751;" cx="406.154" cy="370.153" r="47.463"/>
							<path style="fill:#EDEDED;" d="M406.154,388.593c-10.168,0-18.44-8.272-18.44-18.44c0-10.168,8.272-18.44,18.44-18.44         c10.168,0,18.44,8.272,18.44,18.44C424.594,380.321,416.322,388.593,406.154,388.593z"/>
							<circle style="fill:#1E4751;" cx="105.133" cy="370.153" r="47.463"/>
							<path style="fill:#EDEDED;" d="M105.133,388.593c-10.168,0-18.44-8.272-18.44-18.44c0-10.168,8.272-18.44,18.44-18.44         s18.44,8.272,18.44,18.44C123.573,380.321,115.301,388.593,105.133,388.593z"/>
						</g>
						<path style="fill:#F2CA20;" d="M472.22,305.675v8.597c0,12.555,10.177,22.732,22.732,22.732h9.548v-35.615        c0-0.135-0.012-0.268-0.014-0.403h-27.577C474.319,300.985,472.22,303.085,472.22,305.675z"/>
					</g>
				</g>
			</g>
		</g>
	</g>
	<g>
		<g>
			<path style="fill:#FF9C43;" d="M165.61,168.356c-52.369,0-94.823,44.29-94.823,98.924h189.646     C260.433,212.646,217.979,168.356,165.61,168.356z"/>
		</g>
		<g>
			<path style="fill:#EF8229;" d="M272.233,278.637H58.987c-4.241,0-7.678-3.438-7.678-7.678v-7.356     c0-4.241,3.438-7.678,7.678-7.678h213.246c4.241,0,7.678,3.438,7.678,7.678v7.356     C279.911,275.199,276.473,278.637,272.233,278.637z"/>
		</g>
	</g>
	<g>
		<path d="M406.153,344.213c-14.304,0-25.94,11.637-25.94,25.94c0,14.303,11.637,25.939,25.94,25.939s25.94-11.637,25.94-25.939    C432.094,355.85,420.457,344.213,406.153,344.213z M406.153,381.093c-6.032,0-10.94-4.907-10.94-10.939s4.908-10.94,10.94-10.94    s10.94,4.908,10.94,10.94S412.186,381.093,406.153,381.093z"/>
		<path d="M105.133,344.213c-14.304,0-25.94,11.637-25.94,25.94c0,14.303,11.637,25.939,25.94,25.939    c14.303,0,25.94-11.637,25.94-25.939C131.073,355.85,119.436,344.213,105.133,344.213z M105.133,381.093    c-6.033,0-10.94-4.907-10.94-10.939s4.908-10.94,10.94-10.94c6.032,0,10.94,4.908,10.94,10.94S111.165,381.093,105.133,381.093z"/>
		<path d="M500.201,277.75l-18.676-14.085c-1.337-1.008-2.482-2.227-3.404-3.622l-58.026-87.845    c-5.504-8.333-14.754-13.309-24.741-13.309H331.22v-52.147c0-10.949-8.908-19.857-19.858-19.857H19.858    C8.909,86.885,0,95.793,0,106.742v248.075c0,10.95,8.909,19.858,19.858,19.858h30.496c2.307,28.198,25.994,50.439,54.778,50.439    c28.784,0,52.471-22.241,54.779-50.439h191.464c2.307,28.198,25.995,50.439,54.779,50.439s52.471-22.241,54.779-50.439h32.437    c10.273,0,18.631-8.357,18.631-18.631v-54.619C512,292.173,507.59,283.322,500.201,277.75z M497,329.504h-2.048    c-8.399,0-15.232-6.833-15.232-15.232v-5.786H497V329.504z M105.132,410.115c-22.035,0-39.962-17.927-39.962-39.962    s17.927-39.963,39.962-39.963c22.036,0,39.963,17.928,39.963,39.963S127.168,410.115,105.132,410.115z M316.22,359.676H159.093    c-4.905-25.313-27.236-44.485-53.961-44.485c-26.724,0-49.055,19.172-53.96,44.485H19.858c-2.679,0-4.858-2.18-4.858-4.858    V106.742c0-2.679,2.18-4.857,4.858-4.857h291.503c2.679,0,4.858,2.179,4.858,4.857V359.676z M406.153,410.115    c-22.035,0-39.963-17.927-39.963-39.962s17.928-39.963,39.963-39.963s39.963,17.928,39.963,39.963    S428.188,410.115,406.153,410.115z M493.369,359.676h-33.255c-4.905-25.313-27.236-44.485-53.961-44.485    s-49.056,19.172-53.961,44.485H331.22V173.89h64.134c4.936,0,9.506,2.458,12.226,6.576l58.026,87.845    c1.865,2.824,4.183,5.291,6.888,7.331l18.676,14.085c1.386,1.045,2.56,2.324,3.483,3.759h-17.743    c-6.722,0-12.189,5.468-12.189,12.189v8.597c0,16.67,13.563,30.232,30.232,30.232H497v11.541    C497,358.047,495.371,359.676,493.369,359.676z"/>
		<path d="M437.558,251.662l-35.888-54.328c-3.812-5.771-10.217-9.217-17.134-9.217h-15.454c-11.079,0-20.092,9.013-20.092,20.092    v54.528c0,11.079,9.013,20.092,20.092,20.092h51.711c7.405,0,14.186-4.052,17.693-10.573    C441.995,265.733,441.64,257.843,437.558,251.662C437.558,251.662,437.558,251.662,437.558,251.662z M425.277,265.149    c-0.434,0.806-1.738,2.68-4.484,2.68h-51.711c-2.808,0-5.092-2.284-5.092-5.092v-54.528c0-2.808,2.284-5.092,5.092-5.092h15.454    c1.864,0,3.591,0.929,4.618,2.484l35.888,54.327C426.556,262.222,425.711,264.344,425.277,265.149z"/>
		<path d="M272.232,248.424h-5.908c-8.191-47.827-46.653-83.774-93.214-87.285v-5.013c0-4.143-3.358-7.5-7.5-7.5s-7.5,3.357-7.5,7.5    v5.012c-17.828,1.344-34.895,7.473-49.755,17.928c-3.388,2.383-4.202,7.062-1.819,10.449c2.384,3.39,7.063,4.202,10.45,1.818    c14.393-10.125,31.207-15.478,48.624-15.478c41.687,0,77.107,30.654,85.46,72.567H80.155c2.757-13.752,8.53-26.686,16.925-37.801    c2.497-3.306,1.841-8.009-1.465-10.506c-3.305-2.494-8.008-1.84-10.505,1.465c-10.355,13.711-17.275,29.788-20.212,46.842h-5.912    c-8.369,0-15.178,6.81-15.178,15.179v7.356c0,8.369,6.809,15.178,15.178,15.178h213.246c8.369,0,15.179-6.809,15.179-15.178    v-7.356C287.411,255.233,280.602,248.424,272.232,248.424z M272.411,270.959c0,0.098-0.08,0.178-0.179,0.178H58.987    c-0.098,0-0.178-0.08-0.178-0.178v-7.356c0-0.099,0.08-0.179,0.178-0.179h213.246c0.099,0,0.179,0.08,0.179,0.179V270.959z"/>
	</g>
</g>















</svg>
