<?xml version="1.0" encoding="iso-8859-1"?>
<!-- Generator: Adobe Illustrator 19.0.0, SVG Export Plug-In . SVG Version: 6.00 Build 0)  -->
<svg version="1.1" id="Capa_1" xmlns="http://www.w3.org/2000/svg" xmlns:xlink="http://www.w3.org/1999/xlink" x="0px" y="0px"
	 viewBox="0 0 512 512" style="enable-background:new 0 0 512 512;" xml:space="preserve">
<g>
	<g>
		<g>
			<path d="M468.85,492h-18.38l-31.153-167.184c2.506-5.394,3.832-11.314,3.832-17.44v-17.734c0-0.076-0.007-0.152-0.007-0.228
				c-0.004-0.698-0.024-1.396-0.067-2.092c-0.011-0.179-0.031-0.357-0.045-0.536c-0.047-0.62-0.102-1.239-0.179-1.855
				c-0.016-0.13-0.037-0.26-0.055-0.39c-0.093-0.687-0.2-1.371-0.33-2.052c-0.011-0.055-0.022-0.111-0.033-0.166
				c-0.096-0.491-0.202-0.98-0.318-1.467c-0.195-0.823-0.421-1.639-0.67-2.448c-0.014-0.045-0.027-0.09-0.041-0.135
				c-0.24-0.767-0.512-1.524-0.799-2.276c-0.102-0.268-0.21-0.534-0.319-0.8c-0.213-0.52-0.438-1.035-0.674-1.547
				c-0.116-0.251-0.225-0.505-0.347-0.754c-0.3-0.615-0.616-1.223-0.95-1.822c-0.015-0.026-0.034-0.049-0.049-0.076
				c-2.333-4.169-5.452-7.918-9.288-11.017c-23.442-18.941-81.934-69.609-118.687-130.839c-5.538-9.226-14.242-15.627-24.294-18.191
				V92.592l47.635-33.137c5.229-3.638,8.129-9.605,7.758-15.964c-0.37-6.359-3.944-11.95-9.562-14.956l-51.11-27.352
				c-3.099-1.659-6.842-1.567-9.857,0.238C247.846,3.228,246,6.485,246,10v45.936v31.43v23.587
				c-10.052,2.565-18.757,8.966-24.294,18.191c-36.753,61.231-95.244,111.897-118.687,130.839
				c-7.078,5.719-11.769,13.626-13.459,22.366c-0.008,0.039-0.016,0.078-0.023,0.117c-0.135,0.702-0.246,1.408-0.341,2.117
				c-0.015,0.109-0.032,0.217-0.046,0.327c-0.082,0.649-0.14,1.301-0.188,1.954c-0.011,0.146-0.028,0.292-0.037,0.438
				c-0.048,0.778-0.075,1.559-0.075,2.34v17.734c0,6.209,1.382,12.098,3.84,17.39L61.529,492h-18.38c-5.523,0-10,4.477-10,10
				s4.476,10,9.999,10h26.689h69.464h62.3h110.004h61.091h69.465h26.689c5.522,0,10-4.477,10-10S474.372,492,468.85,492z
				 M266,55.936V26.693l33.747,18.059L266,68.228V55.936z M402.768,285.953c0.124,0.592,0.216,1.191,0.28,1.793
				c0.004,0.041,0.006,0.082,0.01,0.122c0.057,0.576,0.089,1.154,0.09,1.734c0,0.014,0.001,0.027,0.001,0.04v7.734v10
				c0,0.736-0.038,1.464-0.11,2.181c-0.004,0.043-0.014,0.085-0.019,0.129c-0.06,0.56-0.146,1.114-0.249,1.663
				c-0.052,0.276-0.12,0.547-0.182,0.819c-0.06,0.263-0.117,0.526-0.187,0.786c-0.089,0.329-0.19,0.653-0.294,0.976
				c-0.06,0.189-0.12,0.378-0.186,0.565c-0.125,0.354-0.259,0.704-0.402,1.05c-0.058,0.141-0.118,0.281-0.179,0.42
				c-0.163,0.372-0.333,0.741-0.517,1.102c-0.045,0.089-0.094,0.175-0.14,0.263c-0.312,0.593-0.658,1.166-1.022,1.726
				c-0.082,0.127-0.169,0.251-0.254,0.376c-0.335,0.492-0.686,0.973-1.061,1.434c-0.03,0.037-0.058,0.075-0.089,0.112
				c-0.014,0.018-0.028,0.036-0.042,0.054c-0.916,1.104-1.942,2.114-3.058,3.015c-0.068,0.055-0.137,0.107-0.205,0.16
				c-0.48,0.378-0.978,0.732-1.49,1.069c-0.111,0.073-0.22,0.148-0.333,0.219c-0.589,0.372-1.194,0.723-1.82,1.037
				c-0.041,0.02-0.081,0.04-0.122,0.06c-0.475,0.235-0.961,0.45-1.455,0.65c-0.08,0.032-0.16,0.066-0.241,0.097
				c-0.468,0.183-0.944,0.346-1.427,0.496c-0.093,0.029-0.185,0.062-0.279,0.09c-0.565,0.167-1.138,0.315-1.721,0.435
				c-0.012,0.003-0.024,0.007-0.037,0.009c-0.599,0.123-1.212,0.208-1.828,0.28c-0.105,0.012-0.206,0.036-0.311,0.046
				c-0.714,0.072-1.438,0.11-2.171,0.11c-8.205,0-15.339-4.64-18.939-11.43c-1.584-2.988-2.491-6.389-2.491-10v-10v-11.43h42.476
				C402.768,285.948,402.768,285.95,402.768,285.953z M384.854,265.946h-34.564h-24.675l-48.018-119.318
				C310.734,198.891,357.565,242.725,384.854,265.946z M340.292,285.946v11.43v10c0,3.611-0.906,7.012-2.491,10
				c-3.6,6.789-10.734,11.43-18.939,11.43c-8.206,0-15.34-4.64-18.94-11.43c-1.585-2.988-2.491-6.389-2.491-10v-10v-11.43h21.43
				H340.292z M256,146.535l48.056,119.411H287.43h-62.86h-16.626L256,146.535z M277.43,285.946v11.43v10
				c0,3.611-0.906,7.012-2.491,10c-3.6,6.789-10.734,11.43-18.939,11.43s-15.34-4.64-18.939-11.43
				c-1.585-2.988-2.491-6.389-2.491-10v-10v-11.43H277.43z M214.57,285.946v11.43v10c0,3.611-0.906,7.012-2.491,10
				c-3.6,6.789-10.734,11.43-18.939,11.43s-15.34-4.64-18.939-11.43c-1.585-2.988-2.491-6.389-2.491-10v-10v-11.43h21.43H214.57z
				 M234.406,146.622l-48.021,119.324h-24.675h-34.565C154.435,242.724,201.271,198.889,234.406,146.622z M130.402,492H81.875
				l27.717-148.753c6.093,3.528,13.156,5.559,20.689,5.559c6.17,0,12.025-1.366,17.291-3.795L130.402,492z M130.281,328.806
				c-6.653,0-12.607-3.048-16.541-7.821c-3.053-3.704-4.889-8.446-4.889-13.609v-10v-7.734c0-0.604,0.033-1.207,0.094-1.806
				c0.002-0.025,0.004-0.051,0.006-0.076c0.064-0.609,0.158-1.215,0.284-1.814h42.476v11.43v10c0,3.611-0.906,7.012-2.491,10
				C145.62,324.165,138.485,328.806,130.281,328.806z M301.607,492h-90.004v-52.255c0-24.814,20.188-45.002,45.002-45.002
				s45.002,20.188,45.002,45.002V492z M381.599,492l-0.956-8.186l-3.143-26.313c-0.655-5.484-5.636-9.398-11.115-8.744
				c-5.484,0.655-9.398,5.632-8.744,11.116l3.14,26.287l0.683,5.84h-39.855v-52.255c0-35.842-29.16-65.002-65.002-65.002
				s-65.002,29.16-65.002,65.002V492h-41.064l17.701-151.537c6.937,5.234,15.562,8.343,24.901,8.343
				c12.561,0,23.826-5.627,31.43-14.483c7.604,8.856,18.869,14.483,31.43,14.483c12.561,0,23.826-5.627,31.43-14.483
				c7.604,8.856,18.869,14.483,31.43,14.483c9.333,0,17.954-3.105,24.888-8.332l4.682,40.236c0.639,5.486,5.604,9.414,11.089,8.777
				c5.485-0.639,9.415-5.603,8.776-11.089l-3.886-33.396c5.271,2.435,11.132,3.804,17.31,3.804c0,0,0,0,0.001,0
				c0.707,0,1.411-0.019,2.112-0.054c0.092-0.005,0.182-0.015,0.274-0.02c0.615-0.035,1.229-0.079,1.839-0.14
				c0.013-0.001,0.026-0.003,0.038-0.005c5.84-0.593,11.413-2.409,16.43-5.312L430.128,492H381.599z"/>
			<path d="M372.451,415.43c-0.25-0.6-0.561-1.18-0.92-1.72c-0.37-0.55-0.78-1.06-1.25-1.52c-0.461-0.46-0.971-0.88-1.511-1.25
				c-0.55-0.36-1.13-0.67-1.729-0.91c-0.601-0.25-1.23-0.45-1.87-0.57c-1.29-0.26-2.62-0.26-3.91,0c-0.64,0.12-1.27,0.32-1.87,0.57
				c-0.6,0.24-1.18,0.55-1.729,0.91c-0.54,0.37-1.061,0.79-1.521,1.25c-0.46,0.46-0.88,0.97-1.24,1.52
				c-0.359,0.54-0.67,1.12-0.92,1.72c-0.25,0.61-0.439,1.24-0.569,1.87c-0.13,0.65-0.2,1.31-0.2,1.96c0,0.65,0.07,1.31,0.2,1.95
				s0.319,1.27,0.569,1.87c0.25,0.61,0.561,1.19,0.92,1.73c0.36,0.55,0.78,1.06,1.24,1.52c0.46,0.46,0.98,0.88,1.521,1.24
				c0.55,0.36,1.13,0.67,1.729,0.92c0.601,0.25,1.23,0.44,1.87,0.57c0.64,0.13,1.3,0.2,1.95,0.2c0.66,0,1.31-0.07,1.96-0.2
				c0.64-0.13,1.27-0.32,1.87-0.57c0.6-0.25,1.18-0.56,1.729-0.92c0.54-0.36,1.05-0.78,1.511-1.24c0.47-0.46,0.88-0.97,1.25-1.52
				c0.359-0.54,0.67-1.12,0.92-1.73c0.25-0.6,0.439-1.23,0.569-1.87c0.13-0.64,0.2-1.3,0.2-1.95s-0.07-1.31-0.2-1.96
				C372.891,416.67,372.701,416.04,372.451,415.43z"/>
		</g>
	</g>
</g>
<g>
</g>
<g>
</g>
<g>
</g>
<g>
</g>
<g>
</g>
<g>
</g>
<g>
</g>
<g>
</g>
<g>
</g>
<g>
</g>
<g>
</g>
<g>
</g>
<g>
</g>
<g>
</g>
<g>
</g>
</svg>
