<?xml version="1.0" encoding="utf-8"?>
<!-- Generator: Adobe Illustrator 21.1.0, SVG Export Plug-In . SVG Version: 6.00 Build 0)  -->
<svg version="1.1" id="Capa_1" xmlns="http://www.w3.org/2000/svg" xmlns:xlink="http://www.w3.org/1999/xlink" x="0px" y="0px"
	 viewBox="0 0 512 512" style="enable-background:new 0 0 512 512;" xml:space="preserve">
<style type="text/css">
	.st0{stroke:#000000;stroke-width:3;stroke-miterlimit:10;}
</style>
<g>
	<g>
		<path d="M379.5,108.6h-247c-4.5,0-8.2,3.7-8.2,8.2v386.9c0,4.5,3.7,8.2,8.2,8.2h247c4.5,0,8.2-3.7,8.2-8.2V116.9
			C387.7,112.3,384,108.6,379.5,108.6z M371.2,495.5H140.8V125.1h230.5L371.2,495.5L371.2,495.5z"/>
	</g>
</g>
<g>
	<g>
		<path d="M256,405c-27.2,0-49.4,22.2-49.4,49.4v49.4c0,4.5,3.7,8.2,8.2,8.2h82.3c4.5,0,8.2-3.7,8.2-8.2v-49.4
			C305.4,427.1,283.2,405,256,405z M288.9,495.5H223v-41.2c0-18.2,14.8-32.9,32.9-32.9s32.9,14.8,32.9,32.9L288.9,495.5L288.9,495.5
			z"/>
	</g>
</g>
<g>
	<g>
		<path d="M198.4,141.6h-32.9c-4.5,0-8.2,3.7-8.2,8.2v49.4c0,4.5,3.7,8.2,8.2,8.2h32.9c4.5,0,8.2-3.7,8.2-8.2v-49.4
			C206.6,145.3,202.9,141.6,198.4,141.6z M190.1,191h-16.5v-33h16.5V191z"/>
	</g>
</g>
<g>
	<g>
		<path d="M280.7,141.6h-49.4c-4.5,0-8.2,3.7-8.2,8.2v49.4c0,4.5,3.7,8.2,8.2,8.2h49.4c4.5,0,8.2-3.7,8.2-8.2v-49.4
			C288.9,145.3,285.2,141.6,280.7,141.6z M272.5,191h-32.9v-33h32.9V191z"/>
	</g>
</g>
<g>
	<g>
		<path d="M346.6,141.6h-32.9c-4.5,0-8.2,3.7-8.2,8.2v49.4c0,4.5,3.7,8.2,8.2,8.2h32.9c4.5,0,8.2-3.7,8.2-8.2v-49.4
			C354.8,145.3,351.1,141.6,346.6,141.6z M338.3,191h-16.5v-33h16.5V191z"/>
	</g>
</g>
<g>
	<g>
		<path d="M198.4,223.9h-32.9c-4.5,0-8.2,3.7-8.2,8.2v49.4c0,4.5,3.7,8.2,8.2,8.2h32.9c4.5,0,8.2-3.7,8.2-8.2v-49.4
			C206.6,227.6,202.9,223.9,198.4,223.9z M190.1,273.3h-16.5v-32.9h16.5V273.3z"/>
	</g>
</g>
<g>
	<g>
		<path d="M280.7,223.9h-49.4c-4.5,0-8.2,3.7-8.2,8.2v49.4c0,4.5,3.7,8.2,8.2,8.2h49.4c4.5,0,8.2-3.7,8.2-8.2v-49.4
			C288.9,227.6,285.2,223.9,280.7,223.9z M272.5,273.3h-32.9v-32.9h32.9V273.3z"/>
	</g>
</g>
<g>
	<g>
		<path d="M346.6,223.9h-32.9c-4.5,0-8.2,3.7-8.2,8.2v49.4c0,4.5,3.7,8.2,8.2,8.2h32.9c4.5,0,8.2-3.7,8.2-8.2v-49.4
			C354.8,227.6,351.1,223.9,346.6,223.9z M338.3,273.3h-16.5v-32.9h16.5V273.3z"/>
	</g>
</g>
<g>
	<g>
		<path d="M198.4,306.2h-32.9c-4.5,0-8.2,3.7-8.2,8.2v49.4c0,4.5,3.7,8.2,8.2,8.2h32.9c4.5,0,8.2-3.7,8.2-8.2v-49.4
			C206.6,309.9,202.9,306.2,198.4,306.2z M190.1,355.6h-16.5v-32.9h16.5V355.6z"/>
	</g>
</g>
<g>
	<g>
		<path d="M280.7,306.2h-49.4c-4.5,0-8.2,3.7-8.2,8.2v49.4c0,4.5,3.7,8.2,8.2,8.2h49.4c4.5,0,8.2-3.7,8.2-8.2v-49.4
			C288.9,309.9,285.2,306.2,280.7,306.2z M272.5,355.6h-32.9v-32.9h32.9V355.6z"/>
	</g>
</g>
<g>
	<g>
		<path d="M346.6,306.2h-32.9c-4.5,0-8.2,3.7-8.2,8.2v49.4c0,4.5,3.7,8.2,8.2,8.2h32.9c4.5,0,8.2-3.7,8.2-8.2v-49.4
			C354.8,309.9,351.1,306.2,346.6,306.2z M338.3,355.6h-16.5v-32.9h16.5V355.6z"/>
	</g>
</g>
<g>
	<g>
		<path d="M181.9,396.8c-4.5,0-8.2,3.7-8.2,8.2v98.8c0,4.5,3.7,8.2,8.2,8.2s8.2-3.7,8.2-8.2V405
			C190.1,400.4,186.5,396.8,181.9,396.8z"/>
	</g>
</g>
<g>
	<g>
		<path d="M330.1,396.8c-4.5,0-8.2,3.7-8.2,8.2v98.8c0,4.5,3.7,8.2,8.2,8.2s8.2-3.7,8.2-8.2V405
			C338.3,400.4,334.6,396.8,330.1,396.8z"/>
	</g>
</g>
<g>
	<g>
		<path d="M132.5,265H33.7c-4.5,0-8.2,3.7-8.2,8.2v197.6c0,4.5,3.7,8.2,8.2,8.2h98.8c4.5,0,8.2-3.7,8.2-8.2V273.3
			C140.8,268.7,137.1,265,132.5,265z M124.3,462.6H42V281.5h82.3V462.6z"/>
	</g>
</g>
<g>
	<g>
		<path d="M99.6,298H66.7c-4.5,0-8.2,3.7-8.2,8.2v49.4c0,4.5,3.7,8.2,8.2,8.2h32.9c4.5,0,8.2-3.7,8.2-8.2v-49.4
			C107.8,301.7,104.1,298,99.6,298z M91.4,347.4H74.9v-32.9h16.5V347.4z"/>
	</g>
</g>
<g>
	<g>
		<path d="M99.6,380.3H66.7c-4.5,0-8.2,3.7-8.2,8.2v49.4c0,4.5,3.7,8.2,8.2,8.2h32.9c4.5,0,8.2-3.7,8.2-8.2v-49.4
			C107.8,384,104.1,380.3,99.6,380.3z M91.4,429.7H74.9v-32.9h16.5V429.7z"/>
	</g>
</g>
<g>
	<g>
		<path d="M42,265H9c-4.5,0-8.2,3.7-8.2,8.2s3.7,8.2,8.2,8.2h33c4.5,0,8.2-3.7,8.2-8.2S46.5,265,42,265z"/>
	</g>
</g>
<g>
	<g>
		<path d="M478.3,265h-98.8c-4.5,0-8.2,3.7-8.2,8.2v197.6c0,4.5,3.7,8.2,8.2,8.2h98.8c4.5,0,8.2-3.7,8.2-8.2V273.3
			C486.5,268.7,482.8,265,478.3,265z M470,462.6h-82.3V281.5H470V462.6z"/>
	</g>
</g>
<g>
	<g>
		<path d="M445.3,298h-32.9c-4.5,0-8.2,3.7-8.2,8.2v49.4c0,4.5,3.7,8.2,8.2,8.2h32.9c4.5,0,8.2-3.7,8.2-8.2v-49.4
			C453.6,301.7,449.9,298,445.3,298z M437.1,347.4h-16.5v-32.9h16.5V347.4z"/>
	</g>
</g>
<g>
	<g>
		<path d="M445.3,380.3h-32.9c-4.5,0-8.2,3.7-8.2,8.2v49.4c0,4.5,3.7,8.2,8.2,8.2h32.9c4.5,0,8.2-3.7,8.2-8.2v-49.4
			C453.6,384,449.9,380.3,445.3,380.3z M437.1,429.7h-16.5v-32.9h16.5V429.7z"/>
	</g>
</g>
<g>
	<g>
		<path d="M503,265h-33c-4.5,0-8.2,3.7-8.2,8.2s3.7,8.2,8.2,8.2h33c4.5,0,8.2-3.7,8.2-8.2S507.5,265,503,265z"/>
	</g>
</g>
<g>
	<g>
		<path d="M140.8,108.6h-32.9c-4.5,0-8.2,3.7-8.2,8.2s3.7,8.2,8.2,8.2h32.9c4.5,0,8.2-3.7,8.2-8.2S145.3,108.6,140.8,108.6z"/>
	</g>
</g>
<g>
	<g>
		<path d="M404.2,108.6h-32.9c-4.5,0-8.2,3.7-8.2,8.2s3.7,8.2,8.2,8.2h32.9c4.5,0,8.2-3.7,8.2-8.2S408.7,108.6,404.2,108.6z"/>
	</g>
</g>
<g>
	<g>
		<g>
			<path class="st0" d="M304.6,65.3c-0.5-0.9-0.5-2,0-2.9l4.2-8.6c2.3-4.8,0.5-10.4-4.2-12.9l-8.4-4.5c-0.9-0.5-1.5-1.3-1.7-2.3
				l-1.6-9.4c-0.9-5.2-5.7-8.7-11-8l-9.4,1.3c-1,0.1-2-0.2-2.8-0.9l-6.8-6.6c-3.8-3.7-9.8-3.7-13.6,0l-6.8,6.6
				c-0.7,0.7-1.7,1-2.8,0.9l-9.4-1.3c-5.2-0.7-10.1,2.8-11,8l-1.6,9.4c-0.2,1-0.8,1.9-1.7,2.3l-8.4,4.5c-4.7,2.5-6.5,8.2-4.2,12.9
				l4.2,8.6c0.5,0.9,0.5,2,0,2.9l-4.2,8.6c-2.3,4.8-0.5,10.4,4.2,12.9l8.4,4.5c0.9,0.5,1.5,1.3,1.7,2.3l1.6,9.4
				c0.8,4.8,4.9,8.1,9.6,8.1c0.5,0,0.9,0,1.4-0.1l9.4-1.3c1-0.1,2,0.2,2.8,0.9l6.8,6.6c1.9,1.8,4.3,2.8,6.8,2.8
				c2.4,0,4.9-0.9,6.8-2.8l6.8-6.6c0.7-0.7,1.7-1,2.8-0.9l9.4,1.3c5.2,0.7,10.1-2.8,11-8l1.6-9.4c0.2-1,0.8-1.9,1.7-2.3l8.4-4.5
				c4.7-2.5,6.5-8.2,4.2-12.9L304.6,65.3z M301.5,81l-8.4,4.5c-2.7,1.4-4.5,4-5,6.9l-1.6,9.4c-0.3,1.8-1.9,3-3.7,2.7l-9.4-1.3
				c-3-0.4-6,0.5-8.2,2.7l-6.8,6.6c-1.3,1.2-3.3,1.2-4.6,0l-6.8-6.6c-1.8-1.8-4.3-2.8-6.8-2.8c-0.5,0-0.9,0-1.4,0.1l-9.4,1.3
				c-1.8,0.3-3.4-0.9-3.7-2.7l-1.6-9.4c-0.5-3-2.4-5.5-5-6.9l-8.4-4.5c-1.6-0.8-2.2-2.8-1.4-4.4l4.2-8.6c1.3-2.7,1.3-5.9,0-8.6
				L209,51c-0.8-1.6-0.2-3.5,1.4-4.4l8.4-4.5c2.7-1.4,4.5-4,5-6.9l1.6-9.4c0.3-1.8,1.9-3,3.7-2.7l9.4,1.3c3,0.4,6-0.5,8.2-2.7
				l6.8-6.6c1.3-1.2,3.3-1.2,4.6,0l6.8,6.6c2.2,2.1,5.2,3.1,8.2,2.7l9.4-1.3c1.8-0.3,3.4,0.9,3.7,2.7l1.6,9.4c0.5,3,2.4,5.5,5,6.9
				l8.4,4.5c1.6,0.8,2.2,2.8,1.4,4.4l-4.2,8.6c-1.3,2.7-1.3,5.9,0,8.6l4.2,8.6C303.8,78.3,303.1,80.2,301.5,81z"/>
		</g>
	</g>
	<g>
		<g>
			<path class="st0" d="M279.6,40.2c-1.3-1.3-3.3-1.3-4.6,0l-42.7,42.7c-1.3,1.3-1.3,3.3,0,4.6c0.6,0.6,1.5,0.9,2.3,0.9
				s1.7-0.3,2.3-0.9l42.7-42.7C280.9,43.5,280.9,41.5,279.6,40.2z"/>
		</g>
	</g>
	<g>
		<g>
			<path class="st0" d="M243.1,34.7c-6.5,0-11.9,5.3-11.9,11.9s5.3,11.9,11.9,11.9S255,53.2,255,46.6S249.6,34.7,243.1,34.7z
				 M243.1,52c-3,0-5.4-2.4-5.4-5.4s2.4-5.4,5.4-5.4s5.4,2.4,5.4,5.4C248.5,49.5,246,52,243.1,52z"/>
		</g>
	</g>
	<g>
		<g>
			<path class="st0" d="M268.9,69.2c-6.5,0-11.9,5.3-11.9,11.9c0,6.5,5.3,11.9,11.9,11.9s11.9-5.3,11.9-11.9S275.5,69.2,268.9,69.2z
				 M268.9,86.4c-3,0-5.4-2.4-5.4-5.4s2.4-5.4,5.4-5.4s5.4,2.4,5.4,5.4S271.9,86.4,268.9,86.4z"/>
		</g>
	</g>
</g>
</svg>
