<?xml version="1.0"?>
<svg xmlns="http://www.w3.org/2000/svg" viewBox="0 0 64 64" width="512" height="512"><g id="For_rent" data-name="For rent"><path d="M62,55H61a1,1,0,0,0,0,2h1a1,1,0,0,0,0-2Z"/><path d="M58,55H52V27h3a1,1,0,0,0,1-1V11a1,1,0,0,0-1-1H9a1,1,0,0,0-1,1V26a1,1,0,0,0,1,1H44V55H39V39a1,1,0,0,0-.476-.852l-13-8a1,1,0,0,0-1.048,0l-13,8A1,1,0,0,0,11,39V55H2a1,1,0,0,0,0,2H58a1,1,0,0,0,0-2ZM10,12H54V25H10ZM22,45H16V44h6ZM16,55V47h6v8Zm8,0V43a1,1,0,0,0-1-1H15a1,1,0,0,0-1,1V55H13V39.559l12-7.385,12,7.385V55Zm22,0V27h4V55Z"/><path d="M15,16a1,1,0,0,0,0-2H13a1,1,0,0,0-1,1v7a1,1,0,0,0,2,0V19h1a1,1,0,0,0,0-2H14V16Z"/><path d="M40,16a1,1,0,0,0,0-2H38a1,1,0,0,0-1,1v7a1,1,0,0,0,1,1h2a1,1,0,0,0,0-2H39V19h1a1,1,0,0,0,0-2H39V16Z"/><path d="M27,14H24a1,1,0,0,0-1,1v7a1,1,0,0,0,2,0V20.236l1.105,2.211a1,1,0,1,0,1.79-.894L26.618,19H27a1,1,0,0,0,1-1V15A1,1,0,0,0,27,14Zm-1,3H25V16h1Z"/><path d="M35,14H32a1,1,0,0,0-1,1v7a1,1,0,0,0,2,0V20.236l1.1,2.211a1,1,0,1,0,1.79-.894L34.618,19H35a1,1,0,0,0,1-1V15A1,1,0,0,0,35,14Zm-1,3H33V16h1Z"/><path d="M35,42H27a1,1,0,0,0-1,1v8a1,1,0,0,0,1,1h8a1,1,0,0,0,1-1V43A1,1,0,0,0,35,42Zm-7,2h6v1H28Zm0,6V47h2v3Zm6,0H32V47h2Z"/><path d="M21,14H18a1,1,0,0,0-1,1v7a1,1,0,0,0,1,1h3a1,1,0,0,0,1-1V15A1,1,0,0,0,21,14Zm-1,7H19V16h1Z"/><path d="M46,23a.988.988,0,0,0,.2-.021A1,1,0,0,0,47,22V15a1,1,0,0,0-2,0v2.128l-1.081-2.522A1,1,0,0,0,42,15v7a1,1,0,0,0,2,0V19.872l1.081,2.522A1,1,0,0,0,46,23Z"/><path d="M48,16h1v6a1,1,0,0,0,2,0V16h1a1,1,0,0,0,0-2H48a1,1,0,0,0,0,2Z"/></g></svg>
