<?xml version="1.0" encoding="iso-8859-1"?>
<!-- Generator: Adobe Illustrator 17.1.0, SVG Export Plug-In . SVG Version: 6.00 Build 0)  -->
<!DOCTYPE svg PUBLIC "-//W3C//DTD SVG 1.1//EN" "http://www.w3.org/Graphics/SVG/1.1/DTD/svg11.dtd">
<svg version="1.1" id="Capa_1" xmlns="http://www.w3.org/2000/svg" xmlns:xlink="http://www.w3.org/1999/xlink" x="0px" y="0px"
	 viewBox="0 0 454.66 454.66" style="enable-background:new 0 0 454.66 454.66;" xml:space="preserve">
<g>
	<path d="M447.865,323.76c-5.231-1.773-10.908,1.033-12.679,6.265c-4.404,13.006-12.567,19.328-24.956,19.328
		c-12.029,0-23.091-8.8-27.525-21.897c-1.412-4.171-5.308-6.792-9.481-6.788c-0.049-0.001-0.097-0.003-0.146-0.003
		c-0.059,0.001-0.117,0.002-0.176,0.004c-4.167,0.002-8.056,2.621-9.467,6.787c-4.435,13.098-15.496,21.897-27.525,21.897
		s-23.091-8.8-27.525-21.897c-0.716-2.115-2.077-3.824-3.782-5.004l5.285-1.612c24.32-7.419,38.07-33.24,30.652-57.561
		c-3.594-11.781-11.56-21.458-22.432-27.247s-23.347-6.999-35.129-3.404c-5.282,1.611-8.258,7.199-6.647,12.482
		c1.612,5.283,7.202,8.261,12.483,6.646c6.671-2.034,13.736-1.351,19.892,1.929c6.157,3.278,10.667,8.758,12.703,15.43
		c4.201,13.771-3.585,28.395-17.357,32.596l-35.845,10.934l-21.194-90.924l-0.374-0.85c-4.225-9.61-16.602-16.24-29.705-23.26
		c-5.183-2.776-12.863-6.715-15.14-8.921c-3.1-10.555-8.591-31.248-10.728-38.248h76.172c6.152,0,11.709-2.271,16.071-6.237
		c1.516-1.379,2.794-3.093,3.833-4.763h157.478c4.971,0,9-4.029,9-9c0-4.971-4.029-9-9-9H289.576
		c-1.067-3.929-3.179-7.262-6.269-10.069c-4.361-3.965-9.918-5.931-16.07-5.931H137.838c-11.214,0-17.639,4.571-21.053,8.512
		c-4.819,5.562-6.958,12.094-6.185,19.011l0.08,0.683l18.77,71.975c2.022,10.734,8.392,19.047,18.445,24.071l0.608,0.3l0.642,0.217
		c0.114,0.039,11.5,3.933,23.374,9.453c21.101,9.813,23.626,15.334,23.631,15.337c5.646,17.202,18.316,71.933,18.443,72.484
		c0.023,0.098,0.054,0.19,0.079,0.286c-4.506,12.92-15.476,21.581-27.406,21.581c-12.029,0-23.091-8.8-27.525-21.897
		c-1.412-4.171-5.309-6.793-9.482-6.788c-0.049-0.001-0.097-0.003-0.146-0.003c-0.059,0.001-0.117,0.002-0.176,0.004
		c-4.168,0.002-8.056,2.621-9.467,6.787c-4.435,13.098-15.496,21.897-27.525,21.897c-12.389,0-20.552-6.322-24.956-19.328
		c-1.771-5.23-7.446-8.038-12.679-6.265c-5.231,1.771-8.036,7.447-6.265,12.679c7.082,20.917,23.083,32.914,43.899,32.914
		c14.431,0,27.907-6.999,37.161-18.477c9.254,11.479,22.73,18.477,37.161,18.477c14.431,0,27.907-6.998,37.16-18.477
		c9.253,11.479,22.73,18.477,37.161,18.477c14.431,0,27.907-6.998,37.16-18.477c9.254,11.479,22.73,18.477,37.16,18.477
		c14.431,0,27.907-6.999,37.161-18.477c9.254,11.479,22.73,18.477,37.161,18.477c20.816,0,36.817-11.997,43.899-32.914
		C455.901,331.207,453.095,325.531,447.865,323.76z M181.443,221.757c-11.432-5.35-22.255-9.228-25.132-10.232
		c-4.201-2.246-6.444-5.297-7.243-9.822l-0.07-0.395l-18.556-71.174c-0.004-0.809,0.24-1.676,1.46-3.084
		c0.999-1.152,2.996-1.608,5.937-1.608h129.398c1.542,0,2.159,0.314,2.62,0.733c0.271,0.247,0.527,0.415,0.527,1.527
		c0,1.112-0.258,1.49-0.531,1.738c-0.457,0.416-1.074,1.002-2.616,1.002h-77.285c-9.585,0-14.447,3.828-16.838,7.185
		c-4.299,6.037-2.832,12.587-2.185,14.729c0.747,2.746,8.258,30.318,11.987,42.9c2.419,8.161,11.711,13.117,24.573,20.007
		c6.39,3.423,18.044,9.655,20.556,13.202l20.987,90.034l-14.94,4.555c-0.005-0.023-0.007-0.048-0.012-0.07
		c-0.528-2.285-13.001-56.166-18.928-74.219C213.282,243.067,207.753,234.069,181.443,221.757z M261.588,349.353
		c-6.983,0-13.63-2.98-18.854-8.031l46.505-14.185c-0.04,0.107-0.089,0.209-0.126,0.318
		C284.678,340.553,273.617,349.353,261.588,349.353z"/>
	<path d="M379.35,388.849c-5.233-1.772-10.908,1.033-12.679,6.265c-4.404,13.006-12.567,19.328-24.956,19.328
		c-12.029,0-23.091-8.8-27.525-21.897c-1.413-4.173-5.312-6.796-9.488-6.789c-0.045-0.001-0.089-0.002-0.134-0.003
		c-0.063,0.001-0.125,0.002-0.187,0.005c-4.165,0.003-8.052,2.622-9.462,6.787c-4.435,13.098-15.496,21.897-27.525,21.897
		s-23.091-8.8-27.525-21.897c-1.413-4.173-5.313-6.797-9.488-6.789c-0.044-0.001-0.089-0.002-0.133-0.003
		c-0.062,0.001-0.125,0.002-0.187,0.005c-4.166,0.003-8.052,2.622-9.462,6.787c-4.435,13.098-15.496,21.897-27.525,21.897
		s-23.091-8.8-27.525-21.897c-1.413-4.173-5.312-6.796-9.488-6.789c-0.045-0.001-0.089-0.002-0.133-0.003
		c-0.062,0.001-0.125,0.002-0.187,0.005c-4.166,0.003-8.052,2.622-9.462,6.787c-4.435,13.098-15.496,21.897-27.525,21.897
		s-23.091-8.8-27.525-21.897c-1.413-4.173-5.313-6.796-9.487-6.789c-0.045-0.001-0.089-0.002-0.134-0.003
		c-0.063,0.001-0.125,0.002-0.188,0.005c-4.165,0.004-8.051,2.622-9.461,6.787c-4.435,13.098-15.496,21.897-27.525,21.897
		c-12.389,0-20.552-6.322-24.956-19.328c-1.771-5.23-7.446-8.04-12.679-6.265c-5.231,1.771-8.036,7.447-6.265,12.679
		c7.082,20.917,23.083,32.914,43.899,32.914c14.431,0,27.907-6.998,37.16-18.477c9.253,11.479,22.73,18.477,37.161,18.477
		c14.431,0,27.907-6.998,37.16-18.477c9.254,11.479,22.73,18.477,37.16,18.477c14.431,0,27.907-6.999,37.161-18.477
		c9.254,11.479,22.73,18.477,37.161,18.477s27.907-6.999,37.161-18.477c9.254,11.479,22.73,18.477,37.161,18.477
		c20.816,0,36.817-11.997,43.899-32.914C387.386,396.296,384.581,390.62,379.35,388.849z"/>
	<path d="M139.987,96.963c10.549,0,19.68-3.779,27.142-11.234c7.452-7.452,11.23-16.582,11.23-27.138s-3.778-19.686-11.23-27.137
		c-7.454-7.455-16.586-11.235-27.142-11.235c-10.553,0-19.684,3.78-27.138,11.234c-7.452,7.452-11.23,16.582-11.23,27.138
		s3.778,19.686,11.233,27.141C120.31,93.184,129.44,96.963,139.987,96.963z M126.991,45.595c3.668-3.668,7.797-5.376,12.996-5.376
		c5.201,0,9.332,1.708,13,5.377c3.666,3.665,5.373,7.794,5.373,12.995s-1.707,9.33-5.37,12.992c-3.673,3.671-7.805,5.38-13.002,5.38
		c-5.195,0-9.326-1.709-12.996-5.377c-3.666-3.665-5.373-7.794-5.373-12.995S123.325,49.261,126.991,45.595z"/>
</g>
<g>
</g>
<g>
</g>
<g>
</g>
<g>
</g>
<g>
</g>
<g>
</g>
<g>
</g>
<g>
</g>
<g>
</g>
<g>
</g>
<g>
</g>
<g>
</g>
<g>
</g>
<g>
</g>
<g>
</g>
</svg>
