<?xml version="1.0" encoding="iso-8859-1"?>
<!-- Generator: Adobe Illustrator 19.0.0, SVG Export Plug-In . SVG Version: 6.00 Build 0)  -->
<svg version="1.1" id="Capa_1" xmlns="http://www.w3.org/2000/svg" xmlns:xlink="http://www.w3.org/1999/xlink" x="0px" y="0px"
	 viewBox="0 0 211.627 211.627" style="enable-background:new 0 0 211.627 211.627;" xml:space="preserve">
<g>
	<g>
		<path d="M157.013,44.239h-102.4c-1.884,0-3.413,1.529-3.413,3.413v160.427c0,1.884,1.529,3.413,3.413,3.413h102.4
			c1.884,0,3.413-1.529,3.413-3.413V47.652C160.427,45.768,158.898,44.239,157.013,44.239z M153.6,204.665H58.027v-153.6H153.6
			V204.665z"/>
	</g>
</g>
<g>
	<g>
		<path d="M105.813,167.119c-11.293,0-20.48,9.187-20.48,20.48v20.48c0,1.884,1.529,3.413,3.413,3.413h34.133
			c1.884,0,3.413-1.529,3.413-3.413v-20.48C126.293,176.306,117.106,167.119,105.813,167.119z M119.467,204.665H92.16v-17.067
			c0-7.528,6.125-13.653,13.653-13.653s13.653,6.125,13.653,13.653V204.665z"/>
	</g>
</g>
<g>
	<g>
		<path d="M81.92,57.892H68.267c-1.884,0-3.413,1.529-3.413,3.413v20.48c0,1.884,1.529,3.413,3.413,3.413H81.92
			c1.884,0,3.413-1.529,3.413-3.413v-20.48C85.333,59.421,83.804,57.892,81.92,57.892z M78.507,78.372H71.68V64.719h6.827V78.372z"
			/>
	</g>
</g>
<g>
	<g>
		<path d="M116.053,57.892h-20.48c-1.884,0-3.413,1.529-3.413,3.413v20.48c0,1.884,1.529,3.413,3.413,3.413h20.48
			c1.884,0,3.413-1.529,3.413-3.413v-20.48C119.467,59.421,117.938,57.892,116.053,57.892z M112.64,78.372H98.987V64.719h13.653
			V78.372z"/>
	</g>
</g>
<g>
	<g>
		<path d="M143.36,57.892h-13.653c-1.884,0-3.413,1.529-3.413,3.413v20.48c0,1.884,1.529,3.413,3.413,3.413h13.653
			c1.884,0,3.413-1.529,3.413-3.413v-20.48C146.773,59.421,145.244,57.892,143.36,57.892z M139.947,78.372h-6.827V64.719h6.827
			V78.372z"/>
	</g>
</g>
<g>
	<g>
		<path d="M81.92,92.025H68.267c-1.884,0-3.413,1.529-3.413,3.413v20.48c0,1.884,1.529,3.413,3.413,3.413H81.92
			c1.884,0,3.413-1.529,3.413-3.413v-20.48C85.333,93.554,83.804,92.025,81.92,92.025z M78.507,112.505H71.68V98.852h6.827V112.505z
			"/>
	</g>
</g>
<g>
	<g>
		<path d="M116.053,92.025h-20.48c-1.884,0-3.413,1.529-3.413,3.413v20.48c0,1.884,1.529,3.413,3.413,3.413h20.48
			c1.884,0,3.413-1.529,3.413-3.413v-20.48C119.467,93.554,117.938,92.025,116.053,92.025z M112.64,112.505H98.987V98.852h13.653
			V112.505z"/>
	</g>
</g>
<g>
	<g>
		<path d="M143.36,92.025h-13.653c-1.884,0-3.413,1.529-3.413,3.413v20.48c0,1.884,1.529,3.413,3.413,3.413h13.653
			c1.884,0,3.413-1.529,3.413-3.413v-20.48C146.773,93.554,145.244,92.025,143.36,92.025z M139.947,112.505h-6.827V98.852h6.827
			V112.505z"/>
	</g>
</g>
<g>
	<g>
		<path d="M81.92,126.159H68.267c-1.884,0-3.413,1.529-3.413,3.413v20.48c0,1.884,1.529,3.413,3.413,3.413H81.92
			c1.884,0,3.413-1.529,3.413-3.413v-20.48C85.333,127.688,83.804,126.159,81.92,126.159z M78.507,146.639H71.68v-13.653h6.827
			V146.639z"/>
	</g>
</g>
<g>
	<g>
		<path d="M116.053,126.159h-20.48c-1.884,0-3.413,1.529-3.413,3.413v20.48c0,1.884,1.529,3.413,3.413,3.413h20.48
			c1.884,0,3.413-1.529,3.413-3.413v-20.48C119.467,127.688,117.938,126.159,116.053,126.159z M112.64,146.639H98.987v-13.653
			h13.653V146.639z"/>
	</g>
</g>
<g>
	<g>
		<path d="M143.36,126.159h-13.653c-1.884,0-3.413,1.529-3.413,3.413v20.48c0,1.884,1.529,3.413,3.413,3.413h13.653
			c1.884,0,3.413-1.529,3.413-3.413v-20.48C146.773,127.688,145.244,126.159,143.36,126.159z M139.947,146.639h-6.827v-13.653h6.827
			V146.639z"/>
	</g>
</g>
<g>
	<g>
		<path d="M75.093,163.705c-1.884,0-3.413,1.529-3.413,3.413v40.96c0,1.884,1.529,3.413,3.413,3.413
			c1.884,0,3.413-1.529,3.413-3.413v-40.96C78.507,165.234,76.978,163.705,75.093,163.705z"/>
	</g>
</g>
<g>
	<g>
		<path d="M136.533,163.705c-1.884,0-3.413,1.529-3.413,3.413v40.96c0,1.884,1.529,3.413,3.413,3.413
			c1.884,0,3.413-1.529,3.413-3.413v-40.96C139.947,165.234,138.418,163.705,136.533,163.705z"/>
	</g>
</g>
<g>
	<g>
		<path d="M54.613,109.092h-40.96c-1.884,0-3.413,1.529-3.413,3.413v81.92c0,1.884,1.529,3.413,3.413,3.413h40.96
			c1.884,0,3.413-1.529,3.413-3.413v-81.92C58.027,110.621,56.497,109.092,54.613,109.092z M51.2,191.012H17.067v-75.093H51.2
			V191.012z"/>
	</g>
</g>
<g>
	<g>
		<path d="M40.96,122.745H27.307c-1.884,0-3.413,1.529-3.413,3.413v20.48c0,1.884,1.529,3.413,3.413,3.413H40.96
			c1.884,0,3.413-1.529,3.413-3.413v-20.48C44.373,124.274,42.844,122.745,40.96,122.745z M37.547,143.225H30.72v-13.653h6.827
			V143.225z"/>
	</g>
</g>
<g>
	<g>
		<path d="M40.96,156.879H27.307c-1.884,0-3.413,1.529-3.413,3.413v20.48c0,1.884,1.529,3.413,3.413,3.413H40.96
			c1.884,0,3.413-1.529,3.413-3.413v-20.48C44.373,158.408,42.844,156.879,40.96,156.879z M37.547,177.359H30.72v-13.653h6.827
			V177.359z"/>
	</g>
</g>
<g>
	<g>
		<path d="M17.067,109.092H3.413c-1.884,0-3.413,1.529-3.413,3.413c0,1.884,1.529,3.413,3.413,3.413h13.653
			c1.884,0,3.413-1.529,3.413-3.413C20.48,110.621,18.951,109.092,17.067,109.092z"/>
	</g>
</g>
<g>
	<g>
		<path d="M197.973,109.092h-40.96c-1.884,0-3.413,1.529-3.413,3.413v81.92c0,1.884,1.529,3.413,3.413,3.413h40.96
			c1.884,0,3.413-1.529,3.413-3.413v-81.92C201.387,110.621,199.858,109.092,197.973,109.092z M194.56,191.012h-34.133v-75.093
			h34.133V191.012z"/>
	</g>
</g>
<g>
	<g>
		<path d="M184.32,122.745h-13.653c-1.884,0-3.413,1.529-3.413,3.413v20.48c0,1.884,1.529,3.413,3.413,3.413h13.653
			c1.884,0,3.413-1.529,3.413-3.413v-20.48C187.733,124.274,186.204,122.745,184.32,122.745z M180.907,143.225h-6.827v-13.653h6.827
			V143.225z"/>
	</g>
</g>
<g>
	<g>
		<path d="M184.32,156.879h-13.653c-1.884,0-3.413,1.529-3.413,3.413v20.48c0,1.884,1.529,3.413,3.413,3.413h13.653
			c1.884,0,3.413-1.529,3.413-3.413v-20.48C187.733,158.408,186.204,156.879,184.32,156.879z M180.907,177.359h-6.827v-13.653h6.827
			V177.359z"/>
	</g>
</g>
<g>
	<g>
		<path d="M208.213,109.092H194.56c-1.884,0-3.413,1.529-3.413,3.413c0,1.884,1.529,3.413,3.413,3.413h13.653
			c1.884,0,3.413-1.529,3.413-3.413C211.627,110.621,210.098,109.092,208.213,109.092z"/>
	</g>
</g>
<g>
	<g>
		<path d="M58.027,44.239H44.373c-1.884,0-3.413,1.529-3.413,3.413s1.529,3.413,3.413,3.413h13.653c1.884,0,3.413-1.529,3.413-3.413
			S59.911,44.239,58.027,44.239z"/>
	</g>
</g>
<g>
	<g>
		<path d="M167.253,44.239H153.6c-1.884,0-3.413,1.529-3.413,3.413s1.529,3.413,3.413,3.413h13.653c1.884,0,3.413-1.529,3.413-3.413
			S169.138,44.239,167.253,44.239z"/>
	</g>
</g>
<g>
	<g>
		<path d="M126.124,14.124c-0.401-1.236-1.469-2.137-2.755-2.323l-9.286-1.35l-4.152-8.414c-0.575-1.166-1.761-1.903-3.062-1.903
			c-1.3,0-2.487,0.737-3.062,1.903l-4.152,8.414l-9.286,1.35c-1.285,0.188-2.353,1.087-2.755,2.323s-0.067,2.592,0.864,3.499
			l6.721,6.55l-1.587,9.248c-0.218,1.28,0.309,2.575,1.358,3.338c0.596,0.432,1.3,0.652,2.007,0.652c0.544,0,1.089-0.13,1.587-0.393
			l8.305-4.366l8.305,4.366c1.15,0.606,2.543,0.505,3.594-0.259c1.05-0.765,1.577-2.06,1.359-3.34l-1.587-9.247l6.719-6.55
			C126.191,16.717,126.525,15.36,126.124,14.124z M112.492,20.538c-0.806,0.785-1.171,1.915-0.983,3.023l0.722,4.198l-3.772-1.983
			c-0.993-0.524-2.183-0.524-3.176,0l-3.772,1.983l0.72-4.2c0.189-1.106-0.177-2.237-0.981-3.021l-3.052-2.975l4.217-0.613
			c1.113-0.16,2.072-0.86,2.57-1.867l1.884-3.821l1.884,3.821c0.498,1.009,1.459,1.707,2.57,1.867l4.219,0.613L112.492,20.538z"/>
	</g>
</g>
<g>
	<g>
		<path d="M163.671,14.892c-0.401-1.236-1.469-2.137-2.755-2.323l-6.929-1.007l-3.096-6.277c-0.575-1.166-1.761-1.903-3.062-1.903
			c-1.3,0-2.487,0.737-3.062,1.903l-3.096,6.277l-6.929,1.007c-1.285,0.188-2.354,1.087-2.755,2.323
			c-0.401,1.236-0.067,2.592,0.864,3.499l5.012,4.886l-1.183,6.898c-0.218,1.28,0.307,2.574,1.359,3.338
			c0.596,0.432,1.299,0.652,2.007,0.652c0.543,0,1.087-0.13,1.584-0.393l6.197-3.258l6.195,3.258
			c1.15,0.606,2.543,0.505,3.594-0.259c1.05-0.765,1.577-2.058,1.359-3.338l-1.183-6.898l5.012-4.886
			C163.738,17.485,164.072,16.128,163.671,14.892z M151.745,19.639c-0.806,0.783-1.171,1.915-0.983,3.021l0.319,1.852l-1.662-0.874
			c-0.993-0.522-2.183-0.522-3.176,0l-1.664,0.876l0.319-1.852c0.189-1.106-0.177-2.237-0.981-3.021l-1.345-1.311l1.859-0.273
			c1.113-0.162,2.072-0.86,2.57-1.867l0.829-1.683l0.829,1.683c0.498,1.009,1.459,1.705,2.57,1.867l1.86,0.271L151.745,19.639z"/>
	</g>
</g>
<g>
	<g>
		<path d="M197.806,17.662c-0.401-1.236-1.469-2.137-2.755-2.323l-5.299-0.771l-2.372-4.803c-0.575-1.166-1.761-1.903-3.06-1.903
			c-1.299,0-2.485,0.737-3.06,1.903l-2.372,4.803l-5.299,0.771c-1.285,0.188-2.353,1.087-2.755,2.323
			c-0.401,1.236-0.067,2.592,0.864,3.499l3.835,3.738l-0.905,5.279c-0.218,1.28,0.309,2.574,1.359,3.338
			c1.053,0.765,2.446,0.864,3.594,0.259l4.739-2.492l4.739,2.492c0.5,0.261,1.046,0.391,1.589,0.391c0.707,0,1.411-0.22,2.005-0.65
			c1.05-0.765,1.577-2.058,1.359-3.338l-0.905-5.279l3.835-3.738C197.873,20.255,198.207,18.898,197.806,17.662z M187.058,21.26
			c-0.804,0.783-1.169,1.915-0.981,3.021l0.039,0.23l-0.206-0.109c-0.497-0.259-1.044-0.391-1.589-0.391s-1.092,0.131-1.589,0.394
			l-0.207,0.109l0.039-0.23c0.189-1.106-0.177-2.237-0.981-3.021l-0.169-0.164l0.232-0.034c1.111-0.16,2.072-0.86,2.569-1.867
			l0.106-0.212l0.106,0.208c0.497,1.009,1.458,1.707,2.569,1.867l0.232,0.034L187.058,21.26z"/>
	</g>
</g>
<g>
	<g>
		<path d="M81.751,14.892c-0.401-1.236-1.469-2.137-2.755-2.323l-6.929-1.007l-3.096-6.277C68.396,4.12,67.21,3.383,65.91,3.383
			s-2.487,0.737-3.062,1.903l-3.096,6.277l-6.929,1.007c-1.285,0.188-2.353,1.087-2.755,2.323c-0.401,1.236-0.067,2.592,0.864,3.499
			l5.013,4.886l-1.183,6.898c-0.218,1.28,0.307,2.574,1.359,3.338c0.596,0.432,1.299,0.652,2.007,0.652
			c0.543,0,1.087-0.13,1.584-0.393l6.197-3.258l6.195,3.258c1.15,0.606,2.543,0.505,3.594-0.259c1.05-0.765,1.577-2.058,1.359-3.338
			l-1.183-6.898l5.013-4.886C81.818,17.485,82.152,16.128,81.751,14.892z M69.825,19.639c-0.806,0.783-1.171,1.915-0.983,3.021
			l0.319,1.852l-1.662-0.874c-0.993-0.522-2.183-0.522-3.176,0l-1.664,0.876l0.319-1.852c0.189-1.106-0.177-2.237-0.981-3.021
			l-1.345-1.311l1.859-0.273c1.113-0.162,2.072-0.86,2.57-1.867l0.829-1.683l0.829,1.683c0.498,1.009,1.459,1.705,2.57,1.867
			l1.86,0.271L69.825,19.639z"/>
	</g>
</g>
<g>
	<g>
		<path d="M42.909,17.661c-0.401-1.236-1.469-2.137-2.755-2.323l-5.301-0.771l-2.369-4.801C31.91,8.6,30.723,7.863,29.423,7.863
			c-1.299,0-2.485,0.737-3.06,1.903l-2.372,4.803l-5.299,0.771c-1.285,0.188-2.353,1.087-2.755,2.323
			c-0.401,1.236-0.067,2.592,0.864,3.499l3.835,3.738l-0.905,5.279c-0.218,1.28,0.309,2.574,1.359,3.338
			c1.053,0.765,2.446,0.864,3.594,0.259l4.739-2.492l4.739,2.492c0.5,0.261,1.046,0.391,1.589,0.391c0.707,0,1.411-0.22,2.005-0.652
			c1.05-0.765,1.577-2.058,1.359-3.338l-0.905-5.279l3.835-3.738C42.976,20.253,43.31,18.896,42.909,17.661z M32.16,21.26
			c-0.804,0.783-1.169,1.915-0.981,3.021l0.039,0.23l-0.207-0.109c-0.497-0.259-1.044-0.391-1.589-0.391s-1.091,0.131-1.589,0.393
			l-0.206,0.109l0.039-0.23c0.189-1.106-0.177-2.237-0.981-3.021l-0.169-0.164l0.232-0.034c1.111-0.16,2.072-0.86,2.569-1.867
			l0.106-0.21l0.102,0.208c0.498,1.007,1.459,1.707,2.57,1.867l0.234,0.034L32.16,21.26z"/>
	</g>
</g>
<g>
</g>
<g>
</g>
<g>
</g>
<g>
</g>
<g>
</g>
<g>
</g>
<g>
</g>
<g>
</g>
<g>
</g>
<g>
</g>
<g>
</g>
<g>
</g>
<g>
</g>
<g>
</g>
<g>
</g>
</svg>
