<?xml version="1.0" encoding="utf-8"?>
<!-- Generator: Adobe Illustrator 21.1.0, SVG Export Plug-In . SVG Version: 6.00 Build 0)  -->
<svg version="1.1" id="Layer_1" xmlns="http://www.w3.org/2000/svg" xmlns:xlink="http://www.w3.org/1999/xlink" x="0px" y="0px"
	 viewBox="0 0 512 512" style="enable-background:new 0 0 512 512;" xml:space="preserve">
<g>
	<path d="M355.5,216.7c0,16.1-4.1,31.9-12,45.8c-2.4,4.2-7.7,5.7-11.9,3.3c-4.2-2.4-5.6-7.8-3.3-12c6.3-11.2,9.7-24.1,9.7-37.1
		c0-41.4-33.3-75-74.2-75s-74.2,33.6-74.2,75s33.3,75,74.2,75c12.7,0,25.3-3.3,36.3-9.6c4.2-2.4,9.5-0.9,11.9,3.4
		c2.4,4.2,0.9,9.6-3.3,12c-13.6,7.7-29.1,11.8-44.9,11.8c-22,0-42.3-7.9-58.1-21l-58.8,59.1c-1.7,1.7-3.9,2.6-6.2,2.6
		c-2.2,0-4.5-0.9-6.2-2.6c-3.4-3.5-3.4-9,0-12.5l58.8-59c-13.2-16.1-21.2-36.7-21.2-59.2c0-51.1,41.1-92.6,91.7-92.6
		S355.5,165.6,355.5,216.7z M242.1,213.2c-3.3-4.6-5.3-10.3-5.3-16.4c0-15.3,12.3-27.8,27.5-27.8c15.2,0,27.5,12.5,27.5,27.8
		c0,6.1-2,11.8-5.3,16.4c9.9,6.1,17.3,16.1,19.8,28.2c0.9,4.4-0.2,8.8-3,12.3c-2.8,3.4-6.9,5.4-11.2,5.4h-55.7
		c-4.4,0-8.5-2-11.2-5.4c-2.8-3.4-3.8-7.9-3-12.3C224.7,229.3,232.2,219.3,242.1,213.2z M254.3,196.8c0,5.6,4.5,10.1,10,10.1
		c5.5,0,10-4.6,10-10.1c0-5.6-4.5-10.1-10-10.1C258.8,186.7,254.3,191.2,254.3,196.8z M240.4,241.4h47.9c-3.6-9.9-13-16.8-23.7-16.8
		h-0.5C253.4,224.6,244,231.5,240.4,241.4z"/>
	<path d="M140.8,350c-2.4,0-4.6-0.9-6.3-2.6c-3.4-3.5-3.4-9.2,0-12.6l58.7-58.9c-6.7-8.1-11.9-17.3-15.5-27.1
		c-3.7-10.2-5.6-21-5.6-32c0-51.1,41.2-92.7,91.8-92.7c50.6,0,91.8,41.6,91.8,92.7c0,16.1-4.2,32-12,45.9c-2.4,4.3-7.8,5.8-12,3.3
		c-2-1.2-3.5-3.1-4.1-5.4c-0.6-2.3-0.3-4.7,0.8-6.8c6.3-11.2,9.7-24,9.7-37c0-41.3-33.2-74.9-74.1-74.9c-40.9,0-74.1,33.6-74.1,74.9
		c0,41.3,33.2,74.9,74.1,74.9c12.7,0,25.3-3.3,36.3-9.6c4.2-2.4,9.6-0.9,12,3.4c1.2,2.1,1.4,4.5,0.8,6.8c-0.6,2.3-2.1,4.2-4.2,5.4
		c-13.6,7.8-29.2,11.9-44.9,11.9c-10.8,0-21.4-1.9-31.4-5.6c-9.7-3.6-18.7-8.8-26.7-15.4l-58.8,59C145.3,349.1,143.1,350,140.8,350z
		 M263.9,124.2c-50.5,0-91.6,41.5-91.6,92.5c0,11,1.9,21.7,5.6,32c3.6,9.9,8.8,19,15.5,27.1l0.1,0.1l-0.1,0.1l-58.8,59
		c-3.4,3.4-3.4,8.9,0,12.3c1.6,1.7,3.8,2.6,6.1,2.6c2.3,0,4.5-0.9,6.1-2.5l58.9-59.1l0.1,0.1c8,6.7,17,11.9,26.7,15.4
		c10,3.7,20.6,5.6,31.3,5.6c15.7,0,31.2-4.1,44.8-11.8c2-1.1,3.5-3,4.1-5.2c0.6-2.2,0.3-4.6-0.8-6.6c-2.3-4.2-7.6-5.7-11.7-3.3
		c-11,6.3-23.6,9.6-36.4,9.6c-41,0-74.3-33.7-74.3-75.1c0-41.4,33.3-75.1,74.3-75.1c41,0,74.3,33.7,74.3,75.1
		c0,13-3.4,25.9-9.7,37.1c-1.1,2-1.4,4.4-0.8,6.6c0.6,2.2,2,4.1,4,5.3c4.1,2.4,9.4,0.9,11.8-3.3c7.8-13.9,12-29.7,12-45.8
		C355.4,165.7,314.3,124.2,263.9,124.2z M292.1,259.2h-55.7c-4.4,0-8.5-2-11.3-5.4c-2.8-3.5-3.9-8-3-12.4
		c2.4-11.7,9.6-21.9,19.8-28.2c-3.4-4.8-5.2-10.4-5.2-16.3c0-15.4,12.4-27.9,27.6-27.9c15.2,0,27.6,12.5,27.6,27.9
		c0,5.9-1.8,11.6-5.2,16.3c10.2,6.2,17.4,16.5,19.8,28.2c0.9,4.4-0.2,8.9-3,12.4C300.7,257.2,296.6,259.2,292.1,259.2z M264.3,169.2
		c-15.1,0-27.4,12.4-27.4,27.7c0,5.9,1.8,11.5,5.3,16.3l0.1,0.1l-0.1,0.1c-10.2,6.2-17.4,16.5-19.8,28.1c-0.9,4.3,0.2,8.8,2.9,12.2
		c2.7,3.4,6.8,5.4,11.1,5.4h55.7c4.3,0,8.4-2,11.1-5.4c2.8-3.4,3.8-7.9,2.9-12.2c-2.4-11.6-9.6-21.9-19.8-28.1l-0.1-0.1l0.1-0.1
		c3.4-4.8,5.3-10.4,5.3-16.3C291.7,181.6,279.4,169.2,264.3,169.2z M288.4,241.5h-48.1l0.1-0.1c3.7-10.1,13.2-16.8,23.8-16.8h0.5
		c10.6,0,20.1,6.8,23.8,16.8L288.4,241.5z M240.5,241.3h47.6c-3.7-9.9-13.1-16.6-23.6-16.6h-0.5
		C253.6,224.7,244.2,231.4,240.5,241.3z M264.3,207.1c-5.6,0-10.1-4.6-10.1-10.2s4.5-10.2,10.1-10.2c5.6,0,10.1,4.6,10.1,10.2
		S269.9,207.1,264.3,207.1z M264.3,186.8c-5.5,0-9.9,4.5-9.9,10c0,5.5,4.5,10,9.9,10s9.9-4.5,9.9-10
		C274.2,191.3,269.8,186.8,264.3,186.8z"/>
</g>
<path d="M384.5,0h-255C108.8,0,92,16.8,92,37.5V270c0,4.1,3.4,7.5,7.5,7.5s7.5-3.4,7.5-7.5V75h300v332H107V300
	c0-4.1-3.4-7.5-7.5-7.5S92,295.9,92,300v174.5c0,20.7,16.8,37.5,37.5,37.5h255c20.7,0,37.5-16.8,37.5-37.5v-437
	C422,16.8,405.2,0,384.5,0z M107,60V37.5c0-12.4,10.1-22.5,22.5-22.5h255c12.4,0,22.5,10.1,22.5,22.5V60H107z M384.5,497h-255
	c-12.4,0-22.5-10.1-22.5-22.5V422h300v52.5C407,486.9,396.9,497,384.5,497z"/>
<circle cx="212" cy="37.5" r="7.5"/>
<path d="M272.7,30h-30c-4.1,0-7.5,3.4-7.5,7.5s3.4,7.5,7.5,7.5h30c4.1,0,7.5-3.4,7.5-7.5S276.8,30,272.7,30z"/>
<circle cx="303.7" cy="37.5" r="7.5"/>
</svg>
