<?xml version="1.0" encoding="iso-8859-1"?>
<!-- Generator: Adobe Illustrator 19.0.0, SVG Export Plug-In . SVG Version: 6.00 Build 0)  -->
<svg version="1.1" id="Layer_1" xmlns="http://www.w3.org/2000/svg" xmlns:xlink="http://www.w3.org/1999/xlink" x="0px" y="0px"
	 viewBox="0 0 511.998 511.998" style="enable-background:new 0 0 511.998 511.998;" xml:space="preserve">
<g>
	<g>
		<path d="M223.62,264.531h-82.741c-4.237,0-7.673,3.435-7.673,7.673v55.01c0,4.238,3.436,7.673,7.673,7.673h82.741
			c4.237,0,7.673-3.435,7.673-7.673v-55.01C231.293,267.966,227.857,264.531,223.62,264.531z M174.576,319.542h-26.025v-39.664
			h26.025V319.542z M215.947,319.542h-26.025v-39.664h26.025V319.542z"/>
	</g>
</g>
<g>
	<g>
		<path d="M371.121,264.531H288.38c-4.238,0-7.673,3.435-7.673,7.673v55.01c0,4.238,3.435,7.673,7.673,7.673h82.741
			c4.237,0,7.673-3.435,7.673-7.673v-55.01C378.794,267.966,375.358,264.531,371.121,264.531z M322.078,319.542h-26.025v-39.664
			h26.025V319.542z M363.448,319.542h-26.025v-39.664h26.025V319.542z"/>
	</g>
</g>
<g>
	<g>
		<path d="M226.377,165.157c-0.427-19.565-16.703-35.483-36.284-35.483h-0.238c-3.15,0.021-6.289,0.457-9.318,1.283
			c-8.37-14.892-24.308-24.464-41.764-24.464c-17.455,0-33.394,9.571-41.764,24.464c-3.029-0.826-6.167-1.262-9.318-1.283h-0.238
			c-19.58,0-35.856,15.918-36.283,35.493l-0.007,0.446c-0.056,5.937,2.23,11.546,6.436,15.792c4.273,4.312,9.97,6.688,16.042,6.688
			h130.264c6.073,0,11.77-2.376,16.042-6.688c4.206-4.246,6.492-9.855,6.436-15.785L226.377,165.157z M209.044,170.605
			c-1.368,1.382-3.193,2.142-5.139,2.142H73.642c-1.947,0-3.772-0.761-5.139-2.142c-1.302-1.315-2.01-3.037-1.994-4.842l0.003-0.271
			c0.247-11.288,9.64-20.472,20.94-20.472h0.137c3.443,0.022,6.717,0.854,9.733,2.471c1.966,1.053,4.292,1.199,6.374,0.401
			s3.714-2.463,4.47-4.56c4.637-12.856,16.937-21.494,30.607-21.494c13.671,0,25.971,8.638,30.608,21.493
			c0.756,2.098,2.388,3.763,4.47,4.561s4.407,0.652,6.373-0.401c3.017-1.617,6.291-2.449,9.733-2.471h0.136
			c11.302,0,20.695,9.184,20.94,20.462l0.004,0.276C211.055,167.568,210.347,169.29,209.044,170.605z"/>
	</g>
</g>
<g>
	<g>
		<path d="M486.086,396.725c-2.71-12.556-12.62-22.465-25.176-25.176c-3.193-14.794-16.378-25.914-32.113-25.914
			c-6.431,0-12.432,1.865-17.503,5.072v-98.015h30.778c4.237,0,7.673-3.435,7.673-7.673v-32.673c0-4.238-3.436-7.673-7.673-7.673
			H308.027v-24.526h88.4c4.238,0,7.673-3.436,7.673-7.673V131.91h75.906c6.073,0,11.77-2.376,16.042-6.688
			c4.207-4.246,6.493-9.856,6.437-15.817l-0.008-0.431c-0.426-19.565-16.702-35.483-36.283-35.483h-0.236
			c-3.151,0.021-6.29,0.456-9.319,1.283c-8.37-14.892-24.308-24.464-41.764-24.464c-17.455,0-33.394,9.571-41.764,24.464
			c-3.03-0.826-6.168-1.262-9.318-1.283h-0.238c-19.491,0-35.702,15.774-36.271,35.223h-19.258
			c-0.006-4.233-3.438-7.663-7.672-7.663c-4.238,0-7.673,3.436-7.673,7.673v7.663v56.086v32.199H69.928
			c-4.238,0-7.673,3.435-7.673,7.673v32.673c0,4.238,3.435,7.673,7.673,7.673h30.778v98.016c-5.071-3.207-11.072-5.072-17.503-5.072
			c-15.734,0-28.92,11.12-32.113,25.914c-12.557,2.711-22.467,12.621-25.176,25.176C11.12,399.918,0,413.104,0,428.837
			c0,18.113,14.736,32.85,32.849,32.85h75.529h104.667h85.907H403.62h75.529c18.113,0,32.849-14.736,32.849-32.85
			C512,413.104,500.88,399.918,486.086,396.725z M32.849,446.341c-9.651,0-17.503-7.852-17.503-17.504
			c0-9.651,7.852-17.503,17.503-17.503c4.237,0,7.673-3.435,7.673-7.673c0-9.651,7.852-17.503,17.503-17.503
			c4.237,0,7.673-3.435,7.673-7.673c0-9.652,7.852-17.504,17.503-17.504s17.503,7.852,17.503,17.504v67.857H32.849z M363.555,88.838
			h0.137c3.44,0.022,6.716,0.854,9.732,2.471c1.966,1.053,4.291,1.199,6.373,0.401c2.082-0.798,3.714-2.463,4.47-4.56
			c4.637-12.856,16.937-21.494,30.608-21.494c13.671,0,25.971,8.638,30.608,21.493c0.756,2.098,2.388,3.763,4.47,4.561
			c2.082,0.799,4.408,0.651,6.373-0.401c3.017-1.617,6.291-2.449,9.733-2.471h0.136c11.302,0,20.695,9.184,20.941,20.496l0.003,0.24
			c0.018,1.811-0.69,3.533-1.994,4.848c-1.368,1.382-3.194,2.142-5.139,2.142h-75.906v-0.176c0-4.237-3.435-7.673-7.673-7.673
			h-53.792C343.191,97.7,352.452,88.838,363.555,88.838z M308.027,124.061L308.027,124.061h28.6h52.128v0.176
			c0,0.002,0,0.003,0,0.004V164.8h-80.727V124.061z M291.28,446.341H220.72v-84.934h70.561V446.341z M395.949,378.486h-0.001v67.856
			h-89.322v-92.607c0-4.238-3.436-7.673-7.673-7.673h-85.907c-4.237,0-7.673,3.435-7.673,7.673v92.607h-89.321v-67.856V252.692
			h279.897V378.486z M108.379,237.346H77.601v-17.327h356.8v17.327h-30.778H108.379z M479.151,446.341h-67.856v-67.856
			c0-9.652,7.852-17.504,17.503-17.504s17.503,7.852,17.503,17.504c0,4.238,3.436,7.673,7.673,7.673
			c9.651,0,17.503,7.852,17.503,17.503c0,4.238,3.436,7.673,7.673,7.673c9.652,0,17.503,7.852,17.503,17.503
			C496.654,438.489,488.802,446.341,479.151,446.341z"/>
	</g>
</g>
<g>
</g>
<g>
</g>
<g>
</g>
<g>
</g>
<g>
</g>
<g>
</g>
<g>
</g>
<g>
</g>
<g>
</g>
<g>
</g>
<g>
</g>
<g>
</g>
<g>
</g>
<g>
</g>
<g>
</g>
</svg>
