<svg height="512pt" viewBox="0 -53 512.00002 512" width="512pt" xmlns="http://www.w3.org/2000/svg"><g fill-rule="evenodd"><path d="m332.589844 247.933594c0-.675782-.058594-1.328125-.113282-2.007813-.761718-.167969-1.554687-.363281-2.34375-.5625l-.171874-.027343c-2.203126-.539063-4.40625-1.101563-6.609376-1.667969l-.480468-.140625c-2.175782-.566406-4.320313-1.160156-6.46875-1.78125l-.539063-.171875c-2.175781-.621094-4.320312-1.242188-6.46875-1.921875l-.367187-.113282c-2.175782-.648437-4.324219-1.355468-6.46875-2.0625l-.226563-.085937c-2.175781-.707031-4.324219-1.441406-6.441406-2.203125l-.480469-.140625c-2.121094-.761719-4.210937-1.527344-6.300781-2.316406l-.480469-.171875c-2.089844-.792969-4.179687-1.609375-6.269531-2.429688l-.253906-.113281c-2.09375-.847656-4.15625-1.695313-6.1875-2.574219l-.285157-.113281c-2.0625-.875-4.066406-1.75-6.074218-2.683594l-.449219-.199219c-1.980469-.902343-3.957031-1.808593-5.878906-2.742187l-.476563-.222656c-1.949218-.933594-3.902344-1.925781-5.851562-2.886719l-.140625-.082031c-1.917969-.988281-3.8125-1.980469-5.707031-2.996094l-.308594-.199219c-1.867188-.988281-3.703125-2.035156-5.511719-3.050781l-.394531-.253906c-1.808594-1.019531-3.585938-2.09375-5.339844-3.167969l-.308594-.195312c-1.78125-1.074219-3.53125-2.203126-5.257812-3.308594l-.054688-.054688c-1.722656-1.105468-3.390625-2.261718-5.03125-3.394531l-.308594-.226563c-1.609374-1.128906-3.191406-2.257812-4.746093-3.417968l-.339844-.253906c-1.554687-1.160157-3.050781-2.347657-4.519531-3.535157l-.253906-.195312c-1.46875-1.1875-2.9375-2.402344-4.351563-3.648438l-.085937-.054687c-1.414063-1.246094-2.769532-2.488282-4.09375-3.730469l-.253907-.253906c-1.328125-1.214844-2.574219-2.488281-3.789062-3.734375l-.253907-.253906c-1.242187-1.269532-2.398437-2.542969-3.558593-3.84375l-.113281-.140626c-1.15625-1.300781-2.230469-2.597656-3.277344-3.929687l-.113282-.140625-.113281-.113281c-82.605469-5.765625-172.898437 17.296875-172.898437 73.511719 0 6.246093 5.03125 15.941406 20.710937 15.941406h265.363281c15.679688.003906 20.738282-9.691406 20.738282-15.9375zm0 0" fill="#ff6977"/><path d="m318.238281 263.988281h-288.953125c-10.621094 0-19.324218 9.609375-19.324218 21.367188 0 11.757812 8.699218 21.367187 19.324218 21.367187h18.449219c9.011719 18.199219 28.25 19.585938 40.933594 6.894532 11.78125-11.839844 27.800781-4.351563 31.359375-.535157 5.734375 6.160157 13.277344 10.0625 21.386718 10.0625 8.023438 0 15.199219-4.4375 21.21875-9.863281 4.488282-4.070312 8.980469-5.570312 13.023438-5.542969 4.039062-.027343 8.53125 1.472657 13.050781 5.542969 6.019531 5.425781 13.191407 9.863281 21.21875 9.863281 8.105469 0 15.621094-3.902343 21.382813-10.0625 3.5625-3.816406 19.578125-11.304687 31.359375.535157 12.6875 12.691406 31.898437 11.304687 40.910156-6.894532h14.660156c10.652344 0 19.355469-9.609375 19.355469-21.367187-.003906-11.757813-8.703125-21.367188-19.355469-21.367188zm0 0" fill="#f8a2aa"/><path d="m47.734375 306.722656c-15.679687 0-20.710937 9.691406-20.710937 15.9375 0 103.640625 306.8125 94.652344 306.8125 0 0-6.246094-5.058594-15.9375-20.738282-15.9375h-9.519531c-9.011719 18.199219-28.222656 19.585938-40.910156 6.894532-11.78125-11.839844-27.796875-4.351563-31.359375-.535157-5.761719 6.160157-13.277344 10.058594-21.382813 10.058594-8.023437 0-15.199219-4.433594-21.21875-9.863281-4.519531-4.070313-9.011719-5.566406-13.050781-5.539063-4.042969-.027343-8.535156 1.46875-13.023438 5.539063-6.019531 5.425781-13.195312 9.863281-21.21875 9.863281-8.109374 0-15.652343-3.898437-21.386718-10.058594-3.558594-3.816406-19.578125-11.304687-31.359375.535157-12.683594 12.691406-31.921875 11.304687-40.933594-6.894532zm0 0" fill="#ff6977"/><path d="m198.679688 174.394531c25.371093 32.277344 79.640624 58.816407 133.851562 71.5625 66.308594 15.601563 132.5 10.597657 145.582031-29.703125 1.917969-5.9375.113281-16.675781-14.75-21.539062h-.054687l-9.039063-2.9375c-14.183593 14.527344-32.914062 9.890625-41.050781-6.105469-7.570312-14.894531-25.113281-12.71875-29.691406-10.175781-7.34375 4.097656-15.738282 5.484375-23.421875 2.96875-7.65625-2.484375-13.078125-8.929688-17.144531-15.9375-3.023438-5.257813-6.839844-8.085938-10.679688-9.300782-3.84375-1.269531-8.5625-1.242187-14.128906 1.246094-7.371094 3.304688-15.5625 5.3125-23.222656 2.855469-7.683594-2.515625-13.671876-8.535156-17.230469-16.167969-2.207031-4.746094-15.113281-16.816406-30.003907-9.214844-15.960937 8.167969-33.816406.933594-36.785156-19.160156-14.914062-4.863281-22.710937 2.796875-24.632812 8.761719-5.988282 18.394531-.566406 36.371094 12.402344 52.847656zm0 0" fill="#cbe558"/><path d="m210.910156 112.78125c2.96875 20.09375 20.824219 27.332031 36.785156 19.164062 14.886719-7.605468 27.796876 4.464844 30.003907 9.210938 3.558593 7.632812 9.546875 13.652344 17.230469 16.167969 7.65625 2.457031 15.851562.453125 23.222656-2.855469 5.566406-2.488281 10.285156-2.515625 14.128906-1.246094 3.839844 1.21875 7.65625 4.042969 10.679688 9.300782 4.066406 7.007812 9.488281 13.453124 17.144531 15.9375 7.683593 2.515624 16.078125 1.132812 23.421875-2.964844 4.578125-2.546875 22.121094-4.722656 29.691406 10.171875 8.136719 16 26.867188 20.632812 41.050781 6.105469l9.039063 2.941406h.054687l4.832031 1.582031c10.113282 3.277344 21.359376-3.195313 25.003907-14.359375 3.613281-11.191406-1.695313-23.003906-11.808594-26.3125l-274.859375-89.195312c-10.113281-3.277344-21.355469 3.164062-24.972656 14.359374-3.617188 11.164063 1.695312 23.003907 11.808594 26.285157zm0 0" fill="#ffe6c0"/><path d="m208.144531 50.066406c-1.921875 5.933594-.113281 16.703125 14.804688 21.566406l37.347656 12.125 113.058594 36.683594 64.640625 21 37.347656 12.125c14.917969 4.832032 22.714844-2.828125 24.636719-8.761718.113281-.339844.222656-.679688.335937-1.046876 2.402344-8.054687 2.261719-16.25 0-24.363281-22.910156-82.160156-263.1875-158.695312-292.171875-69.328125zm0 0" fill="#cbe558"/></g><path d="m509.453125 147.878906c6.328125-19.511718.804687-40.625-15.976563-61.066406-13.996093-17.050781-35.796874-33.65625-63.039062-48.015625-4.867188-2.566406-10.890625-.699219-13.457031 4.164063-2.566407 4.867187-.699219 10.890624 4.167969 13.457031 40.058593 21.117187 79.316406 54.617187 69.355468 85.316406-.195312.601563-.933594 1.824219-2.46875 2.601563-2.261718 1.144531-5.585937 1.058593-9.613281-.246094l-252.386719-81.929688c-8.09375-2.636718-9.097656-6.914062-8.417968-9.019531 12.769531-39.328125 78.003906-37.933594 129.992187-24.789063 5.328125 1.347657 10.75-1.882812 12.097656-7.214843 1.347657-5.335938-1.882812-10.75-7.214843-12.097657-35.484376-8.9726558-67.980469-11.324218-93.984376-6.792968-31.417968 5.472656-52.109374 20.945312-59.839843 44.753906-.828125 2.550781-1.234375 5.59375-1.023438 8.820312-3.777343.472657-7.496093 1.714844-10.996093 3.722657-6.882813 3.953125-12.054688 10.410156-14.5625 18.175781-4.074219 12.570312-.242188 25.710938 8.65625 33.421875-1.742188 2.207031-3.089844 4.6875-3.9375 7.328125-4.835938 14.898438-3.609376 30.203125 3.460937 45.1875-25.371094-.453125-50.128906 1.730469-72.519531 6.464844-30.839844 6.519531-55.414063 17.679687-71.0625 32.277344-13.84375 12.910156-20.863282 28.230468-20.863282 45.535156 0 2.6875.550782 5.710937 1.746094 8.722656-10.332031 4.84375-17.566406 15.882812-17.566406 28.699219 0 13.234375 7.71875 24.574219 18.589844 29.152343-1.042969 2.824219-1.523438 5.636719-1.523438 8.15625 0 27.664063 17.953125 50.242188 51.925782 65.296876 27.734374 12.289062 65.460937 19.058593 106.234374 19.058593 41.558594 0 82.585938-7.226562 112.5625-19.828125 36.640626-15.402344 56.007813-37.71875 56.007813-64.527344 0-4.542968-1.558594-10.050781-5.183594-14.816406 5.507813-5.699218 8.9375-13.671875 8.9375-22.492187 0-9.222657-3.75-17.523438-9.703125-23.261719.972656-1.371094 1.785156-2.792969 2.441406-4.226562 20.089844 4.125 39.492188 6.242187 57.207032 6.242187 12.96875 0 25.035156-1.128906 35.804687-3.421875 28.722657-6.117188 47.496094-20.421875 54.289063-41.367188 1.394531-4.316406 1.613281-10.03125-.367188-15.679687 6.988282-3.726563 12.714844-10.25 15.453125-18.632813 2.832031-8.757812 1.820313-17.804687-2.066406-25.101562 4.164063-3.050781 7.304687-7.273438 8.84375-12.027344zm-318.414063-64.027344c.984376-3.050781 2.949219-5.546874 5.53125-7.03125 1.308594-.75 3.941407-1.871093 6.890626-.914062h-.003907l274.835938 89.191406c4.84375 1.582032 7.328125 7.894532 5.4375 13.753906-1.921875 5.886719-7.632813 9.539063-12.460938 7.972657l-13.925781-4.519531c-3.601562-1.171876-7.558594-.195313-10.203125 2.515624-4.265625 4.367188-8.964844 6.304688-13.585937 5.601563-4.648438-.710937-8.824219-4.085937-11.457032-9.261719-3.996094-7.863281-10.515625-13.367187-18.851562-15.914062-3.570313-1.089844-7.171875-1.550782-10.542969-1.550782-5.742187 0-10.835937 1.328126-14.027344 3.101563-5.292969 2.953125-10.785156 3.734375-15.492187 2.195313-4.109375-1.335938-7.910156-5.085938-11.589844-11.433594-5.015625-8.71875-11.589844-12.320313-16.246094-13.808594-6.648437-2.183594-13.996094-1.621094-21.269531 1.628906-6.582031 2.953125-11.996094 3.777344-16.050781 2.480469-4.726563-1.550781-8.742188-5.425781-11.292969-10.894531-2.4375-5.246094-9.402344-12.390625-18.945313-15.683594-8.246093-2.84375-16.757812-2.226562-24.628906 1.796875-5.160156 2.636719-10.507812 2.921875-14.675781.777344-4.15625-2.140625-6.824219-6.472657-7.71875-12.527344-.007813-.074219-.035156-.140625-.046875-.214844-.050781-.296875-.117188-.59375-.195312-.882812-.046876-.1875-.105469-.375-.164063-.558594-.074219-.222656-.15625-.433594-.242187-.648437-.101563-.246094-.210938-.488282-.332032-.726563-.074218-.148437-.15625-.296875-.238281-.441406-.164063-.285157-.339844-.558594-.53125-.828125-.085937-.121094-.171875-.242188-.261719-.359375-.144531-.179688-.289062-.359375-.441406-.53125-.175781-.191407-.351562-.378907-.539062-.554688-.160157-.152343-.320313-.292969-.488282-.429687-.136718-.113282-.277344-.222656-.421875-.328125-.226562-.171875-.460937-.332031-.703125-.484375-.1875-.117188-.375-.222656-.566406-.328125-.160156-.085938-.316406-.171875-.480469-.246094-.292969-.136719-.597656-.257813-.90625-.367187-.074219-.023438-.140625-.0625-.210937-.085938l-17.558594-5.714844c-4.832031-1.566406-7.308594-7.859375-5.398438-13.746094zm127.199219 212.910157h-14.660156c-3.789063 0-7.246094 2.148437-8.929687 5.539062-2.710938 5.484375-6.585938 8.78125-11.195313 9.539063-4.628906.757812-9.636719-1.15625-13.722656-5.246094-6.214844-6.246094-14.105469-9.472656-22.804688-9.335938-10.097656.164063-18.949219 4.792969-22.894531 9.019532-4.164062 4.453125-9.175781 6.90625-14.109375 6.90625-4.277344 0-9.175781-2.457032-14.550781-7.304688-5.886719-5.300781-12.664063-8.097656-19.609375-8.097656-.070313 0-.144531 0-.21875 0-6.960938 0-13.734375 2.804688-19.585938 8.101562-5.367187 4.84375-10.265625 7.300782-14.542969 7.300782-4.957031 0-9.960937-2.445313-14.105468-6.894532-3.949219-4.238281-12.800782-8.867187-22.894532-9.03125-8.726562-.144531-16.59375 3.089844-22.792968 9.320313-4.101563 4.105469-9.109375 6.023437-13.757813 5.261719-4.617187-.757813-8.492187-4.054688-11.207031-9.539063-.015625-.03125-.039062-.058593-.054688-.09375-.191406-.378906-.402343-.746093-.640624-1.097656-.023438-.03125-.050782-.058594-.070313-.089844-.214844-.308593-.449219-.601562-.695313-.878906-.074218-.085937-.148437-.167969-.226562-.246094-.265625-.28125-.539062-.550781-.835938-.796875-.015624-.015625-.03125-.03125-.046874-.046875-.316407-.261719-.652344-.496093-1-.71875-.082032-.050781-.164063-.097656-.246094-.148437-.308594-.183594-.621094-.351563-.949219-.503906-.054687-.023438-.105469-.050782-.160156-.074219-.382813-.167969-.78125-.3125-1.183594-.433594-.070313-.019531-.140625-.035156-.207031-.050781-.335938-.09375-.679688-.164063-1.027344-.222656-.105469-.015626-.210938-.03125-.316406-.046876-.414063-.054687-.835938-.089843-1.265625-.089843h-18.445313c-5.074218 0-9.363281-5.222657-9.363281-11.40625 0-6.179688 4.289063-11.40625 9.363281-11.40625h288.953125c5.089844 0 9.390625 5.222656 9.390625 11.40625 0 6.183593-4.300781 11.40625-9.390625 11.40625zm-143.015625 90.335937c-38.050781 0-72.910156-6.160156-98.160156-17.351562-26.59375-11.785156-40.078125-27.625-40.078125-47.082032 0-1.671874 1.28125-4.207031 5.515625-5.367187 5.578125 7.769531 13.246094 12.742187 22.140625 14.199219 11.054687 1.816406 22.375-2.132813 31.089844-10.851563 7.140625-7.179687 16.546875-1.054687 17.125-.648437 7.925781 8.453125 18.0625 13.109375 28.558593 13.109375 9.359376 0 18.742188-4.183594 27.902344-12.445313 2.167969-1.964844 4.265625-2.960937 6.230469-2.960937h.105469.109375c1.96875 0 4.082031 1.003906 6.273437 2.976562 9.144532 8.246094 18.527344 12.425781 27.886719 12.425781 10.460937 0 20.59375-4.648437 28.558594-13.105468.5625-.394532 9.976562-6.539063 17.140625.664062 8.699218 8.699219 20.015625 12.644532 31.054687 10.835938 9.125-1.496094 16.96875-6.683594 22.578125-14.816406h3.84375c8.503906 0 10.773438 3.761718 10.773438 5.980468 0 40.335938-75.578125 64.4375-148.648438 64.4375zm136.632813-133.183594h-265.367188c-8.480469 0-10.746093-3.757812-10.746093-5.980468 0-11.722656 4.75-21.851563 14.527343-30.96875 25.03125-23.34375 82.316407-36.378906 143.488281-32.863282.652344.761719 1.316407 1.519532 1.996094 2.277344 22.746094 25.238282 63.074219 48.125 110.644532 62.785156 4.113281 1.269532 8.21875 2.457032 12.3125 3.566407-1.625.707031-3.84375 1.183593-6.855469 1.183593zm156.78125-40.734374c-4.535157 13.976562-17.820313 23.40625-39.484375 28.019531-29.980469 6.386719-73.675782 2.25-116.886719-11.070313-44.230469-13.632812-81.304687-34.441406-101.710937-57.085937-14.890626-16.519531-19.867188-32.8125-14.796876-48.445313.191407-.59375.921876-1.808594 2.433594-2.582031 1.203125-.617187 2.722656-.867187 4.484375-.78125 2.914063 9.113281 8.675781 16.203125 16.6875 20.328125 9.945313 5.125 21.925781 4.851562 32.863281-.746094 9.046876-4.625 16.09375 4.136719 16.503907 4.683594 4.921875 10.464844 13.121093 18.023438 23.152343 21.308594 8.933594 2.867187 19.140626 1.773437 30.332032-3.246094 2.710937-1.207031 5.042968-1.507812 6.933594-.882812.039062.015624.082031.03125.125.042968 1.871093.59375 3.570312 2.195313 5.070312 4.800782 6.277344 10.816406 13.695312 17.492187 22.664062 20.40625 9.980469 3.269531 21.066407 1.96875 31.21875-3.648438.671876-.207031 11.515626-3.144531 16.113282 5.90625 5.582031 10.972656 15.136718 18.234375 26.210937 19.925781 1.648438.25 3.296875.375 4.933594.375 7.4375 0 14.683594-2.570312 21.109375-7.484375l3.582031 1.164063c.019531.007812.042969.015625.0625.023437 8.078125 2.617188 9.078125 6.886719 8.398438 8.988282zm0 0"/><path d="m384.25 39.800781.167969.085938c1.4375.722656 2.964843 1.066406 4.46875 1.066406 3.644531 0 7.15625-2.011719 8.90625-5.488281 2.472656-4.917969.492187-10.902344-4.421875-13.375l-.171875-.085938c-4.917969-2.472656-10.902344-.488281-13.371094 4.425782-2.472656 4.914062-.492187 10.902343 4.421875 13.371093zm0 0"/></svg>