<?xml version="1.0" encoding="utf-8"?>
<!-- Generator: Adobe Illustrator 21.1.0, SVG Export Plug-In . SVG Version: 6.00 Build 0)  -->
<svg version="1.1" id="Layer_1" xmlns="http://www.w3.org/2000/svg" xmlns:xlink="http://www.w3.org/1999/xlink" x="0px" y="0px"
	 viewBox="0 0 512 512" style="enable-background:new 0 0 512 512;" xml:space="preserve">
<path d="M509.5,200.9c6.3-19.5,0.8-40.6-16-61.1c-14-17.1-35.8-33.7-63-48c-4.9-2.6-10.9-0.7-13.5,4.2c-2.6,4.9-0.7,10.9,4.2,13.5
	c40.1,21.1,79.3,54.6,69.4,85.3c-0.2,0.6-0.9,1.8-2.5,2.6c-2.3,1.1-5.6,1.1-9.6-0.2L226,115.2c-8.1-2.6-9.1-6.9-8.4-9
	c12.8-39.3,78-37.9,130-24.8c5.3,1.3,10.8-1.9,12.1-7.2c1.3-5.3-1.9-10.8-7.2-12.1c-35.5-9-68-11.3-94-6.8
	c-31.4,5.5-52.1,20.9-59.8,44.8c-0.8,2.6-1.2,5.6-1,8.8c-3.8,0.5-7.5,1.7-11,3.7c-6.9,4-12.1,10.4-14.6,18.2
	c-4.1,12.6-0.2,25.7,8.7,33.4c-1.7,2.2-3.1,4.7-3.9,7.3c-4.8,14.9-3.6,30.2,3.5,45.2c-25.4-0.5-50.1,1.7-72.5,6.5
	c-30.8,6.5-55.4,17.7-71.1,32.3c-13.8,12.9-20.9,28.2-20.9,45.5c0,2.7,0.6,5.7,1.7,8.7C7.2,314.5,0,325.5,0,338.4
	c0,13.2,7.7,24.6,18.6,29.2c-1,2.8-1.5,5.6-1.5,8.2c0,27.7,18,50.2,51.9,65.3c27.7,12.3,65.5,19.1,106.2,19.1
	c41.6,0,82.6-7.2,112.6-19.8c36.6-15.4,56-37.7,56-64.5c0-4.5-1.6-10.1-5.2-14.8c5.5-5.7,8.9-13.7,8.9-22.5c0-9.2-3.8-17.5-9.7-23.3
	c1-1.4,1.8-2.8,2.4-4.2c20.1,4.1,39.5,6.2,57.2,6.2c13,0,25-1.1,35.8-3.4c28.7-6.1,47.5-20.4,54.3-41.4c1.4-4.3,1.6-10-0.4-15.7
	c7-3.7,12.7-10.2,15.5-18.6c2.8-8.8,1.8-17.8-2.1-25.1C504.8,209.9,507.9,205.6,509.5,200.9z M191,136.9c1-3.1,2.9-5.5,5.5-7
	c1.3-0.8,3.9-1.9,6.9-0.9h0l274.8,89.2c4.8,1.6,7.3,7.9,5.4,13.8c-1.9,5.9-7.6,9.5-12.5,8l-13.9-4.5c-3.6-1.2-7.6-0.2-10.2,2.5
	c-4.3,4.4-9,6.3-13.6,5.6c-4.6-0.7-8.8-4.1-11.5-9.3c-4-7.9-10.5-13.4-18.9-15.9c-3.6-1.1-7.2-1.6-10.5-1.6c-5.7,0-10.8,1.3-14,3.1
	c-5.3,3-10.8,3.7-15.5,2.2c-4.1-1.3-7.9-5.1-11.6-11.4c-5-8.7-11.6-12.3-16.2-13.8c-6.6-2.2-14-1.6-21.3,1.6c-6.6,3-12,3.8-16.1,2.5
	c-4.7-1.6-8.7-5.4-11.3-10.9c-2.4-5.2-9.4-12.4-18.9-15.7c-8.2-2.8-16.8-2.2-24.6,1.8c-5.2,2.6-10.5,2.9-14.7,0.8
	c-4.2-2.1-6.8-6.5-7.7-12.5c0-0.1,0-0.1,0-0.2c-0.1-0.3-0.1-0.6-0.2-0.9c0-0.2-0.1-0.4-0.2-0.6c-0.1-0.2-0.2-0.4-0.2-0.6
	c-0.1-0.2-0.2-0.5-0.3-0.7c-0.1-0.1-0.2-0.3-0.2-0.4c-0.2-0.3-0.3-0.6-0.5-0.8c-0.1-0.1-0.2-0.2-0.3-0.4c-0.1-0.2-0.3-0.4-0.4-0.5
	c-0.2-0.2-0.4-0.4-0.5-0.6c-0.2-0.2-0.3-0.3-0.5-0.4c-0.1-0.1-0.3-0.2-0.4-0.3c-0.2-0.2-0.5-0.3-0.7-0.5c-0.2-0.1-0.4-0.2-0.6-0.3
	c-0.2-0.1-0.3-0.2-0.5-0.2c-0.3-0.1-0.6-0.3-0.9-0.4c-0.1,0-0.1-0.1-0.2-0.1l-17.6-5.7C191.6,149,189.1,142.7,191,136.9z
	 M318.2,349.8h-14.7c-3.8,0-7.2,2.1-8.9,5.5c-2.7,5.5-6.6,8.8-11.2,9.5c-4.6,0.8-9.6-1.2-13.7-5.2c-6.2-6.2-14.1-9.5-22.8-9.3
	c-10.1,0.2-18.9,4.8-22.9,9c-4.2,4.5-9.2,6.9-14.1,6.9c-4.3,0-9.2-2.5-14.6-7.3c-5.9-5.3-12.7-8.1-19.6-8.1c-0.1,0-0.1,0-0.2,0
	c-7,0-13.7,2.8-19.6,8.1c-5.4,4.8-10.3,7.3-14.5,7.3c-5,0-10-2.4-14.1-6.9c-3.9-4.2-12.8-8.9-22.9-9c-8.7-0.1-16.6,3.1-22.8,9.3
	c-4.1,4.1-9.1,6-13.8,5.3c-4.6-0.8-8.5-4.1-11.2-9.5c0,0,0-0.1-0.1-0.1c-0.2-0.4-0.4-0.7-0.6-1.1c0,0-0.1-0.1-0.1-0.1
	c-0.2-0.3-0.4-0.6-0.7-0.9c-0.1-0.1-0.1-0.2-0.2-0.2c-0.3-0.3-0.5-0.6-0.8-0.8c0,0,0,0,0,0c-0.3-0.3-0.7-0.5-1-0.7
	c-0.1-0.1-0.2-0.1-0.2-0.1c-0.3-0.2-0.6-0.4-0.9-0.5c-0.1,0-0.1-0.1-0.2-0.1c-0.4-0.2-0.8-0.3-1.2-0.4c-0.1,0-0.1,0-0.2-0.1
	c-0.3-0.1-0.7-0.2-1-0.2c-0.1,0-0.2,0-0.3,0c-0.4-0.1-0.8-0.1-1.3-0.1H29.3c-5.1,0-9.4-5.2-9.4-11.4c0-6.2,4.3-11.4,9.4-11.4h289
	c5.1,0,9.4,5.2,9.4,11.4S323.3,349.8,318.2,349.8z M175.2,440.1c-38.1,0-72.9-6.2-98.2-17.4C50.5,411,37,395.1,37,375.7
	c0-1.7,1.3-4.2,5.5-5.4c5.6,7.8,13.2,12.7,22.1,14.2c11.1,1.8,22.4-2.1,31.1-10.9c7.1-7.2,16.5-1.1,17.1-0.6
	c7.9,8.5,18.1,13.1,28.6,13.1c9.4,0,18.7-4.2,27.9-12.4c2.2-2,4.3-3,6.2-3h0.1h0.1c2,0,4.1,1,6.3,3c9.1,8.2,18.5,12.4,27.9,12.4
	c10.5,0,20.6-4.6,28.6-13.1c0.6-0.4,10-6.5,17.1,0.7c8.7,8.7,20,12.6,31.1,10.8c9.1-1.5,17-6.7,22.6-14.8h3.8c8.5,0,10.8,3.8,10.8,6
	C323.9,416,248.3,440.1,175.2,440.1z M311.9,306.9H46.5c-8.5,0-10.7-3.8-10.7-6c0-11.7,4.8-21.9,14.5-31
	c25-23.3,82.3-36.4,143.5-32.9c0.7,0.8,1.3,1.5,2,2.3c22.7,25.2,63.1,48.1,110.6,62.8c4.1,1.3,8.2,2.5,12.3,3.6
	C317.1,306.4,314.9,306.9,311.9,306.9z M468.6,266.2c-4.5,14-17.8,23.4-39.5,28c-30,6.4-73.7,2.2-116.9-11.1
	C268,269.5,231,248.7,210.6,226c-14.9-16.5-19.9-32.8-14.8-48.4c0.2-0.6,0.9-1.8,2.4-2.6c1.2-0.6,2.7-0.9,4.5-0.8
	c2.9,9.1,8.7,16.2,16.7,20.3c9.9,5.1,21.9,4.9,32.9-0.7c9-4.6,16.1,4.1,16.5,4.7c4.9,10.5,13.1,18,23.2,21.3
	c8.9,2.9,19.1,1.8,30.3-3.2c2.7-1.2,5-1.5,6.9-0.9c0,0,0.1,0,0.1,0c1.9,0.6,3.6,2.2,5.1,4.8c6.3,10.8,13.7,17.5,22.7,20.4
	c10,3.3,21.1,2,31.2-3.6c0.7-0.2,11.5-3.1,16.1,5.9c5.6,11,15.1,18.2,26.2,19.9c1.6,0.2,3.3,0.4,4.9,0.4c7.4,0,14.7-2.6,21.1-7.5
	l3.6,1.2c0,0,0,0,0.1,0C468.3,259.8,469.3,264.1,468.6,266.2z"/>
<path d="M384.2,92.8l0.2,0.1c1.4,0.7,3,1.1,4.5,1.1c3.6,0,7.2-2,8.9-5.5c2.5-4.9,0.5-10.9-4.4-13.4l-0.2-0.1
	c-4.9-2.5-10.9-0.5-13.4,4.4C377.4,84.3,379.3,90.3,384.2,92.8z"/>
</svg>
