<?xml version="1.0" encoding="iso-8859-1"?>
<!-- Generator: Adobe Illustrator 19.0.0, SVG Export Plug-In . SVG Version: 6.00 Build 0)  -->
<svg version="1.1" id="Capa_1" xmlns="http://www.w3.org/2000/svg" xmlns:xlink="http://www.w3.org/1999/xlink" x="0px" y="0px"
	 viewBox="0 0 512 512" style="enable-background:new 0 0 512 512;" xml:space="preserve">
<g>
	<g>
		<path d="M328,216c-4.424,0-8,3.576-8,8v136c0,4.424,3.576,8,8,8s8-3.576,8-8V224C336,219.576,332.424,216,328,216z"/>
	</g>
</g>
<g>
	<g>
		<path d="M504,416h-23.832c-4.424,0-8,3.576-8,8s3.576,8,8,8H504c4.424,0,8-3.576,8-8S508.424,416,504,416z"/>
	</g>
</g>
<g>
	<g>
		<path d="M504,416c-4.424,0-8,3.576-8,8v32c0,4.424,3.576,8,8,8s8-3.576,8-8v-32C512,419.576,508.424,416,504,416z"/>
	</g>
</g>
<g>
	<g>
		<path d="M80,448c-0.008,0-0.016,0-0.024,0l-56,0.168c-4.424,0.016-7.992,3.6-7.976,8.024c0.016,4.416,3.592,7.976,8,7.976
			c0.008,0,0.016,0,0.024,0l56-0.168c4.424-0.016,7.992-3.6,7.976-8.024C87.984,451.56,84.408,448,80,448z"/>
	</g>
</g>
<g>
	<g>
		<path d="M496,376h-8c-4.424,0-8,3.576-8,8s3.576,8,8,8h8c4.424,0,8-3.576,8-8S500.424,376,496,376z"/>
	</g>
</g>
<g>
	<g>
		<path d="M496,320c-4.424,0-8,3.576-8,8v96c0,4.424,3.576,8,8,8s8-3.576,8-8v-96C504,323.576,500.424,320,496,320z"/>
	</g>
</g>
<g>
	<g>
		<path d="M448,216H328c-4.424,0-8,3.576-8,8s3.576,8,8,8h120c4.424,0,8-3.576,8-8S452.424,216,448,216z"/>
	</g>
</g>
<g>
	<g>
		<path d="M503.264,324.648l-48-104c-1.848-4.016-6.592-5.76-10.616-3.912c-4.016,1.848-5.76,6.608-3.912,10.616l48,104
			c1.352,2.928,4.248,4.648,7.272,4.648c1.12,0,2.256-0.232,3.344-0.736C503.368,333.416,505.112,328.656,503.264,324.648z"/>
	</g>
</g>
<g>
	<g>
		<path d="M24,416c-4.424,0-8,3.576-8,8v32.504c0,4.424,3.576,8,8,8s8-3.584,8-8V424C32,419.576,28.424,416,24,416z"/>
	</g>
</g>
<g>
	<g>
		<path d="M8,312c-4.424,0-8,3.576-8,8v104c0,4.424,3.576,8,8,8s8-3.576,8-8V320C16,315.576,12.424,312,8,312z"/>
	</g>
</g>
<g>
	<g>
		<path d="M328,312H8c-4.424,0-8,3.576-8,8s3.576,8,8,8h320c4.424,0,8-3.576,8-8S332.424,312,328,312z"/>
	</g>
</g>
<g>
	<g>
		<path d="M48,416H8c-4.424,0-8,3.576-8,8s3.576,8,8,8h40c4.424,0,8-3.576,8-8S52.424,416,48,416z"/>
	</g>
</g>
<g>
	<g>
		<path d="M128,400c-30.872,0-56,25.128-56,56s25.128,56,56,56s56-25.128,56-56S158.872,400,128,400z M128,496
			c-22.056,0-40-17.944-40-40c0-22.056,17.944-40,40-40c22.056,0,40,17.944,40,40C168,478.056,150.056,496,128,496z"/>
	</g>
</g>
<g>
	<g>
		<path d="M128,432c-13.232,0-24,10.768-24,24s10.768,24,24,24s24-10.768,24-24S141.232,432,128,432z M128,464c-4.416,0-8-3.584-8-8
			c0-4.416,3.584-8,8-8s8,3.584,8,8C136,460.416,132.416,464,128,464z"/>
	</g>
</g>
<g>
	<g>
		<path d="M392,432c-13.232,0-24,10.768-24,24s10.768,24,24,24s24-10.768,24-24S405.232,432,392,432z M392,464c-4.416,0-8-3.584-8-8
			c0-4.416,3.584-8,8-8c4.416,0,8,3.584,8,8C400,460.416,396.416,464,392,464z"/>
	</g>
</g>
<g>
	<g>
		<path d="M392,400c-30.872,0-56,25.128-56,56s25.128,56,56,56s56-25.128,56-56S422.872,400,392,400z M392,496
			c-22.056,0-40-17.944-40-40c0-22.056,17.944-40,40-40c22.056,0,40,17.944,40,40C432,478.056,414.056,496,392,496z"/>
	</g>
</g>
<g>
	<g>
		<path d="M344.2,448H176c-4.424,0-8,3.576-8,8s3.576,8,8,8h168.2c4.424,0,8-3.576,8-8S348.624,448,344.2,448z"/>
	</g>
</g>
<g>
	<g>
		<path d="M504,448h-64c-4.424,0-8,3.576-8,8s3.576,8,8,8h64c4.424,0,8-3.576,8-8S508.424,448,504,448z"/>
	</g>
</g>
<g>
	<g>
		<path d="M496,320h-96c-4.424,0-8,3.576-8,8s3.576,8,8,8h96c4.424,0,8-3.576,8-8S500.424,320,496,320z"/>
	</g>
</g>
<g>
	<g>
		<path d="M400,320c-13.232,0-24-10.768-24-24c0-4.424-3.576-8-8-8s-8,3.576-8,8c0,22.056,17.944,40,40,40c4.424,0,8-3.576,8-8
			S404.424,320,400,320z"/>
	</g>
</g>
<g>
	<g>
		<path d="M368,216c-4.424,0-8,3.576-8,8v72c0,4.424,3.576,8,8,8s8-3.576,8-8v-72C376,219.576,372.424,216,368,216z"/>
	</g>
</g>
<g>
	<g>
		<path d="M352,120c-4.424,0-8,3.576-8,8v32c0,4.424,3.576,8,8,8s8-3.576,8-8v-32C360,123.576,356.424,120,352,120z"/>
	</g>
</g>
<g>
	<g>
		<path d="M40,134.856c-4.424,0-8,3.576-8,8V320c0,4.424,3.576,8,8,8s8-3.576,8-8V142.856C48,138.432,44.424,134.856,40,134.856z"/>
	</g>
</g>
<g>
	<g>
		<path d="M328,134.856c-4.424,0-8,3.576-8,8V320c0,4.424,3.576,8,8,8s8-3.576,8-8V142.856C336,138.432,332.424,134.856,328,134.856
			z"/>
	</g>
</g>
<g>
	<g>
		<path d="M356.64,121.488l-168-120c-2.784-1.984-6.512-1.984-9.296,0l-168,120c-3.592,2.568-4.432,7.568-1.856,11.16
			c2.576,3.592,7.576,4.432,11.16,1.856L184,17.832l163.352,116.672c1.408,1.008,3.032,1.496,4.64,1.496
			c2.504,0,4.952-1.168,6.504-3.352C361.072,129.048,360.232,124.048,356.64,121.488z"/>
	</g>
</g>
<g>
	<g>
		<path d="M356.64,153.488l-168-120c-2.784-1.984-6.512-1.984-9.296,0l-168,120c-3.592,2.568-4.432,7.568-1.856,11.16
			c2.576,3.592,7.576,4.424,11.16,1.856L184,49.832l163.352,116.672c1.408,1.008,3.032,1.496,4.64,1.496
			c2.504,0,4.952-1.168,6.504-3.352C361.072,161.048,360.232,156.048,356.64,153.488z"/>
	</g>
</g>
<g>
	<g>
		<path d="M16,120c-4.424,0-8,3.576-8,8v32c0,4.424,3.576,8,8,8s8-3.576,8-8v-32C24,123.576,20.424,120,16,120z"/>
	</g>
</g>
<g>
	<g>
		<path d="M208,216c-4.424,0-8,3.576-8,8v96c0,4.424,3.576,8,8,8s8-3.576,8-8v-96C216,219.576,212.424,216,208,216z"/>
	</g>
</g>
<g>
	<g>
		<path d="M208,216h-48c-4.424,0-8,3.576-8,8s3.576,8,8,8h48c4.424,0,8-3.576,8-8S212.424,216,208,216z"/>
	</g>
</g>
<g>
	<g>
		<path d="M160,216c-4.424,0-8,3.576-8,8v96c0,4.424,3.576,8,8,8s8-3.576,8-8v-96C168,219.576,164.424,216,160,216z"/>
	</g>
</g>
<g>
	<g>
		<path d="M128,176H72c-4.424,0-8,3.576-8,8v56c0,4.424,3.576,8,8,8h56c4.424,0,8-3.576,8-8v-56C136,179.576,132.424,176,128,176z
			 M120,232H80v-40h40V232z"/>
	</g>
</g>
<g>
	<g>
		<path d="M296,176h-56c-4.424,0-8,3.576-8,8v56c0,4.424,3.576,8,8,8h56c4.424,0,8-3.576,8-8v-56C304,179.576,300.424,176,296,176z
			 M288,232h-40v-40h40V232z"/>
	</g>
</g>
<g>
	<g>
		<path d="M184,104c-17.648,0-32,14.352-32,32s14.352,32,32,32s32-14.352,32-32S201.648,104,184,104z M184,152
			c-8.824,0-16-7.176-16-16s7.176-16,16-16c8.824,0,16,7.176,16,16C200,144.824,192.824,152,184,152z"/>
	</g>
</g>
<g>
</g>
<g>
</g>
<g>
</g>
<g>
</g>
<g>
</g>
<g>
</g>
<g>
</g>
<g>
</g>
<g>
</g>
<g>
</g>
<g>
</g>
<g>
</g>
<g>
</g>
<g>
</g>
<g>
</g>
</svg>
