<svg height="512pt" viewBox="0 0 512.001 512" width="512pt" xmlns="http://www.w3.org/2000/svg"><path d="m509.070312 431.582031-25.839843-25.839843c15.125-24.820313 14.078125-49.316407-3.289063-66.6875 0 0-75.691406-75.667969-76.113281-76.046876-12.609375-11.351562-31.988281-11.257812-44.128906.21875-6.519531 6.171876-9.929688 14.40625-10.125 22.730469-8.347657.199219-16.164063 3.539063-22.078125 9.453125-6.074219 6.074219-9.234375 14.070313-9.414063 22.136719-.15625.003906-.3125.015625-.46875.023437v-265.59375c0-28.660156-23.316406-51.976562-51.972656-51.976562h-213.664063c-28.660156 0-51.976562 23.316406-51.976562 51.976562v408.050782c0 28.65625 23.316406 51.972656 51.976562 51.972656h213.664063c7.285156 0 14.535156-1.546875 21.15625-4.496094 11.457031 4.792969 25.179687 2.539063 34.488281-6.765625l14.269532-14.269531c11.800781-11.800781 45.125-11.242188 65.449218-7.972656l30.578125 30.574218c1.949219 1.953126 4.511719 2.929688 7.070313 2.929688s5.117187-.976562 7.070312-2.929688l63.347656-63.347656c1.875-1.878906 2.929688-4.421875 2.929688-7.070312 0-2.652344-1.054688-5.195313-2.929688-7.070313zm-457.09375-411.582031h213.664063c17.628906 0 31.972656 14.34375 31.972656 31.976562v2.390626h-93.582031c-5.523438 0-10 4.476562-10 10 0 5.523437 4.476562 10 10 10h93.582031v251.050781c-.566406.492187-1.125 1-1.664062 1.539062-3.109375 3.109375-5.457031 6.726563-7.027344 10.597657-49.6875-49.671876-49.894531-49.855469-50.125-50.066407-3.84375-3.464843-8.320313-5.863281-13.027344-7.199219v-21.84375h33.925781c5.523438 0 10-4.476562 10-10v-41.933593c0-17.003907-6.621093-32.992188-18.648437-45.019531-12.023437-12.023438-28.011719-18.648438-45.019531-18.648438h-14.308594c-2.792969 0-5.464844 1.171875-7.359375 3.230469-1.890625 2.058593-2.835937 4.816406-2.605469 7.601562.054688.65625.082032 1.3125.082032 1.960938 0 12.699219-10.328126 23.03125-23.027344 23.03125-12.699219 0-23.03125-10.332031-23.03125-23.03125 0-.644531.027344-1.304688.082031-1.953125.234375-2.789063-.710937-5.546875-2.605469-7.605469-1.894531-2.058594-4.5625-3.230469-7.359375-3.230469h-14.308593c-17.007813 0-32.996094 6.621094-45.019532 18.648438-12.027344 12.023437-18.648437 28.011718-18.648437 45.019531v41.933594c0 5.519531 4.476562 10 10 10h33.929687v73.703125c0 5.519531 4.476563 10 10 10h100.339844l68.585938 68.476562h-250.773438v-336.261718h93.582031c5.523438 0 10-4.480469 10-10 0-5.523438-4.476562-10-10-10h-93.582031v-2.394532c0-17.628906 14.34375-31.972656 31.976562-31.972656zm134.511719 302.148438h-74.644531v-93.519532c0-5.523437-4.476562-10-10-10s-10 4.476563-10 10v9.816406h-23.925781v-31.933593c0-11.664063 4.542969-22.628907 12.789062-30.878907 8.25-8.246093 19.214844-12.789062 30.878907-12.789062h4.796874c3.4375 20.308594 21.152344 35.820312 42.425782 35.820312 21.269531 0 38.984375-15.511718 42.425781-35.820312h4.792969c11.664062 0 22.628906 4.542969 30.878906 12.789062 8.246094 8.25 12.789062 19.214844 12.789062 30.878907v31.933593h-23.925781v-9.816406c0-5.523437-4.476562-10-10-10-5.523437 0-10 4.476563-10 10v52.28125c-4.039062 1.4375-7.828125 3.691406-11.089843 6.777344-9.601563 9.066406-12.402344 22.738281-8.191407 34.460938zm90.203125 134c-9.582031 9.585937-11.691406 23.855468-6.324218 35.507812-1.550782.226562-3.128907.34375-4.726563.34375h-213.664063c-17.632812 0-31.976562-14.34375-31.976562-31.972656v-29.402344h270.25c.179688 0 .359375-.003906.539062-.015625l5.726563 5.71875zm161.960938 31.710937-25.746094-25.746094c-1.425781-1.425781-3.25-2.386719-5.230469-2.757812-6.320312-1.1875-62.414062-10.878907-86.265625 12.96875l-14.269531 14.273437c-4.492187 4.492188-11.804687 4.488282-16.296875-.007812-4.496094-4.496094-4.5-11.808594-.007812-16.300782l26.898437-26.898437c1.875-1.875 2.929687-4.421875 2.925781-7.074219 0-2.652344-1.054687-5.195312-2.933594-7.070312l-109.84375-109.671875c-.019531-.019531-.039062-.039063-.058593-.058594-4.570313-4.910156-4.308594-12.667969.585937-17.292969 4.574219-4.320312 11.929688-4.3125 16.847656-.011718 3.019532 3 46.125 46.089843 68.96875 68.929687.230469.230469.472657.449219.726563.660156.144531.117188.289063.230469.445313.351563 3.953124 3.277344 9.789062 3.03125 13.453124-.632813l.109376-.109375c3.703124-3.703125 3.921874-9.640625.496093-13.605468-4.175781-4.835938-3.894531-12.175782.636719-16.707032 4.523438-4.527344 11.859375-4.800781 16.695312-.625 3.980469 3.4375 9.9375 3.203125 13.640626-.527344l.105468-.109374c3.679688-3.710938 3.878906-9.625.46875-13.578126-4.175781-4.835937-3.898437-12.171874.632813-16.703124 2.324219-2.320313 5.417969-3.605469 8.691406-3.605469 2.953125.003906 5.800781 1.058593 8.015625 2.96875 3.964844 3.425781 9.902344 3.207031 13.605469-.496094l.109375-.109375c3.707031-3.703125 3.921875-9.644531.496094-13.609375-4.292969-4.964844-3.902344-12.410156.886718-16.941406 4.617188-4.363281 12.085938-4.3125 17.007813.117187l.003906.003906c.164063.148438.332031.308594.484375.460938l74.859375 74.859375c15.09375 15.09375 6.425781 34.367187-3.507813 47.878906-2.925781 3.976563-2.507812 9.5.988282 12.992188l24.582031 24.582031zm0 0"/><path d="m168.800781 471.3125h-19.988281c-5.523438 0-10-4.476562-10-10 0-5.519531 4.476562-10 10-10h19.988281c5.523438 0 10 4.480469 10 10 0 5.523438-4.476562 10-10 10zm0 0"/><path d="m158.621094 74.371094c-4.179688 0-8-2.710938-9.40625-6.636719-1.386719-3.867187-.203125-8.335937 2.9375-10.996094 3.28125-2.777343 8.09375-3.121093 11.746094-.863281 3.5 2.167969 5.335937 6.40625 4.53125 10.445312-.917969 4.609376-5.105469 8.050782-9.808594 8.050782zm0 0"/></svg>