<?xml version="1.0" encoding="utf-8"?>
<!-- Generator: Adobe Illustrator 21.1.0, SVG Export Plug-In . SVG Version: 6.00 Build 0)  -->
<svg version="1.1" id="Layer_1" xmlns="http://www.w3.org/2000/svg" xmlns:xlink="http://www.w3.org/1999/xlink" x="0px" y="0px"
	 viewBox="0 0 512 512" style="enable-background:new 0 0 512 512;" xml:space="preserve">
<g id="Order-3">
	<path d="M192,280h192v24H192V280z"/>
	<path d="M272,176v24h32v-24H272z M296,192h-16v-8h16V192z"/>
	<g>
		<path d="M256,432c-13.2,0-24,10.8-24,24s10.8,24,24,24s24-10.8,24-24S269.2,432,256,432z M256,464c-4.4,0-8-3.6-8-8s3.6-8,8-8
			s8,3.6,8,8S260.4,464,256,464z"/>
		<path d="M360,8H152c-30.9,0-56,25.1-56,56v384c0,30.9,25.1,56,56,56h208c30.9,0,56-25.1,56-56V64C416,33.1,390.9,8,360,8z
			 M400,448c0,22.1-17.9,40-40,40H152c-22.1,0-40-17.9-40-40v-24h288V448z M400,408H112V88h288V408z M400,72H112v-8
			c0-22.1,17.9-40,40-40h208c22.1,0,40,17.9,40,40V72z"/>
		<path d="M296,40h-80c-4.4,0-8,3.6-8,8s3.6,8,8,8h80c4.4,0,8-3.6,8-8S300.4,40,296,40z"/>
		<path d="M328,40h-8c-4.4,0-8,3.6-8,8s3.6,8,8,8h8c4.4,0,8-3.6,8-8S332.4,40,328,40z"/>
		<path d="M384,272h-8v-8c0-36.6-27.6-67.4-64-71.5V176c0-4.4-3.6-8-8-8h-32c-4.4,0-8,3.6-8,8v16.5c-27.4,3.1-50.6,21.6-59.8,47.5
			H160c-4.4,0-8,3.6-8,8s3.6,8,8,8h40.5c-0.3,2.7-0.5,5.3-0.5,8v8h-8c-4.4,0-8,3.6-8,8v16h-24c-4.4,0-8,3.6-8,8s3.6,8,8,8h224
			c4.4,0,8-3.6,8-8v-24C392,275.6,388.4,272,384,272z M280,184h16v8h-16V184z M216,264c0-2.7,0.2-5.3,0.6-8H248c4.4,0,8-3.6,8-8
			s-3.6-8-8-8h-26.5c9.3-19.5,28.9-32,50.5-32h32c30.9,0,56,25.1,56,56v8H216V264z"/>
		<path d="M128,312h8c4.4,0,8-3.6,8-8s-3.6-8-8-8h-8c-4.4,0-8,3.6-8,8S123.6,312,128,312z"/>
		<path d="M144,288h24c4.4,0,8-3.6,8-8s-3.6-8-8-8h-24c-4.4,0-8,3.6-8,8S139.6,288,144,288z"/>
	</g>
</g>
</svg>
