<?xml version="1.0" encoding="utf-8"?>
<!-- Generator: Adobe Illustrator 21.1.0, SVG Export Plug-In . SVG Version: 6.00 Build 0)  -->
<svg version="1.1" id="Layer_1" xmlns="http://www.w3.org/2000/svg" xmlns:xlink="http://www.w3.org/1999/xlink" x="0px" y="0px"
	 viewBox="0 0 1175 1200" style="enable-background:new 0 0 1175 1200;" xml:space="preserve">
<g>
	<path d="M525.2,1010.5c0-64.4,0.4-126-0.7-187.5c-0.1-5.6-9.4-12-15.5-16.3c-23.4-16.3-23.2-40.1,0.9-54.9
		c40.5-24.8,57.2-53.4,50.5-91.1C516,670,476.6,690,443.3,721.2c-20.8,19.4-36.9,44.2-56.5,65.3c-7.2,7.7-18.2,11.6-27.4,17.3
		c0-12.1-4.4-27.1,0.8-35.8c30.1-50.6,73.3-86.7,124.4-111.8c20.7-10.2,42.6-17.9,63.4-28.5c-50-0.2-95.8,17.5-137.1,45.1
		c-37.1,24.8-70,56.5-105.9,83.5c-7.9,5.9-20.6,4.7-31.1,6.7c3.6-9.7,4.9-21.9,11.3-28.8c64.2-69.4,140.4-116.8,231.9-134.7
		c2.6-0.5,4.9-3.2,15.4-10.4c-29.3,0-50.4-1.2-71.4,0.2c-82.9,5.7-158.1,32.4-222.4,90.1c-7.1,6.3-21,4.2-31.7,6
		c5.7-12.3,8.3-28.8,17.5-36.3c62.5-50.3,133.8-79,212.2-85.2c37.1-2.9,74.7-0.5,113.8-7.8c-5.1-2.9-9.8-7-15.2-8.6
		c-88.9-27.2-177.7-28.6-266.5,1.8c-14.1,4.8-29.8,4.2-45.9-1.2c47.6-38.2,102.7-48.7,158.5-48.6c56,0.1,112.1,8.6,169,13.4
		c-65.5-40.5-137-61-212.3-64c-38.1-1.5-76.5,6.8-114.9,8.9c-11.3,0.6-22.9-5-34.4-7.8c10-6.9,19.2-17.5,30.1-20
		c106.5-23.7,209.5-10,308.9,35.8c4.6,2.1,9.2,4.3,14.1,5.8c2.6,0.8,5.6,0.1,8.5,0.1c1.5-2.6,3-5.2,4.6-7.8
		c-33.1-21.7-64.2-48.9-99.9-63.7c-44.6-18.6-93-27.2-139.9-39.7c-7.8-2.1-16.4-1.2-23.9-3.8c-4.9-1.7-8.6-7.3-12.8-11.1
		c4.7-4.6,8.6-11.6,14.1-13.3c7.4-2.3,16-0.9,24-0.4c85.1,5.2,161.5,36.3,231.4,86.5c3.3,2.3,6.9,4.2,10.4,6.1
		c0.6,0.3,1.8-0.3,11.8-2.5c-20.2-23.6-35.5-46.3-55.2-63.2c-28-23.9-59.8-43-89.1-65.3c-7.6-5.8-12.1-15.9-18.1-24
		c10.9-0.3,24.5-5.3,32.2-0.3c37.4,24.6,73.3,51.8,109.7,78.1c3.1,2.3,6.3,4.5,9.4,6.7c3-1.8,6.1-3.6,9.1-5.5
		c-7.8-15.9-13.2-33.9-24-47.2c-11.5-14.1-28.6-22.8-41.9-35.6c-4.7-4.6-5.2-14-7.7-21.3c8.1-1.7,17.9-7.3,23.9-4.4
		c14.3,7.1,26.7,18.2,34.5,23.8c14.1-14.9,25.9-27.3,37.6-39.7c8.6,13.2,17.2,26.4,28,42.9c10.4-6.8,23.6-18,38.7-24.4
		c8.3-3.5,19.6,1.3,29.6,2.3c-4.5,7-8,15.2-13.8,20.8c-17.1,16.4-36.5,30.3-52,48.1c-8,9.1-9.7,24.3-14.2,36.7
		c2.8,1.9,5.5,3.7,8.3,5.6c26.9-21.1,53.1-43.2,81-62.8c17.4-12.3,36.9-21.8,56.4-30.2c5.3-2.3,14.1,4.3,21.3,6.9
		c-3.9,6.2-6.6,14.1-11.9,18.4c-45.3,36.7-91.2,72.4-136.4,109.1c-7.1,5.8-11.5,15.1-17.2,22.8c1.9,2.5,3.9,4.9,5.8,7.4
		c24.3-14.9,48.3-30.4,72.9-44.5c55.1-31.7,114.4-48.7,177-51.1c10.7-0.4,21.8,7.9,32.7,12.2c-9.7,5-19.1,13.5-29.1,14.5
		c-80.3,8.5-154.1,34.2-218.2,87.2c-3.9,3.3-8.6,5.7-12.1,9.4c-4.2,4.5-7.6,9.9-17.7,23.5c124.9-59.1,244.6-79.7,368-41.2
		c0.4,6.1,0.8,12.1,1.2,18.2c-13.8,0.3-28.1,3-41.4,0.4c-113.3-22.1-219.5-1.5-319.8,56.6c-2.3,1.4-4.3,3.4-6.6,5.2
		c45.4-6.6,90.2-19.6,134.6-17.9c58,2.2,115.8,15.3,173.3,25.9c8.9,1.6,15.9,14.6,23.8,22.3c-10.7,1.7-22.8,7.8-31.8,4.4
		c-89.2-33.4-178.8-33.4-269.2-7.4c-8.1,2.3-15.9,6.2-22.7,17.2c34.9,0,69.9-2.2,104.6,0.4c83.7,6.5,160.2,34.6,225.3,91.8
		c7.5,6.6,9.7,19.9,14.4,30.1c-10.6-1.3-24.3,1.4-31.3-4.7c-76.3-66.1-164.7-92.8-261.8-92.7c-8.1,0-16.2,0.6-24.3,1.3
		c-2.6,0.2-5.1,1.9-13.4,5.2c108.5,24,198.2,72.4,267.3,160.1c-17.5,23.1-31.5,10.8-44.8-3.2c-55.3-58.2-119.2-100.8-196.2-119.8
		c-4.9-1.2-9.8-2.9-14.8-3.6c-7.9-1.2-15.8-1.8-31.8-3.6c32.8,15.8,58.4,28.6,84.3,40.5c50.8,23.3,85.4,65.7,117,111.1
		c4.1,5.9-0.3,18.4-0.8,27.8c-11.4-4.4-25.9-5.6-33.6-13.9c-15.2-16.4-24.4-39.2-40.1-54.9c-37.6-37.9-82-63.9-135.7-74.6
		c-7.1,23.6-10.3,40.3,14.7,54.6c20.6,11.7,37.9,30.9,54.4,49.1c11.8,13,9.3,28.7-6.9,36.8c-19,9.5-21.2,25-20.9,44.5
		c0.9,53.2,0.3,106.4,0.3,167c30.4-5.5,58-8.7,84.7-15.6c113-28.9,210.7-86.1,284.1-182.3c42.2-55.3,68.5-119.3,71.5-192.1
		c0.5-12.9,5-27.4,12.3-37.5c4.5-6.3,18.5-9,26.8-6.9c6,1.5,13.3,13.3,13.8,20.9c4.1,69-13.5,133.1-48.2,190.7
		c-96.6,160.3-242.6,236.5-416,262.7c-23.4,3.5-31.4,12.5-29.3,36.5c2.5,29.1-8.8,50.7-35.2,63.4c-30.4,14.6-59.4,10.1-81.2-13.7
		c-10-10.9-12.1-33.3-11.7-50.3c0.6-24.9-8.3-33-30.8-35.9c-120.1-15.3-228.9-60.5-321.7-143.4C111,852.1,63,783.7,41.6,697.9
		c-7.3-29.5-12.5-59.7-16.8-89.8c-2.9-20.9,8.9-31.6,28.3-32.7c18.8-1.1,23.7,11.3,25.1,28.4c14.7,174.9,112.6,285,257,354.1
		c50,23.9,105.9,34.1,159.3,49.9C503,1010.2,512.2,1009.5,525.2,1010.5z"/>
	<path d="M1149.1,477.1c0,6.4,1.8,13.6-0.4,19c-3.9,9.8-8.6,24-15.9,26.3c-7.8,2.5-20.3-4.7-28.2-11.1c-5.4-4.4-8.6-14.6-9-22.4
		c-9.3-172.1-107.8-277.7-245.5-344.1C649.5,48.2,450,60.1,261,183.5c-80.6,52.6-141,125.7-165.9,225.3
		c-7.1,28.4-12.5,57.4-16.5,86.5c-2.6,18.5-7.7,31.3-27.9,28.9c-17.4-2.1-27.8-11.3-26.5-31.6c5.6-88.3,36.1-166.2,88.6-234.9
		C297.4,16.1,665.9-16.8,907.5,120.9c105.9,60.4,186.4,146.9,227.7,268.1c9.4,27.6,10.6,58.4,15.6,87.7
		C1150.3,476.8,1149.7,477,1149.1,477.1z"/>
</g>
</svg>
