<?xml version="1.0" encoding="utf-8"?>
<!-- Generator: Adobe Illustrator 21.1.0, SVG Export Plug-In . SVG Version: 6.00 Build 0)  -->
<svg version="1.1" id="Layer_1" xmlns="http://www.w3.org/2000/svg" xmlns:xlink="http://www.w3.org/1999/xlink" x="0px" y="0px"
	 viewBox="0 0 1175 1200" style="enable-background:new 0 0 1175 1200;" xml:space="preserve">
<g id="_x31_4">
	<g>
		<path d="M1036.6,537.5c-4,5.3-10.2,8.4-16.9,8.4c-4.7,0-9.1-1.5-12.9-4.4c-1.1-0.8-113.5-84.6-249-84.6c-45.3,0-88.3,9.4-128,28.1
			c18.6-2,37-3,55-3c202.3,0,303.7,123.4,307.9,128.7c7.3,9.1,5.9,22.5-3.2,29.9c-3.8,3-8.5,4.7-13.3,4.7c-6.5,0-12.5-2.9-16.5-7.9
			c-0.3-0.3-31.4-38-91.3-69.1c-38.1-19.8-101.2-43.5-185.2-43.5c-5,0-10.1,0.1-15.2,0.2C785,553.7,905.3,671.2,911,676.8
			c8.3,8.2,8.4,21.7,0.2,30.1c-4,4.1-9.4,6.3-15.2,6.3c-5.6,0-10.9-2.2-14.9-6.1c-1.2-1.2-101-98-198-133.3
			c87.7,50.6,148.1,153,151.2,158.3c5.9,10.1,2.5,23.2-7.7,29.1c-3.2,1.9-7,2.9-10.7,2.9c-7.5,0-14.6-4-18.4-10.6
			c-0.8-1.3-80.4-134.9-177.8-160.7v20.8c20.3,11.5,36.6,32.9,44,60.2h54.6c4.5,0,8.6,2.4,10.8,6.3c2.2,3.9,2.1,8.7-0.3,12.6
			l-41,66.2c-2.3,3.7-6.2,5.9-10.5,5.9h-10.8v319c0,31.9-37.7,107-72.1,107c-0.3,0-0.6,0-1-0.1l-22.7-3.2
			c-34.9,0-64.8-75.3-64.8-103.7V765h-10.8c-4.3,0-8.2-2.2-10.5-5.9l-41-66.2c-2.4-3.8-2.5-8.6-0.3-12.5c2.2-3.9,6.3-6.4,10.8-6.4
			h54.6c7.4-27.3,23.8-48.7,44-60.2v-20.8c-98.2,25.9-177,159.3-177.8,160.7c-3.8,6.5-10.9,10.6-18.4,10.6c-3.8,0-7.5-1-10.7-2.9
			c-10.1-5.9-13.6-18.9-7.7-29.1c3.1-5.4,64.1-108.3,152.1-158.7C393,608.3,293.1,705.9,291.8,707.1c-4,3.9-9.3,6.1-14.9,6.1
			c-5.7,0-11.1-2.3-15.1-6.3c-4-4-6.2-9.4-6.1-15.1c0-5.7,2.3-11,6.3-15c5.7-5.7,125.7-123.1,243.2-151.8
			c-5.1-0.2-10.2-0.2-15.2-0.2c-84,0-147.1,23.7-185.2,43.5c-60.2,31.4-91,68.7-91.3,69.1c-4.1,5-10.1,7.9-16.6,7.9
			c-4.8,0-9.6-1.7-13.4-4.7c-9.1-7.3-10.6-20.7-3.2-29.8c4.2-5.2,105.6-128.7,307.9-128.7c18,0,36.4,1,55,3
			c-39.7-18.7-82.7-28.1-128-28.1c-135.8,0-247.9,83.8-249,84.6c-3.8,2.8-8.2,4.4-12.9,4.4c-6.7,0-12.9-3.1-16.9-8.4
			c-3.5-4.5-4.9-10.1-4.2-15.7c0.8-5.6,3.7-10.6,8.2-14c2.4-1.8,59.4-44.9,144-72.1c43.9-14.1,87.4-21.3,129.4-21.3
			c49,0,95.8,9.7,139.4,28.8V440c-52.6-33.1-117.6-49.9-193.2-49.9c-97.7,0-176.8,28.1-177.6,28.4c-2.3,0.8-4.8,1.3-7.2,1.3
			c-8.9,0-17-5.6-20-14c-4-11,1.7-23.2,12.7-27.2c8.9-3.2,90.2-31.6,191.8-31.6c58.9,0,112.6,9.6,160.2,28.6
			c-92.9-69.5-254.6-81.8-256.5-81.9c-11.7-0.8-20.6-11-19.8-22.7c0.8-11.1,10.1-19.8,21.3-19.8c0.2,0,1.2,0,1.4,0.1
			c7.3,0.5,165,12.2,269,83.2c-71.9-95.6-153-113.5-153.8-113.7c-10.2-0.5-19-9.9-19-21.1c0-11.7,9.5-21.3,21.3-21.3
			c12.4,0,93.5,20.8,169.5,110.4v-4.6c-26-48.1-67.4-80.4-74.5-84.8c-6.9-3-11.9-10.6-11.9-19.1c0-11.7,9.6-21.3,21.3-21.3
			c17.2,0,55,40.4,59.3,45c6.3,6.8,12.4,14,18.1,21.4v-44.4c0-11.7,9.5-21.3,21.3-21.3c11.7,0,21.3,9.5,21.3,21.3v44.4
			c5.7-7.4,11.8-14.6,18.1-21.4c4.2-4.6,42-45,59.3-45c11.7,0,21.3,9.6,21.3,21.3c0,8.4-5,16.1-12.7,19.5
			c-6.3,4-47.7,36.2-73.7,84.4v4.7c76-89.6,157-110.4,169.5-110.4c11.7,0,21.3,9.6,21.3,21.3c0,11.2-8.8,20.6-20,21.2
			c0,0.1-81,17.9-152.9,113.6c104-71.1,261.7-82.8,269-83.2c0.2,0,1.2-0.1,1.4-0.1c11.2,0,20.6,8.7,21.3,19.8
			c0.8,11.7-8.1,21.9-19.8,22.7c-1.8,0.1-163.5,12.3-256.5,81.9c47.6-19,101.3-28.6,160.2-28.6c101.5,0,182.9,28.4,191.8,31.6
			c11,4,16.7,16.2,12.7,27.2c-3,8.4-11.1,14-20,14c-2.4,0-4.9-0.4-7.2-1.3c-0.8-0.3-79.8-28.4-177.6-28.4
			c-75.6,0-140.6,16.8-193.2,49.9v3.1c43.6-19.1,90.4-28.8,139.4-28.8c42,0,85.5,7.2,129.4,21.3c84,27.1,141.6,70.3,144,72.1
			C1041.9,514.8,1043.8,528.2,1036.6,537.5z"/>
		<path d="M265.1,859.9c-3,5.2-8.7,8.4-14.7,8.4c-3,0-5.9-0.8-8.5-2.3C99.6,782.8,11.6,654.4,0.5,513.8c-0.7-9.3,6.3-17.5,15.6-18.3
			c0.5,0,1-0.1,1.4-0.1c8.9,0,16.2,6.7,16.9,15.6C44.5,640.5,126.4,759.2,259,836.6C267.1,841.4,269.8,851.8,265.1,859.9z"/>
		<path d="M996.8,1024.3c0.1,0.5,0.5,1.6-0.8,3.3c-1.6,2.2-4.7,3.7-7.6,3.7c-0.4,0-0.8,0-1.3-0.1c-7.7-1.5-14.9-8.9-21.8-16.1
			l-0.9-0.9c-9.5-9.8-21.3-19.9-36-19.9c-9.4,0-17.8,4.2-25.2,7.8c-5.5,2.7-10.6,5.3-14.4,5.3c-1.3,0-2.4-0.3-3.5-1
			c-2.7-1.6-4.8-5.6-7.1-9.8c-2.1-4-4.6-8.5-8.2-12.4c-7.9-8.6-18.9-13.1-31.9-13.1c-14.6,0-28.1,5.7-34.8,9.1
			c-2.7,1.4-5.3,2.7-7.7,4c-7.5,3.9-14.6,7.7-18.5,7.7c-3.6,0-7.3-7.2-9.7-13.2c-2.1-5.2-6.6-10.9-11.8-17.4
			c-3.7-4.6-10.7-13.4-12.8-18.5c5.1,1.4,12.7,4.9,17.3,6.9c3.9,1.8,6.9,3.2,9.3,3.9c17.9,5.6,31.9,8.1,45.4,8.1
			c2.4,0,4.8-0.1,7.3-0.3c10.6-0.8,20.9-2.6,30.9-4.3c12.2-2.1,23.8-4.2,35.1-4.2c12.4,0,22.8,2.5,32.6,7.9c1.5,0.8,3.1,1.2,4.7,1.2
			c2.2,0,4.5-0.8,6.2-2.3c3.1-2.6,4.2-6.8,3-10.5c-2.1-6.2-4.7-13.9-3.5-19.7c0.6-2.7,2.7-4.8,4.2-4.8c0.2,0,0.5,0,0.7,0.1
			c1.1,0.4,1.4,2.9,1.8,7.9c0.2,2.4,0.4,4.9,0.9,7.3c4.2,19.2,7.8,25.1,27,33.3c2,0.9,4.9,1.8,8.5,3c4.4,1.5,10,3.3,15.1,5.4
			c3.9,1.6,6.6,2.9,8.6,4c-11.1,3.1-15.8,9.9-14,20.2c1.1,6.3,5.4,10.6,8.9,14C994.2,1021.1,996.5,1023.3,996.8,1024.3z"/>
	</g>
	<g>
		<path d="M265.1,859.9c-3,5.2-8.7,8.4-14.7,8.4c-3,0-5.9-0.8-8.5-2.3C99.6,782.8,11.6,654.4,0.5,513.8c-0.7-9.3,6.3-17.5,15.6-18.3
			c0.5,0,1-0.1,1.4-0.1c8.9,0,16.2,6.7,16.9,15.6C44.5,640.5,126.4,759.2,259,836.6C267.1,841.4,269.8,851.8,265.1,859.9z"/>
		<path d="M926.6,868.3c-6,0-11.6-3.2-14.7-8.4c-2.3-3.9-2.9-8.5-1.8-12.9c1.2-4.4,4-8.1,7.9-10.3c126.2-73.7,207.5-186.3,223-309
			c1.1-8.5,8.3-14.9,16.8-14.9c0.7,0,1.5,0,2.2,0.1c9.3,1.2,15.9,9.7,14.7,19c-16.9,133.2-104.2,255-239.6,334.1
			C932.5,867.5,929.6,868.3,926.6,868.3z"/>
		<path d="M18.3,461.6c-0.6,0-1.2,0-1.8-0.1c-9.3-1-16.1-9.3-15.1-18.7c12.5-118.2,79.6-227.6,188.8-308
			C299.1,54.7,440.5,10.6,588.5,10.6c146.2,0,286.4,43.2,394.7,121.7c108.6,78.6,176.6,186,191.4,302.4c1.2,9.3-5.4,17.8-14.7,19
			c-0.7,0.1-1.4,0.1-2.1,0.1c-8.5,0-15.8-6.4-16.8-14.8C1112.3,214.1,874.8,44.5,588.5,44.5C302.1,44.5,59,221.1,35.2,446.4
			C34.2,455,27,461.6,18.3,461.6z"/>
	</g>
	<path d="M196.7,1031.2c-2.8,0-5.9-1.5-7.6-3.7c-1.2-1.7-0.9-2.8-0.8-3.3c0.3-1,2.6-3.2,4-4.5c3.5-3.4,7.8-7.7,8.9-14
		c1.8-10.4-2.9-17.2-14-20.2c2-1.1,4.7-2.5,8.5-4c5.1-2.1,10.7-4,15.2-5.4c3.6-1.2,6.5-2.1,8.5-3c19.3-8.2,22.9-14.1,27-33.3
		c0.5-2.4,0.7-4.9,0.9-7.3c0.4-5,0.8-7.5,1.8-7.9c0.3-0.1,0.5-0.1,0.7-0.1c1.5,0,3.6,2.1,4.2,4.8c1.2,5.4-0.8,11.8-3.5,19.7
		c-1.3,3.8-0.1,8,3,10.5c1.8,1.5,4,2.3,6.2,2.3c1.6,0,3.2-0.4,4.7-1.2c9.8-5.4,20.2-7.9,32.6-7.9c11.3,0,22.8,2,35.1,4.2
		c10,1.7,20.2,3.6,30.9,4.3c2.4,0.2,4.9,0.2,7.3,0.2c13.6,0,27.6-2.5,45.4-8.1c2.3-0.7,5.4-2.1,9.3-3.9c4.5-2.1,12.2-5.6,17.3-7
		c-2.2,5.1-9.2,13.9-12.8,18.5c-5.2,6.6-9.8,12.2-11.8,17.4c-2.4,6.1-6,13.2-9.7,13.2c-3.9,0-11-3.7-18.5-7.7c-2.4-1.3-5-2.6-7.7-4
		c-6.7-3.4-20.2-9.1-34.8-9.1c-13,0-24,4.5-31.9,13.1c-3.6,3.9-6,8.4-8.2,12.4c-2.3,4.2-4.4,8.2-7.1,9.8c-1.1,0.7-2.2,1-3.5,1
		c-3.8,0-9-2.6-14.4-5.3c-7.4-3.7-15.7-7.8-25.1-7.8c-14.7,0-26.5,10.1-36,19.9l-0.9,0.9c-7,7.2-14.2,14.6-21.8,16.1
		C197.6,1031.2,197.2,1031.2,196.7,1031.2z"/>
	<path d="M996.8,1024.3c0.1,0.5,0.5,1.6-0.8,3.3c-1.6,2.2-4.7,3.7-7.6,3.7c-0.4,0-0.8,0-1.3-0.1c-7.7-1.5-14.9-8.9-21.8-16.1
		l-0.9-0.9c-9.5-9.8-21.3-19.9-36-19.9c-9.4,0-17.8,4.2-25.2,7.8c-5.5,2.7-10.6,5.3-14.4,5.3c-1.3,0-2.4-0.3-3.5-1
		c-2.7-1.6-4.8-5.6-7.1-9.8c-2.1-4-4.6-8.5-8.2-12.4c-7.9-8.6-18.9-13.1-31.9-13.1c-14.6,0-28.1,5.7-34.8,9.1
		c-2.7,1.4-5.3,2.7-7.7,4c-7.5,3.9-14.6,7.7-18.5,7.7c-3.6,0-7.3-7.2-9.7-13.2c-2.1-5.2-6.6-10.9-11.8-17.4
		c-3.7-4.6-10.7-13.4-12.8-18.5c5.1,1.4,12.7,4.9,17.3,6.9c3.9,1.8,6.9,3.2,9.3,3.9c17.9,5.6,31.9,8.1,45.4,8.1
		c2.4,0,4.8-0.1,7.3-0.3c10.6-0.8,20.9-2.6,30.9-4.3c12.2-2.1,23.8-4.2,35.1-4.2c12.4,0,22.8,2.5,32.6,7.9c1.5,0.8,3.1,1.2,4.7,1.2
		c2.2,0,4.5-0.8,6.2-2.3c3.1-2.6,4.2-6.8,3-10.5c-2.1-6.2-4.7-13.9-3.5-19.7c0.6-2.7,2.7-4.8,4.2-4.8c0.2,0,0.5,0,0.7,0.1
		c1.1,0.4,1.4,2.9,1.8,7.9c0.2,2.4,0.4,4.9,0.9,7.3c4.2,19.2,7.8,25.1,27,33.3c2,0.9,4.9,1.8,8.5,3c4.4,1.5,10,3.3,15.1,5.4
		c3.9,1.6,6.6,2.9,8.6,4c-11.1,3.1-15.8,9.9-14,20.2c1.1,6.3,5.4,10.6,8.9,14C994.2,1021.1,996.5,1023.3,996.8,1024.3z"/>
</g>
</svg>
