<svg id="Layer_3" enable-background="new 0 0 64 64" height="512" viewBox="0 0 64 64" width="512" xmlns="http://www.w3.org/2000/svg"><path d="m18 51h-10-7v2h62v-2h-5-10z"/><path d="m26 13h37v-2h-37c-2.453 0-4.489 1.779-4.91 4.113-8.318.746-15.758 5.59-19.766 13.035l-.204.378c-.079.146-.12.308-.12.474v13c0 .552.448 1 1 1h1v2h-2v2h4.184c-.112.314-.184.648-.184 1 0 1.654 1.346 3 3 3s3-1.346 3-3c0-.352-.072-.686-.184-1h4.369c-.113.314-.185.648-.185 1 0 1.654 1.346 3 3 3s3-1.346 3-3c0-.352-.072-.686-.184-1h24.369c-.113.314-.185.648-.185 1 0 1.654 1.346 3 3 3s3-1.346 3-3c0-.352-.072-.686-.184-1h4.369c-.113.314-.185.648-.185 1 0 1.654 1.346 3 3 3s3-1.346 3-3c0-.352-.072-.686-.184-1h2.184v-2h-58v-2h58v-2h-59-1v-2h1c1.654 0 3-1.346 3-3s-1.346-3-3-3h-1v-3.748l.084-.156c4.018-7.461 11.777-12.096 20.251-12.096h39.665v-2h-39.665c-.051 0-.101.005-.152.005.412-1.164 1.513-2.005 2.817-2.005zm-17 35c0 .551-.449 1-1 1s-1-.449-1-1 .449-1 1-1 1 .449 1 1zm10 0c0 .551-.449 1-1 1s-1-.449-1-1 .449-1 1-1 1 .449 1 1zm30 0c0 .551-.449 1-1 1s-1-.449-1-1 .449-1 1-1 1 .449 1 1zm10 0c0 .551-.449 1-1 1s-1-.449-1-1 .449-1 1-1 1 .449 1 1zm-55-13c.551 0 1 .449 1 1s-.449 1-1 1h-1v-2z"/><path d="m24.324 19c-7.334 0-14.234 3.907-18.008 10.196l-.174.29c-.185.309-.19.694-.012 1.007s.51.507.87.507h22c.552 0 1-.448 1-1v-10c0-.552-.448-1-1-1zm3.676 10h-19.167c3.537-4.968 9.346-8 15.491-8h3.676z"/><path d="m33 19c-.552 0-1 .448-1 1v10c0 .552.448 1 1 1h10c.552 0 1-.448 1-1v-10c0-.552-.448-1-1-1zm9 10h-8v-8h8z"/><path d="m47 19c-.552 0-1 .448-1 1v10c0 .552.448 1 1 1h10c.552 0 1-.448 1-1v-10c0-.552-.448-1-1-1zm9 10h-8v-8h8z"/></svg>