<svg id="Capa_1" enable-background="new 0 0 512 512" height="512" viewBox="0 0 512 512" width="512" xmlns="http://www.w3.org/2000/svg"><path d="m425.181 364.828c-4.148 0-7.511 3.363-7.511 7.511v120.132c0 2.485-2.022 4.507-4.507 4.507h-371.554c-2.485 0-4.507-2.022-4.507-4.507v-302.56c0-4.148-3.363-7.511-7.511-7.511s-7.511 3.363-7.511 7.511v302.56c0 10.768 8.76 19.529 19.529 19.529h371.554c10.769 0 19.529-8.761 19.529-19.529v-120.132c0-4.148-3.363-7.511-7.511-7.511z"/><path d="m66.471 83.616h38.122c4.148 0 7.511-3.363 7.511-7.511s-3.363-7.511-7.511-7.511h-38.122c-4.148 0-7.511 3.363-7.511 7.511s3.362 7.511 7.511 7.511z"/><path d="m104.593 98.473h-38.122c-4.148 0-7.511 3.363-7.511 7.511s3.363 7.511 7.511 7.511h38.122c4.148 0 7.511-3.363 7.511-7.511s-3.363-7.511-7.511-7.511z"/><path d="m250.109 380.209h-62.377c-5.798 0-10.516 4.717-10.516 10.516v19.777c0 5.798 4.717 10.516 10.516 10.516h62.377c5.798 0 10.516-4.717 10.516-10.516v-19.777c0-5.799-4.717-10.516-10.516-10.516zm-4.506 25.786h-53.363v-10.764h53.363z"/><path d="m349.408 339.649c0-4.148-3.363-7.511-7.511-7.511h-25.54l-4.744-20.306c-3.378-14.456-16.105-24.553-30.951-24.553h-123.481c-14.845 0-27.573 10.097-30.951 24.553l-4.745 20.306h-25.54c-4.148 0-7.511 3.363-7.511 7.511s3.363 7.511 7.511 7.511h11.279c-12.475 9.556-20.541 24.594-20.541 41.487v35.76c0 12.425 10.108 22.534 22.534 22.534h6.882v7.922c0 9.94 8.087 18.027 18.027 18.027h16.739c10.216 0 18.528-8.311 18.528-18.528v-7.422h99.058v7.922c0 9.94 8.087 18.027 18.027 18.027h16.739c10.216 0 18.528-8.311 18.528-18.528v-7.422h7.884c11.873 0 21.532-9.659 21.532-21.532v-37.763c0-16.449-7.8-31.103-19.885-40.485h10.623c4.146.001 7.509-3.362 7.509-7.51zm-195.038 114.713c0 1.933-1.573 3.505-3.505 3.505h-16.739c-1.657 0-3.004-1.348-3.004-3.004v-7.922h23.249v7.421zm152.351 0c0 1.933-1.573 3.505-3.505 3.505h-16.739c-1.657 0-3.004-1.348-3.004-3.004v-7.922h23.249v7.421zm29.416-66.717v37.763c0 3.589-2.92 6.51-6.51 6.51h-220.41c-4.142 0-7.511-3.369-7.511-7.511v-35.76c0-20.524 16.698-37.222 37.222-37.222h105.034c4.148 0 7.511-3.363 7.511-7.511s-3.363-7.511-7.511-7.511h-105.035c-1.019 0-2.029.037-3.033.095l4.964-21.247c1.781-7.624 8.494-12.949 16.323-12.949h123.481c7.829 0 14.541 5.324 16.323 12.949l4.954 21.203c-.672-.026-1.344-.051-2.022-.051h-20.372c-4.148 0-7.511 3.363-7.511 7.511s3.363 7.511 7.511 7.511h20.372c19.972 0 36.22 16.248 36.22 36.22z"/><path d="m302.827 380.565c-11.055 0-20.048 8.994-20.048 20.048 0 11.055 8.994 20.048 20.048 20.048 11.055 0 20.048-8.993 20.048-20.048 0-11.054-8.993-20.048-20.048-20.048zm0 25.074c-2.771 0-5.026-2.254-5.026-5.026 0-2.771 2.255-5.026 5.026-5.026s5.026 2.255 5.026 5.026-2.255 5.026-5.026 5.026z"/><path d="m133.919 380.565c-11.055 0-20.048 8.994-20.048 20.048 0 11.055 8.994 20.048 20.048 20.048 11.055 0 20.048-8.993 20.048-20.048 0-11.054-8.993-20.048-20.048-20.048zm0 25.074c-2.771 0-5.026-2.254-5.026-5.026 0-2.771 2.255-5.026 5.026-5.026s5.026 2.255 5.026 5.026-2.255 5.026-5.026 5.026z"/><path d="m489.92 135.023c0-74.452-60.571-135.023-135.022-135.023-36.334 0-69.358 14.431-93.653 37.856h-219.636c-10.769 0-19.529 8.761-19.529 19.529v96.565c0 4.148 3.363 7.511 7.511 7.511s7.511-3.363 7.511-7.511v-8.55h183.168c5.316 69.622 63.667 124.645 134.628 124.645 22.648 0 44.007-5.614 62.772-15.51v81.468c0 4.148 3.363 7.511 7.511 7.511s7.511-3.363 7.511-7.511v-90.683c34.597-24.473 57.228-64.79 57.228-110.297zm-452.818-77.638c0-2.485 2.022-4.507 4.507-4.507h206.206c-16.629 21.627-26.863 48.408-27.851 77.499h-182.862zm317.796 197.638c-66.169 0-120-53.832-120-120s53.832-120 120-120 120 53.832 120 120-53.832 120-120 120z"/><ellipse cx="354.897" cy="50.605" rx="13.756" ry="13.756" transform="matrix(.707 -.707 .707 .707 68.164 265.772)"/><ellipse cx="354.897" cy="217.74" rx="13.756" ry="13.756" transform="matrix(.973 -.23 .23 .973 -40.533 87.364)"/><ellipse cx="438.465" cy="134.173" rx="13.756" ry="13.756" transform="matrix(.973 -.23 .23 .973 -19.097 104.328)"/><ellipse cx="271.33" cy="134.173" rx="13.756" ry="13.756" transform="matrix(.707 -.707 .707 .707 -15.404 231.157)"/><circle cx="413.989" cy="193.264" r="13.756"/><circle cx="295.806" cy="75.081" r="13.756"/><circle cx="295.806" cy="193.264" r="13.756"/><path d="m207.343 196.769h-140.872c-4.148 0-7.511 3.363-7.511 7.511s3.363 7.511 7.511 7.511h140.873c4.148 0 7.511-3.363 7.511-7.511s-3.363-7.511-7.512-7.511z"/><path d="m66.471 248.878h82.036c4.148 0 7.511-3.363 7.511-7.511s-3.363-7.511-7.511-7.511h-82.036c-4.148 0-7.511 3.363-7.511 7.511s3.362 7.511 7.511 7.511z"/><path d="m322.859 142.534h32.039c1.625 0 3.206-.527 4.507-1.502l58.791-44.095-.947 8.063c-.484 4.12 2.465 7.852 6.585 8.335.298.035.592.052.885.052 3.757 0 7.002-2.814 7.451-6.636l3.036-25.876c.473-4.033-2.345-7.712-6.362-8.306l-26.511-3.917c-4.106-.612-7.922 2.229-8.528 6.333s2.229 7.922 6.333 8.528l9.122 1.348-56.865 42.65h-28.923l5.269-5.045c2.997-2.869 3.1-7.623.231-10.62-2.869-2.996-7.624-3.1-10.62-.231l-19.213 18.394c-1.489 1.425-2.327 3.4-2.317 5.461s.866 4.028 2.368 5.439l19.472 18.293c1.45 1.362 3.297 2.037 5.141 2.037 2.001 0 3.998-.795 5.476-2.368 2.84-3.024 2.692-7.777-.332-10.617z"/></svg>