<svg height="496pt" viewBox="0 0 496 496" width="496pt" xmlns="http://www.w3.org/2000/svg"><path d="m248 0c-136.753906 0-248 111.257812-248 248s111.246094 248 248 248 248-111.257812 248-248-111.246094-248-248-248zm231.800781 256c-.878906 25.710938-5.929687 50.375-14.542969 73.328125l-29.417968-12.183594-6.128906 14.785157 29.367187 12.167968c-10.484375 22.933594-24.582031 43.878906-41.589844 62.085938l-22.417969-22.414063-11.308593 11.308594 22.414062 22.417969c-18.207031 17.007812-39.152343 31.105468-62.085937 41.582031l-12.160156-29.367187-14.785157 6.128906 12.183594 29.40625c-22.953125 8.625-47.617187 13.675781-73.328125 14.546875v-31.792969h-16v31.800781c-25.710938-.878906-50.375-5.929687-73.328125-14.542969l12.183594-29.410156-14.785157-6.128906-12.160156 29.371094c-22.933594-10.488282-43.878906-24.578125-62.085937-41.585938l22.414062-22.414062-11.308593-11.3125-22.417969 22.414062c-17.007813-18.214844-31.105469-39.152344-41.589844-62.09375l29.367187-12.167968-6.128906-14.785157-29.417968 12.183594c-8.613282-22.953125-13.664063-47.617187-14.542969-73.328125h31.800781v-16h-31.800781c.878906-25.710938 5.929687-50.375 14.542969-73.328125l29.417968 12.183594 6.128906-14.785157-29.367187-12.167968c10.484375-22.933594 24.582031-43.878906 41.589844-62.09375l22.417969 22.414062 11.308593-11.3125-22.414062-22.414062c18.207031-17.007813 39.152343-31.105469 62.085937-41.585938l12.160156 29.371094 14.785157-6.128906-12.183594-29.410156c22.953125-8.613282 47.617187-13.664063 73.328125-14.542969v31.800781h16v-31.800781c25.710938.878906 50.375 5.929687 73.328125 14.542969l-12.175781 29.417968 14.785156 6.128906 12.160156-29.367187c22.933594 10.476563 43.878906 24.574219 62.085938 41.582031l-22.414063 22.417969 11.308594 11.308594 22.417969-22.414063c17.007812 18.207032 31.105468 39.152344 41.59375 62.085938l-29.371094 12.167968 6.128906 14.785157 29.417969-12.183594c8.613281 22.953125 13.671875 47.617187 14.542969 73.328125h-31.808594v16zm0 0"/><path d="m248 64c-101.464844 0-184 82.542969-184 184s82.535156 184 184 184 184-82.542969 184-184-82.535156-184-184-184zm0 352c-92.632812 0-168-75.359375-168-168s75.367188-168 168-168 168 75.359375 168 168-75.367188 168-168 168zm0 0"/><path d="m248 96c-83.816406 0-152 68.183594-152 152s68.183594 152 152 152 152-68.183594 152-152-68.183594-152-152-152zm112.902344 76.289062-85.023438 37.34375 9.234375-92.351562c31.285157 8.894531 58.054688 28.628906 75.789063 55.007812zm-112.902344 99.710938c-13.230469 0-24-10.769531-24-24s10.769531-24 24-24 24 10.769531 24 24-10.769531 24-24 24zm-39.9375-24.59375-94.246094-20.527344c2.261719-14.429687 6.75-28.109375 13.191406-40.664062l88.367188 38.808594c-4.503906 6.351562-7.191406 14.046874-7.3125 22.382812zm79.875 0c-.128906-8.335938-2.808594-16.03125-7.304688-22.390625l88.367188-38.808594c6.441406 12.5625 10.921875 26.242188 13.191406 40.664063zm-18.5625-133.558594-9.605469 96.121094c-3.746093-1.160156-7.648437-1.96875-11.769531-1.96875s-8.023438.808594-11.769531 1.96875l-9.605469-96.121094c6.984375-1.105468 14.085938-1.847656 21.375-1.847656s14.390625.742188 21.375 1.847656zm-58.488281 3.433594 9.234375 92.351562-85.023438-37.34375c17.734375-26.378906 44.503906-46.113281 75.789063-55.007812zm-98.628907 125.628906 90.636719 19.746094-61.710937 69.246094c-18.214844-23.140625-29.183594-52.238282-29.183594-83.902344 0-1.71875.191406-3.382812.257812-5.089844zm39.542969 101.121094 64.304688-72.152344c4.773437 6.367188 11.375 11.191406 19.046875 13.816406l-48.726563 83.417969c-12.824219-6.554687-24.546875-14.976562-34.625-25.082031zm49.40625 31.496094 46.792969-80.101563 46.792969 80.109375c-14.617188 5.375-30.328125 8.464844-46.792969 8.464844s-32.175781-3.089844-46.792969-8.472656zm108.359375-6.421875-48.726562-83.417969c7.671875-2.625 14.273437-7.449219 19.046875-13.816406l64.304687 72.152344c-10.070312 10.113281-21.792968 18.535156-34.625 25.082031zm45.25-37.203125-61.710937-69.246094 90.636719-19.746094c.066406 1.707032.257812 3.371094.257812 5.089844 0 31.664062-10.96875 60.761719-29.183594 83.902344zm0 0"/></svg>