<svg height="512pt" viewBox="-20 0 512 512" width="512pt" xmlns="http://www.w3.org/2000/svg"><path d="m462 246h-24v-236c0-5.523438-4.476562-10-10-10h-384c-5.523438 0-10 4.476562-10 10v236h-24c-5.523438 0-10 4.476562-10 10v40c0 5.523438 4.476562 10 10 10h7v196c0 5.523438 4.476562 10 10 10h418c5.523438 0 10-4.476562 10-10v-196h7c5.523438 0 10-4.476562 10-10v-40c0-5.523438-4.476562-10-10-10zm-44.058594-226c-.894531 14.566406-13 26.375-27.757812 26.667969-7.457032.164062-14.597656-2.730469-20.085938-8.105469-5.046875-4.949219-8.167968-11.605469-8.777344-18.5625zm-76.800781 0c-.894531 14.566406-12.996094 26.375-27.757813 26.667969-7.464843.164062-14.597656-2.730469-20.082031-8.105469-5.046875-4.949219-8.167969-11.605469-8.78125-18.5625zm-76.800781 0c-.894532 14.566406-12.996094 26.375-27.757813 26.667969-7.453125.164062-14.597656-2.730469-20.082031-8.105469-5.050781-4.949219-8.167969-11.605469-8.78125-18.5625zm-76.800782 0c-.890624 14.566406-12.996093 26.375-27.757812 26.667969-7.460938.164062-14.597656-2.730469-20.082031-8.105469-5.046875-4.949219-8.167969-11.605469-8.78125-18.5625zm-76.859374 0c-.613282 6.957031-3.730469 13.613281-8.777344 18.5625-5.488282 5.375-12.613282 8.25-20.085938 8.105469-14.757812-.292969-26.863281-12.101563-27.757812-26.667969zm-56.679688 37.34375c7.746094 5.671875 17.207031 9.117188 27.417969 9.320312.320312.007813.640625.011719.964843.011719 12.523438 0 24.394532-4.890625 33.519532-13.832031 1.777344-1.742188 3.414062-3.613281 4.898437-5.589844 1.484375 1.976563 3.121094 3.847656 4.898438 5.589844 9.121093 8.941406 20.992187 13.832031 33.519531 13.832031.320312 0 .640625-.003906.964844-.011719 15.265625-.304687 28.859375-7.839843 37.539062-19.257812 1.453125 1.917969 3.042969 3.738281 4.777344 5.4375 9.121094 8.941406 20.992188 13.832031 33.519531 13.832031.320313 0 .640625-.003906.964844-.011719 15.265625-.304687 28.859375-7.839843 37.539063-19.257812 1.453124 1.917969 3.042968 3.738281 4.777343 5.4375 9.121094 8.941406 20.992188 13.832031 33.519531 13.832031.320313 0 .640626-.003906.964844-.011719 15.265625-.304687 28.859375-7.839843 37.535156-19.257812 1.453126 1.917969 3.046876 3.738281 4.78125 5.4375 9.121094 8.9375 20.992188 13.828125 33.519532 13.828125.320312 0 .640625 0 .964844-.007813 10.210937-.203124 19.667968-3.652343 27.417968-9.320312v188.65625h-98.738281c1.503906-3.707031 2.339844-7.757812 2.339844-12 0-6.382812-1.882813-12.324219-5.113281-17.324219.34375-.652343.625-1.34375.824218-2.078125l21.257813-79c.808593-3.003906.171875-6.210937-1.722657-8.683594-1.890624-2.46875-4.824218-3.914062-7.9375-3.914062h-148.238281l-4.800781-24.894531c-.90625-4.707031-5.023438-8.105469-9.816406-8.105469h-22.972656c-5.523438 0-10 4.476562-10 10s4.476562 10 10 10h14.714843l20.039063 103.894531c.175781.917969.476562 1.785157.882812 2.589844-3.308594 5.035156-5.242187 11.050781-5.242187 17.515625 0 4.242188.835937 8.292969 2.34375 12h-121.824219zm141.914062 144.65625-11.378906-59h131.332032l-15.875 59zm-2.433593 32c0-6.617188 5.382812-12 12-12 6.617187 0 12 5.382812 12 12s-5.382813 12-12 12c-6.617188 0-12-5.382812-12-12zm41.65625-12h24.8125c-1.507813 3.707031-2.34375 7.757812-2.34375 12s.835937 8.292969 2.34375 12h-24.8125c1.507812-3.707031 2.34375-7.757812 2.34375-12s-.835938-8.292969-2.34375-12zm42.46875 12c0-6.617188 5.382812-12 12-12 6.617187 0 12 5.382812 12 12s-5.382813 12-12 12c-6.617188 0-12-5.382812-12-12zm60.394531 151.855469-92 92v-117.855469h92zm-204 80.289062 92-92v117.855469h-92zm0-28.289062v-77.855469h77.855469zm126.144531 54.144531 77.855469-77.855469v77.855469zm174.855469 0h-77v-142c0-5.523438-4.476562-10-10-10h-224c-5.523438 0-10 4.476562-10 10v142h-77v-186h154.125c5.523438 0 10-4.476562 10-10s-4.476562-10-10-10h-171.125v-20h432v20h-170.871094c-5.523437 0-10 4.476562-10 10s4.476563 10 10 10h153.871094zm0 0"/><path d="m236 286c-2.628906 0-5.210938 1.070312-7.070312 2.929688-1.859376 1.859374-2.929688 4.441406-2.929688 7.070312s1.070312 5.210938 2.929688 7.070312c1.859374 1.859376 4.441406 2.929688 7.070312 2.929688s5.210938-1.070312 7.070312-2.929688c1.859376-1.859374 2.929688-4.441406 2.929688-7.070312s-1.070312-5.210938-2.929688-7.070312c-1.859374-1.859376-4.441406-2.929688-7.070312-2.929688zm0 0"/></svg>