<svg id="Layer_3" enable-background="new 0 0 64 64" height="512" viewBox="0 0 64 64" width="512" xmlns="http://www.w3.org/2000/svg"><path d="m58.793 51.937c.694-1.271 1.805-2.3 3.219-2.866l.357-.143-.74-1.857-.358.143c-1.304.522-2.406 1.349-3.271 2.366v-3.58h-2v3.58c-.865-1.017-1.968-1.844-3.272-2.366l-.357-.143-.74 1.857.356.143c1.415.566 2.526 1.595 3.22 2.866-.929-.59-2.027-.937-3.207-.937h-1v2h1c2.206 0 4 1.794 4 4v4h-8.78l1.099-5.492c.452-2.262.681-4.578.681-6.886 0-13.078-7.054-25.233-18.409-31.722l-9.591-5.48v-10.42h-2v8 16h-3c-.553 0-1 .447-1 1v3.184c-1.161.414-2 1.514-2 2.816s.839 2.402 2 2.816v26.184h-7v-4c0-2.206 1.794-4 4-4h1v-2h-1c-1.18 0-2.278.347-3.207.937.694-1.271 1.805-2.3 3.219-2.866l.357-.143-.74-1.857-.358.143c-1.304.522-2.406 1.349-3.271 2.366v-3.58h-2v3.58c-.865-1.017-1.968-1.844-3.272-2.366l-.358-.143-.74 1.857.356.143c1.415.566 2.526 1.595 3.22 2.866-.928-.59-2.026-.937-3.206-.937h-1v2h1c2.206 0 4 1.794 4 4v4h-5v2h62v-2h-5v-4c0-2.206 1.794-4 4-4h1v-2h-1c-1.18 0-2.278.347-3.207.937zm-29.194-33.3c10.733 6.134 17.401 17.623 17.401 29.985 0 2.177-.216 4.361-.643 6.493l-1.177 5.885h-1.96l1.147-5.737c.073-.366.14-.732.2-1.101.048-.29-.034-.586-.224-.81-.19-.223-.468-.352-.762-.352h-19.581c-.553 0-1 .447-1 1v7h-2v-47.277zm10.704 36.363h2.077l-1.2 6h-9.878zm-12.606 6h-2.697v-6h11.697zm-8.697-34v2h-2v-2zm-3 4h3v2h-3c-.552 0-1-.448-1-1s.448-1 1-1zm1 4h2v26h-2z"/><path d="m24 31h13.736c.378 0 .725-.214.894-.552.17-.338.134-.743-.092-1.046-2.547-3.417-5.693-6.262-9.351-8.456l-4.673-2.804c-.31-.186-.694-.19-1.008-.013s-.506.511-.506.871v11c0 .553.447 1 1 1zm11.659-2h-7.716l3.104-4.345c1.68 1.29 3.232 2.73 4.612 4.345zm-10.659-8.233 3.158 1.895c.434.26.845.549 1.263.829l-3.935 5.509h-.486z"/><path d="m24 41h18.728c.314 0 .611-.148.8-.4s.248-.578.16-.881c-.627-2.139-1.478-4.222-2.529-6.19-.175-.326-.513-.529-.883-.529h-16.276c-.553 0-1 .447-1 1v6c0 .553.447 1 1 1zm17.361-2h-8.751l6.667-4h.393c.657 1.29 1.224 2.63 1.691 4zm-16.361-4h10.39l-6.667 4h-3.723z"/><path d="m24 51h19.979c.538 0 .979-.426.999-.964.015-.387.022-.774.022-1.162 0-1.683-.131-3.374-.39-5.028-.076-.488-.496-.846-.988-.846h-19.622c-.553 0-1 .447-1 1v6c0 .553.447 1 1 1zm19-2.126v.126h-10.39l6.667-4h3.477c.163 1.281.246 2.581.246 3.874zm-18-3.874h10.39l-6.667 4h-3.723z"/><path d="m15.677 5.058c-.82-2.392-3.094-4.058-5.677-4.058s-4.857 1.666-5.677 4.058c-1.885.322-3.323 1.966-3.323 3.942 0 2.206 1.794 4 4 4 .808 0 1.578-.238 2.232-.682 1.707.896 3.828.896 5.535 0 .655.444 1.425.682 2.233.682 2.206 0 4-1.794 4-4 0-1.976-1.438-3.62-3.323-3.942zm-.677 5.942c-.54 0-1.047-.214-1.428-.604-.194-.198-.453-.301-.715-.301-.199 0-.399.06-.573.181-1.355.947-3.213.947-4.568 0-.403-.281-.948-.229-1.288.12-.381.39-.888.604-1.428.604-1.103 0-2-.897-2-2s.897-2 1.913-2.005c.037.005.12.013.157.015.467.003.914-.325 1.01-.803.374-1.858 2.023-3.207 3.92-3.207s3.546 1.349 3.92 3.207c.094.468.506.803.98.803.033 0 .083-.003.14-.01 1.084.021 1.96.91 1.96 2 0 1.103-.897 2-2 2z"/><path d="m49 23c.808 0 1.578-.238 2.232-.682 1.707.896 3.828.896 5.535 0 .655.444 1.425.682 2.233.682 2.206 0 4-1.794 4-4 0-1.976-1.438-3.62-3.323-3.942-.82-2.392-3.094-4.058-5.677-4.058s-4.857 1.666-5.677 4.058c-1.885.322-3.323 1.966-3.323 3.942 0 2.206 1.794 4 4 4zm-.087-6.005c.037.005.12.013.157.015.496.005.913-.325 1.01-.803.374-1.858 2.023-3.207 3.92-3.207s3.546 1.349 3.92 3.207c.094.468.506.803.98.803.034-.001.083-.003.14-.01 1.084.021 1.96.91 1.96 2 0 1.103-.897 2-2 2-.54 0-1.047-.214-1.428-.604-.194-.198-.453-.301-.715-.301-.199 0-.399.06-.573.181-1.355.947-3.213.947-4.568 0-.402-.28-.947-.229-1.288.12-.381.39-.888.604-1.428.604-1.103 0-2-.897-2-2s.897-2 1.913-2.005z"/></svg>