<?xml version="1.0" encoding="utf-8"?>
<!-- Generator: Adobe Illustrator 21.1.0, SVG Export Plug-In . SVG Version: 6.00 Build 0)  -->
<svg version="1.1" id="Layer_3" xmlns="http://www.w3.org/2000/svg" xmlns:xlink="http://www.w3.org/1999/xlink" x="0px" y="0px"
	 viewBox="0 0 512 512" style="enable-background:new 0 0 512 512;" xml:space="preserve">
<style type="text/css">
	.st0{opacity:0.4;fill:#9061DB;}
	.st1{opacity:0.68;fill:#4DEEFF;}
</style>
<path class="st0" d="M164,72c0,17.7-14.3,32-32,32c-6.5,0-12.6-1.9-17.9-5.5c-13.7,7.2-30.6,7.2-44.3,0c-5.2,3.6-11.4,5.5-17.9,5.5
	c-17.7,0-32-14.3-32-32c0-15.8,11.5-29,26.6-31.5C53.1,21.3,71.3,8,92,8s38.9,13.3,45.4,32.5C152.5,43,164,56.2,164,72z"/>
<path class="st0" d="M340.6,126.3c0-15.8,11.5-29,26.6-31.5c6.6-19.1,24.8-32.5,45.4-32.5s38.9,13.3,45.4,32.5
	c15.1,2.6,26.6,15.7,26.6,31.5c0,17.7-14.3,32-32,32c-6.5,0-12.6-1.9-17.9-5.5c-13.7,7.2-30.6,7.2-44.3,0
	c-5.2,3.6-11.4,5.5-17.9,5.5C355,158.3,340.6,144,340.6,126.3z"/>
<path class="st0" d="M499,409h8v16h-8c-17.7,0-32,14.3-32,32v32h40v16H11v-16h40v-32c0-17.7-14.3-32-32-32h-8v-16h8
	c9.4,0,18.2,2.8,25.7,7.5c-5.6-10.2-14.4-18.4-25.8-22.9l-2.9-1.2l5.9-14.8l2.9,1.1c10.4,4.2,19.3,10.8,26.2,18.9V369h16v28.6
	c6.9-8.1,15.7-14.8,26.2-18.9l2.9-1.1l5.9,14.8l-2.9,1.2c-11.3,4.5-20.2,12.8-25.8,22.9c7.4-4.7,16.2-7.5,25.7-7.5h8v16h-8
	c-17.7,0-32,14.3-32,32v32h56V279.5c-9.3-3.3-16-12.1-16-22.5s6.7-19.2,16-22.5V209c0-4.4,3.6-8,8-8h24V9h16v83.4l76.7,43.8
	C338.6,188.1,395,285.3,395,390c0,18.5-1.8,37-5.5,55.1l-8.8,43.9H451v-32c0-17.7-14.3-32-32-32h-8v-16h8c9.4,0,18.2,2.8,25.7,7.5
	c-5.6-10.2-14.4-18.4-25.8-22.9l-2.9-1.2l5.9-14.8l2.9,1.1c10.4,4.2,19.3,10.8,26.2,18.9V369h16v28.6c6.9-8.1,15.7-14.8,26.2-18.9
	l2.9-1.1l5.9,14.8l-2.9,1.2c-11.3,4.5-20.2,12.8-25.8,22.9C480.8,411.8,489.6,409,499,409z"/>
<path class="st1" d="M174.1,70c0,17.7-14.3,32-32,32c-6.5,0-12.6-1.9-17.9-5.5c-13.7,7.2-30.6,7.2-44.3,0
	c-5.2,3.6-11.4,5.5-17.9,5.5c-17.7,0-32-14.3-32-32c0-15.8,11.5-29,26.6-31.5C63.3,19.3,81.5,6,102.1,6s38.9,13.3,45.4,32.5
	C162.6,41,174.1,54.2,174.1,70z"/>
<path class="st1" d="M350.8,124.3c0-15.8,11.5-29,26.6-31.5c6.6-19.1,24.8-32.5,45.4-32.5s38.9,13.3,45.4,32.5
	c15.1,2.6,26.6,15.7,26.6,31.5c0,17.7-14.3,32-32,32c-6.5,0-12.6-1.9-17.9-5.5c-13.7,7.2-30.6,7.2-44.3,0
	c-5.2,3.6-11.4,5.5-17.9,5.5C365.1,156.3,350.8,142,350.8,124.3z"/>
<path class="st0" d="M509.1,407h8v16h-8c-17.7,0-32,14.3-32,32v32h40v16h-496v-16h40v-32c0-17.7-14.3-32-32-32h-8v-16h8
	c9.4,0,18.2,2.8,25.7,7.5c-5.6-10.2-14.4-18.4-25.8-22.9l-2.9-1.2l5.9-14.8l2.9,1.1c10.4,4.2,19.3,10.8,26.2,18.9V367h16v28.6
	c6.9-8.1,15.7-14.8,26.2-18.9l2.9-1.1l5.9,14.8l-2.9,1.2c-11.3,4.5-20.2,12.8-25.8,22.9c7.4-4.7,16.2-7.5,25.7-7.5h8v16h-8
	c-17.7,0-32,14.3-32,32v32h56V277.5c-9.3-3.3-16-12.1-16-22.5s6.7-19.2,16-22.5V207c0-4.4,3.6-8,8-8h24V7h16v83.4l76.7,43.8
	c90.8,51.9,147.3,149.1,147.3,253.8c0,18.5-1.8,37-5.5,55.1l-8.8,43.9h70.2v-32c0-17.7-14.3-32-32-32h-8v-16h8
	c9.4,0,18.2,2.8,25.7,7.5c-5.6-10.2-14.4-18.4-25.8-22.9l-2.9-1.2l5.9-14.8l2.9,1.1c10.4,4.2,19.3,10.8,26.2,18.9V367h16v28.6
	c6.9-8.1,15.7-14.8,26.2-18.9l2.9-1.1l5.9,14.8l-2.9,1.2c-11.3,4.5-20.2,12.8-25.8,22.9C490.9,409.8,499.7,407,509.1,407z"/>
<path d="M496,424h8v-16h-8c-9.4,0-18.2,2.8-25.7,7.5c5.6-10.2,14.4-18.4,25.8-22.9l2.9-1.2l-5.9-14.8l-2.9,1.1
	c-10.4,4.2-19.2,10.8-26.2,18.9V368h-16v28.6c-6.9-8.1-15.7-14.8-26.2-18.9l-2.9-1.1l-5.9,14.8l2.9,1.2
	c11.3,4.5,20.2,12.8,25.8,22.9c-7.4-4.7-16.2-7.5-25.7-7.5h-8v16h8c17.7,0,32,14.3,32,32v32h-70.2l8.8-43.9
	c3.6-18.1,5.5-36.6,5.5-55.1c0-104.6-56.4-201.9-147.3-253.8L168,91.4V8h-16v192h-24c-4.4,0-8,3.6-8,8v25.5
	c-9.3,3.3-16,12.1-16,22.5s6.7,19.2,16,22.5V488H64v-32c0-17.7,14.3-32,32-32h8v-16h-8c-9.4,0-18.2,2.8-25.7,7.5
	c5.6-10.2,14.4-18.4,25.8-22.9l2.9-1.2L93,376.6l-2.9,1.1c-10.4,4.2-19.2,10.8-26.2,18.9V368H48v28.6c-6.9-8.1-15.7-14.8-26.2-18.9
	l-2.9-1.1L13,391.4l2.9,1.2c11.3,4.5,20.2,12.8,25.8,22.9c-7.4-4.7-16.2-7.5-25.7-7.5H8v16h8c17.7,0,32,14.3,32,32v32H8v16h496v-16
	h-40v-32C464,438.3,478.3,424,496,424z M152,488h-16V280h16V488z M152,264h-24c-4.4,0-8-3.6-8-8s3.6-8,8-8h24V264z M152,232h-16v-16
	h16V232z M200,488v-48h93.6l-72,48H200z M329.4,488h-79l72-48H339L329.4,488z M370.9,440.9l-9.4,47.1h-15.7l9.2-45.9
	c0.6-2.9,1.1-5.8,1.6-8.8c0.4-2.3-0.3-4.7-1.8-6.5s-3.7-2.8-6.1-2.8H192c-4.4,0-8,3.6-8,8v56h-16V109.8l68.8,39.3
	C322.7,198.2,376,290.1,376,389C376,406.4,374.3,423.9,370.9,440.9z"/>
<path d="M308.3,235.2c-20.4-27.3-45.5-50.1-74.8-67.6l-37.4-22.4c-2.5-1.5-5.5-1.5-8.1-0.1c-2.5,1.4-4,4.1-4,7v88c0,4.4,3.6,8,8,8
	h109.9c3,0,5.8-1.7,7.1-4.4C310.4,240.9,310.1,237.6,308.3,235.2z M200,232v-65.9l25.3,15.2c3.5,2.1,6.8,4.4,10.1,6.6L203.9,232H200
	z M223.5,232l24.8-34.8c13.4,10.3,25.8,21.8,36.9,34.8H223.5z"/>
<path d="M349.5,317.8c-5-17.1-11.8-33.8-20.2-49.5c-1.4-2.6-4.1-4.2-7.1-4.2H192c-4.4,0-8,3.6-8,8v48c0,4.4,3.6,8,8,8h149.8
	c2.5,0,4.9-1.2,6.4-3.2C349.7,322.8,350.2,320.2,349.5,317.8z M200,312v-32h83.1l-53.3,32H200z M260.9,312l53.3-32h3.1
	c5.3,10.3,9.8,21,13.5,32H260.9z"/>
<path d="M356.9,350.8c-0.6-3.9-4-6.8-7.9-6.8H192c-4.4,0-8,3.6-8,8v48c0,4.4,3.6,8,8,8h159.8c4.3,0,7.8-3.4,8-7.7
	c0.1-3.1,0.2-6.2,0.2-9.3C360,377.5,359,364,356.9,350.8z M200,392v-32h83.1l-53.3,32H200z M344,392h-83.1l53.3-32H342
	c1.3,10.2,2,20.7,2,31V392z"/>
<path d="M125.4,40.5C118.9,21.3,100.7,8,80,8S41.1,21.3,34.6,40.5C19.5,43,8,56.2,8,72c0,17.7,14.3,32,32,32
	c6.5,0,12.6-1.9,17.9-5.5c13.7,7.2,30.6,7.2,44.3,0c5.2,3.6,11.4,5.5,17.9,5.5c17.7,0,32-14.3,32-32C152,56.2,140.5,43,125.4,40.5z
	 M120,88c-4.3,0-8.4-1.7-11.4-4.8c-1.6-1.6-3.6-2.4-5.7-2.4c-1.6,0-3.2,0.5-4.6,1.5c-10.8,7.6-25.7,7.6-36.5,0
	c-3.2-2.2-7.6-1.8-10.3,1c-3,3.1-7.1,4.8-11.4,4.8c-8.8,0-16-7.2-16-16s7.2-16,15.3-16c0.3,0,1,0.1,1.3,0.1c3.7,0,7.3-2.6,8.1-6.4
	C51.6,34.8,64.8,24,80,24s28.4,10.8,31.4,25.7c0.8,3.7,4,6.4,7.8,6.4c0.3,0,0.7,0,1.1-0.1c8.7,0.2,15.7,7.3,15.7,16
	C136,80.8,128.8,88,120,88z"/>
<path d="M446.1,94.8c-6.6-19.1-24.8-32.5-45.4-32.5s-38.9,13.3-45.4,32.5c-15.1,2.6-26.6,15.7-26.6,31.5c0,17.7,14.3,32,32,32
	c6.5,0,12.6-1.9,17.9-5.5c13.7,7.2,30.6,7.2,44.3,0c5.2,3.6,11.4,5.5,17.9,5.5c17.7,0,32-14.3,32-32
	C472.6,110.5,461.1,97.4,446.1,94.8z M440.6,142.3c-4.3,0-8.4-1.7-11.4-4.8c-1.6-1.6-3.6-2.4-5.7-2.4c-1.6,0-3.2,0.5-4.6,1.5
	c-10.8,7.6-25.7,7.6-36.5,0c-3.2-2.2-7.6-1.8-10.3,1c-3,3.1-7.1,4.8-11.4,4.8c-8.8,0-16-7.2-16-16s7.2-16,15.3-16
	c0.3,0,1,0.1,1.3,0.1c4,0,7.3-2.6,8.1-6.4c3-14.9,16.2-25.7,31.4-25.7S429,89.1,432,104c0.8,3.7,4,6.4,7.8,6.4c0.3,0,0.7,0,1.1-0.1
	c8.7,0.2,15.7,7.3,15.7,16C456.6,135.2,449.5,142.3,440.6,142.3z"/>
</svg>
