<?xml version="1.0" encoding="utf-8"?>
<!-- Generator: Adobe Illustrator 21.1.0, SVG Export Plug-In . SVG Version: 6.00 Build 0)  -->
<svg version="1.1" id="Layer_1" xmlns="http://www.w3.org/2000/svg" xmlns:xlink="http://www.w3.org/1999/xlink" x="0px" y="0px"
	 viewBox="0 0 575 575" style="enable-background:new 0 0 575 575;" xml:space="preserve">
<style type="text/css">
	.st0{opacity:0.68;fill:#9061DB;}
	.st1{fill:#4DEEFF;}
</style>
<path class="st0" d="M565.9,236.5v75.2c0,14.4-8.8,27.3-22.1,32.6l-27.2,10.9h-28.8c1.5-2.9,2.6-6,3.2-9.3c0.5-2.4,0.8-4.9,0.8-7.4
	c0-17.6-12.4-32.8-29.6-36.3c-20-4.1-39.6,8.8-43.7,28.9c-1.7,8.5-0.4,17,3.2,24.2H135.7c1.5-2.9,2.6-6,3.2-9.3
	c0.5-2.4,0.8-4.9,0.8-7.4c0-17.6-12.4-32.8-29.6-36.3C90,298,70.4,311,66.3,331c-1.7,8.5-0.4,17,3.2,24.2H16.4v-84.8
	c3.6-5.8,8.7-10.7,14.8-14.3c32.3-18.4,68.8-28.3,105.9-28.7l31.8-17.3c46.1-25.1,97.8-38.3,150.4-38.3h10.9
	c44.5,0,88.5,9.4,129.1,27.8c12.3,5.5,24.2,11.8,35.7,18.9l62.9,9C562.5,228,565.9,231.9,565.9,236.5z"/>
<circle class="st1" cx="101.5" cy="348.5" r="51.9"/>
<circle class="st1" cx="449.5" cy="348.5" r="51.9"/>
<g id="surface1">
	<path d="M230.6,256.1h37.1v18.5h-37.1V256.1z"/>
	<path d="M546.9,228.4l-62.9-9c-11.5-7.1-23.4-13.4-35.7-18.9c-40.5-18.4-84.6-27.8-129.1-27.8h-10.9c-52.5,0-104.2,13.2-150.4,38.3
		l-31.8,17.3c-37.2,0.4-73.6,10.3-105.9,28.7c-6.1,3.5-11.2,8.5-14.8,14.3C1.3,277.9-1,285.7-1,293.7v55c0,5.1,4.1,9.3,9.3,9.3h31.1
		c10.1,28.9,41.7,44.1,70.6,33.9c15.9-5.6,28.4-18.1,33.9-33.9h247.5c10.1,28.9,41.7,44.1,70.6,33.9c15.9-5.6,28.4-18.1,33.9-33.9
		h3.3c1.2,0,2.3-0.2,3.4-0.7l2.8-1.1l27.2-10.9c13.4-5.3,22.1-18.2,22.1-32.6v-75.2C554.9,232.9,551.5,229,546.9,228.4z M314,191.2
		h5.2c37.3,0,74.3,7,109,20.9l-16.2,16.2H314V191.2z M166.8,227.3c39.6-21.5,83.6-33.7,128.6-35.7v36.7H165L166.8,227.3z
		 M17.5,293.7c0-8.5,4.6-16.3,11.9-20.5c30.2-17.3,64.4-26.3,99.3-26.4h166.8v92.6H147.2c0-30.7-24.9-55.6-55.6-55.6
		c-30.7,0-55.6,24.9-55.6,55.6H17.5V293.7z M84.2,375.7c-11.5-2.4-20.7-9.8-25.6-19.6c-3.7-7.2-5-15.6-3.2-24.2
		c4.1-20,23.7-33,43.7-28.9c17.3,3.5,29.6,18.7,29.6,36.3c0,2.5-0.3,5-0.8,7.4c-0.7,3.3-1.8,6.4-3.2,9.3
		C117.4,370.7,101,379.2,84.2,375.7z M436.3,375.7c-11.5-2.4-20.7-9.8-25.6-19.6c-3.7-7.2-5-15.6-3.2-24.2c4.1-20,23.7-33,43.7-28.9
		c17.3,3.5,29.6,18.7,29.6,36.3c0,2.5-0.3,5-0.8,7.4c-0.7,3.3-1.8,6.4-3.2,9.3C469.4,370.7,453,379.2,436.3,375.7z M536.3,256.1
		h-27.8v18.5h27.8v38c0,6.8-4.1,13-10.5,15.5l-26.6,10.7c0-0.9-0.1-1.7-0.2-2.6c0-0.9-0.1-1.9-0.2-2.8c-0.1-0.9-0.3-1.9-0.4-2.8
		c-0.1-0.9-0.3-1.9-0.4-2.7c-0.2-0.8-0.5-1.8-0.7-2.7c-0.2-0.9-0.4-1.8-0.7-2.6c-0.3-0.9-0.6-1.7-0.9-2.5c-0.3-0.8-0.6-1.7-0.9-2.6
		c-0.3-0.8-0.8-1.6-1.2-2.4c-0.4-0.8-0.8-1.6-1.2-2.4c-0.4-0.8-0.9-1.5-1.3-2.2c-0.4-0.7-0.9-1.6-1.4-2.3c-0.5-0.8-1-1.4-1.5-2
		c-0.5-0.7-1.1-1.5-1.7-2.2c-0.6-0.7-1.1-1.3-1.7-1.9c-0.6-0.6-1.2-1.4-1.9-2c-0.6-0.6-1.3-1.2-1.9-1.7c-0.6-0.6-1.3-1.2-2-1.9
		c-0.7-0.6-1.4-1.1-2.1-1.6c-0.7-0.5-1.4-1.1-2.2-1.6c-0.7-0.5-1.6-0.9-2.4-1.4c-0.8-0.5-1.5-0.9-2.2-1.3c-0.8-0.4-1.7-0.8-2.5-1.2
		c-0.9-0.4-1.5-0.8-2.3-1.1c-0.8-0.3-1.9-0.7-2.8-1c-0.9-0.3-1.5-0.6-2.3-0.8c-1.1-0.3-2.1-0.6-3.2-0.8c-0.7-0.2-1.4-0.4-2.1-0.5
		c-1.1-0.2-2.3-0.4-3.5-0.5c-0.7-0.1-1.3-0.2-2-0.3c-1.9-0.2-3.7-0.3-5.6-0.3c-30.7,0-55.6,24.9-55.6,55.6H314v-92.6h101.9
		c2.5,0,4.8-1,6.6-2.7l24-24c10.1,4.8,19.9,10.2,29.4,16.1c1.1,0.7,2.3,1.1,3.6,1.3l56.9,8.1V256.1z"/>
</g>
</svg>
