<?xml version="1.0" encoding="utf-8"?>
<!-- Generator: Adobe Illustrator 21.1.0, SVG Export Plug-In . SVG Version: 6.00 Build 0)  -->
<svg version="1.1" id="Capa_1" xmlns="http://www.w3.org/2000/svg" xmlns:xlink="http://www.w3.org/1999/xlink" x="0px" y="0px"
	 viewBox="0 0 512 512" style="enable-background:new 0 0 512 512;" xml:space="preserve">
<style type="text/css">
	.st0{fill:#4DEEFF;}
	.st1{opacity:0.68;fill:#9061DB;}
</style>
<path class="st0" d="M99.8,190.7L80.3,403.8c-0.8,9.2-5.2,17.4-12.4,23.2c-6.1,4.9-13.4,7.5-21.1,7.5c-1.4,0-2.8-0.1-4.2-0.3l-0.2,0
	c-9.1-1.1-17.2-5.7-22.7-13c-5.6-7.3-7.9-16.3-6.5-25.4c0,0,0,0,0-0.1l33-212.2c-0.6-0.3-1.3-0.7-1.9-1.1L99.8,190.7z"/>
<path class="st0" d="M506.8,417.2c-0.3,1-0.7,2-1.2,3c-0.4,1-0.9,1.9-1.4,2.8c-5,8.7-13.9,15.1-24.6,16.4c-1.4,0.2-2.7,0.2-4,0.2
	c-15.4,0-28.8-10.8-32.1-25.9c-0.2-1-0.4-2-0.5-3.1l-13.2-107.9l65.6-6.2l13,106.1C508.9,407.7,508.3,412.6,506.8,417.2z"/>
<path class="st1" d="M402.3,263.8c0,81-65.9,146.9-146.9,146.9c-81,0-146.9-65.9-146.9-146.9c0-81,65.9-146.9,146.9-146.9
	S402.3,182.8,402.3,263.8z"/>
<g>
	<g>
		<path d="M255.4,116.9c-81,0-146.9,65.9-146.9,146.9c0,81,65.9,146.9,146.9,146.9c81,0,146.9-65.9,146.9-146.9
			C402.3,182.8,336.4,116.9,255.4,116.9z M255.4,391.3c-70.3,0-127.5-57.2-127.5-127.5c0-70.3,57.2-127.5,127.5-127.5
			c70.3,0,127.5,57.2,127.5,127.5C382.9,334.1,325.7,391.3,255.4,391.3z"/>
	</g>
</g>
<g>
	<g>
		<path d="M342.3,216.4c-2.6-4.7-8.5-6.4-13.2-3.9c-0.2,0.1-0.3,0.2-0.5,0.3c-4.3,2.7-5.9,8.3-3.4,12.9c6.3,11.6,9.7,24.8,9.7,38.1
			c0,43.9-35.7,79.6-79.6,79.6c-43.9,0-79.6-35.7-79.6-79.6c0-43.9,35.7-79.6,79.6-79.6c4.2,0,8.4,0.3,12.6,1
			c5.1,0.8,9.9-2.5,11-7.5c0-0.2,0.1-0.3,0.1-0.5c0.8-5.3-2.8-10.3-8.1-11.1c-5.1-0.8-10.4-1.2-15.6-1.2c-54.6,0-99,44.4-99,99
			s44.4,99,99,99s99-44.4,99-99C354.4,247.3,350.2,230.9,342.3,216.4z"/>
	</g>
</g>
<g>
	<g>
		<path d="M317.3,182.8c-0.4-0.4-0.9-0.9-1.5-1.2c-0.5-0.3-1.1-0.6-1.7-0.9c-0.6-0.2-1.2-0.4-1.8-0.6c-1.3-0.3-2.5-0.3-3.8,0
			c-0.6,0.1-1.2,0.3-1.8,0.6c-0.6,0.2-1.1,0.5-1.7,0.9c-0.5,0.3-1,0.8-1.5,1.2c-0.4,0.4-0.8,0.9-1.2,1.5c-0.3,0.5-0.6,1.1-0.9,1.7
			c-0.2,0.4-0.3,0.7-0.4,1.1c-0.1,0.2-0.1,0.5-0.2,0.7c-0.1,0.6-0.2,1.3-0.2,1.9c0,0.6,0.1,1.3,0.2,1.9c0.1,0.6,0.3,1.2,0.6,1.8
			c0.2,0.6,0.5,1.1,0.9,1.7c0.4,0.5,0.8,1,1.2,1.5c0.5,0.4,0.9,0.9,1.5,1.2c0.5,0.3,1.1,0.6,1.7,0.9c0.6,0.2,1.2,0.4,1.8,0.6
			c0.6,0.1,1.3,0.2,1.9,0.2s1.3-0.1,1.9-0.2c0.6-0.1,1.2-0.3,1.8-0.6c0.5-0.2,1-0.5,1.4-0.8c0.1,0,0.2-0.1,0.2-0.1
			c0.5-0.4,1-0.8,1.5-1.2c0.4-0.4,0.9-0.9,1.2-1.5c0.3-0.5,0.6-1.1,0.9-1.7c0.2-0.6,0.4-1.2,0.6-1.8c0.1-0.6,0.2-1.3,0.2-1.9
			C320.2,187.1,319.1,184.6,317.3,182.8z"/>
	</g>
</g>
<g>
	<g>
		<path d="M503,402.6l-13-106.1l-18.4-150c-2.2-17.8-7.8-34.8-16.6-50.4c-5.4-9.6-12-18.5-19.6-26.5l-0.9-0.9
			c-6.5-6.8-16.1-8.6-24.6-4.6c-8.5,4-13.2,12.6-12.1,21.9l26.6,216.7l13.2,107.9c0.1,1,0.3,2.1,0.5,3.1
			c3.3,15.1,16.8,25.9,32.1,25.9c1.3,0,2.7-0.1,4-0.2c10.7-1.3,19.6-7.7,24.6-16.4c0.5-0.9,1-1.9,1.4-2.8c0.4-1,0.8-2,1.2-3
			C503,412.6,503.6,407.7,503,402.6z M417,83.7c0-0.4-0.2-1.4,1.1-2c0.4-0.2,0.7-0.2,0.9-0.2c0.7,0,1.2,0.5,1.3,0.7l0.8,0.9
			c6.5,6.9,12.2,14.5,16.8,22.7c7.6,13.4,12.4,27.9,14.3,43.2l16.8,136.4l-26.9,3.3L417,83.7z M482.9,411.6c-1.8,4.5-5.9,7.9-11,8.5
			c-7.4,0.9-14.2-4.4-15.1-11.8L444.5,308l26.9-3.3L483.7,405C484,407.3,483.7,409.5,482.9,411.6z"/>
	</g>
</g>
<g>
	<g>
		<path d="M126.5,71.4c-5.3-0.7-10.2,3.1-10.8,8.4l-8.8,71.8c-1.4,11.2-10.4,19.6-21.6,20.3l-6.4-0.8l11.6-94.4
			c0.6-5.3-3.1-10.1-8.4-10.8c-5.3-0.6-10.1,3.1-10.8,8.4l-11.6,94.4l-6.4-0.8c-10.7-3.4-17.4-13.7-16.1-24.9L46,71.3
			c0.6-5.3-3.1-10.1-8.4-10.8c-5.3-0.7-10.1,3.1-10.8,8.4l-8.8,71.8c-2.1,17.2,6.2,33.4,20.5,41.8c0.6,0.4,1.3,0.7,1.9,1.1
			l-33,212.2c0,0,0,0,0,0.1c-1.3,9.1,1,18.1,6.5,25.4c5.6,7.3,13.6,11.9,22.7,13l0.2,0c1.4,0.2,2.8,0.3,4.2,0.3
			c7.7,0,15-2.6,21.1-7.5c7.2-5.8,11.6-14,12.4-23.2L94,190.7l0-0.5c17-4.1,29.9-18.2,32.1-36.2l8.8-71.8
			C135.6,76.9,131.8,72,126.5,71.4z M55.2,402.1c-0.4,3.9-2.2,7.4-5.3,9.9c-3.1,2.5-6.9,3.6-10.8,3.1l-0.2,0
			c-3.9-0.5-7.3-2.4-9.7-5.6c-2.4-3.1-3.4-6.9-2.8-10.8l32.7-210.4l7.6,0.9c0,0,0,0,0,0l7.6,0.9L55.2,402.1z"/>
	</g>
</g>
</svg>
