<?xml version="1.0" encoding="utf-8"?>
<!-- Generator: Adobe Illustrator 21.1.0, SVG Export Plug-In . SVG Version: 6.00 Build 0)  -->
<svg version="1.1" id="Capa_1" xmlns="http://www.w3.org/2000/svg" xmlns:xlink="http://www.w3.org/1999/xlink" x="0px" y="0px"
	 viewBox="0 0 480 480" style="enable-background:new 0 0 480 480;" xml:space="preserve">
<style type="text/css">
	.st0{fill:#4DEEFF;}
	.st1{opacity:0.68;fill:#9061DB;}
</style>
<circle class="st0" cx="163.1" cy="33.2" r="25.8"/>
<circle class="st0" cx="73.6" cy="34.4" r="25.8"/>
<circle class="st0" cx="408.1" cy="265.6" r="55.5"/>
<path class="st1" d="M234.2,164.3v15.9c0,47.7-35,89.8-84,102.4v19.2c0,22.5-11.8,30.6-22.9,30.6v13c0,3.8,0.2,7.5,0.7,11.2h-15.4
	c-0.4-3.7-0.6-7.4-0.6-11.2v-13c-11.1,0-22.9-8-22.9-30.6v-19.2C40,270.1,5,228,5,180.2v-15.9h15.3v-8.5h15.3v8.5h22.9v16.2
	c0.6,26.6,18.4,49.6,43.9,57c13.7,4.3,28.4,4.3,42,0c25.6-7.3,43.4-30.4,44-57v-16.2h15.3l0-8.5h15.3l0,8.5H234.2z"/>
<g>
	<g>
		<path d="M457.9,256.1c-0.5-3.5-1.3-6.8-2.4-10c-5.2-14.9-16.7-26.7-31.4-32.3c-3.7-1.4-7.5-2.4-11.5-3v-13.9
			c0-38.3-29.1-69.5-64.9-69.5c-34.8,0-63.9,30.3-64.9,67.4h0.4l-0.4,0.1v150.6c0,48.1-36,87.2-80.2,87.2c-40.8,0-74.5-33.2-79.6-76
			c-0.4-3.7-0.7-7.4-0.7-11.2v-13c11.1,0,22.9-8,22.9-30.6v-19.2c49-12.5,84-54.7,84-102.4v-15.9h-15.3l0-8.5l-0.3-91
			c-0.1-18.4-13.3-34.1-31.4-37.4c-3.9-12-16.8-18.5-28.7-14.6c-12,3.9-18.5,16.8-14.6,28.7c3.9,12,16.8,18.5,28.8,14.6
			c6.4-2.1,11.6-6.9,14.1-13.2c9.8,2.8,16.6,11.7,16.6,21.9l0.3,90.9l0,8.5h-15.3v16.2c-0.6,26.6-18.4,49.7-44,57
			c-13.7,4.3-28.3,4.3-42,0c-25.5-7.4-43.3-30.5-43.9-57v-16.2H30.6V65c0-10.3,7-19.4,17-22c4.7,11.8,18,17.7,29.9,13
			c11.8-4.7,17.7-18,13-29.9c-4.6-11.8-18-17.7-29.8-13c-6.4,2.5-11.4,7.8-13.5,14.3c-18.3,3.1-31.7,19-31.8,37.6v99.3H0v15.9
			c0,47.8,35,89.9,84,102.4v19.2c0,22.5,11.8,30.6,22.9,30.6v13c0,3.8,0.2,7.5,0.6,11.2c5.2,51.3,45.8,91.3,94.9,91.3
			c52.7,0,95.5-46,95.5-102.5V195.3c0.8-29,23.1-52.6,49.7-52.6c27.4,0,49.7,24.3,49.7,54.2v13.9c-4,0.6-7.9,1.6-11.5,3
			c-16.8,6.4-29.2,20.9-33,38.2c-1.4,6.2-1.7,12.7-0.8,19.4c0.2,1.4,0.4,2.8,0.8,4.1c3.9,17.7,16.4,31.6,32.3,37.9
			c8.4,3.4,17.9,4.7,27.5,3.3c4.3-0.6,8.4-1.7,12.2-3.3c14.5-5.8,25.6-17.6,30.6-32C458.2,273.5,459.2,264.9,457.9,256.1z
			 M160.5,42.1c-4.2,0-7.6-3.4-7.6-7.6c0-4.2,3.4-7.6,7.6-7.6s7.6,3.4,7.6,7.6C168.1,38.7,164.7,42.1,160.5,42.1z M68.8,26.8
			c4.2,0,7.6,3.4,7.6,7.6c0,4.2-3.4,7.6-7.6,7.6s-7.6-3.4-7.6-7.6C61.1,30.2,64.5,26.8,68.8,26.8z M15.3,180.2v-0.6h22.9v0.9
			c0.6,33.2,22.7,62.2,54.5,71.5c16.7,5.3,34.6,5.3,51.3,0c31.9-9.3,54-38.3,54.6-71.5v-0.9h15.3v0.6c0,42.5-32.8,79.9-77.9,89
			c-10.6,2.1-21.5,2.7-32.2,1.6c-3.5-0.3-7.1-0.9-10.6-1.6C48,260.1,15.3,222.7,15.3,180.2z M107,317.1c-6.9,0-7.6-10.7-7.6-15.3
			v-16.2c0.6,0.1,1.2,0.1,1.9,0.2c0.8,0.1,1.5,0.2,2.3,0.2c3.6,0.3,7.3,0.5,10.9,0.5h0.4c3.7,0,7.3-0.2,10.9-0.5
			c0.8-0.1,1.6-0.1,2.4-0.2c0.6-0.1,1.2-0.1,1.8-0.2v16.2c0,4.6-0.8,15.3-7.6,15.3H107z M405,301.9c-21.1,0-38.2-17.1-38.2-38.2
			c0-21.1,17.1-38.2,38.2-38.2c21.1,0,38.2,17.1,38.2,38.2C443.1,284.8,426,301.8,405,301.9z"/>
	</g>
</g>
<g>
	<g>
		<path d="M405,240.7c-12.7,0-22.9,10.3-22.9,22.9c0,12.7,10.3,22.9,22.9,22.9s22.9-10.3,22.9-22.9C427.9,251,417.6,240.7,405,240.7
			z M405,271.3c-4.2,0-7.6-3.4-7.6-7.6c0-4.2,3.4-7.6,7.6-7.6s7.6,3.4,7.6,7.6C412.6,267.9,409.2,271.3,405,271.3z"/>
	</g>
</g>
</svg>
