<?xml version="1.0" encoding="utf-8"?>
<!-- Generator: Adobe Illustrator 21.1.0, SVG Export Plug-In . SVG Version: 6.00 Build 0)  -->
<svg version="1.1" id="Capa_1" xmlns="http://www.w3.org/2000/svg" xmlns:xlink="http://www.w3.org/1999/xlink" x="0px" y="0px"
	 viewBox="0 0 480 480" style="enable-background:new 0 0 480 480;" xml:space="preserve">
<style type="text/css">
	.st0{opacity:0.68;fill:#9061DB;}
	.st1{fill:#4DEEFF;}
</style>
<path class="st0" d="M344,160h-24v88c0,4.4-3.6,8-8,8H168c-4.4,0-8-3.6-8-8v-88h-24c-2.5,0-4.8-1.2-6.3-3.1c-2.7-3.5-2-8.5,1.5-11.2
	l104-80c2.9-2.2,6.9-2.2,9.8,0l104,80c2,1.5,3.1,3.9,3.1,6.3C352,156.4,348.4,160,344,160z"/>
<path class="st0" d="M249,0C151.8,0,73,78.8,73,176c0,94.6,162.9,292.7,169.8,301.1c1.5,1.8,3.8,2.9,6.2,2.9s4.7-1.1,6.2-2.9
	C262.1,468.7,425,270.6,425,176C425,78.8,346.2,0,249,0z"/>
<path class="st1" d="M359,152c0,4.4-3.6,8-8,8h-24v88c0,4.4-3.6,8-8,8H175c-4.4,0-8-3.6-8-8v-88h-24c-2.5,0-4.8-1.2-6.3-3.1
	c-2.7-3.5-2-8.5,1.5-11.2l104-80c2.9-2.2,6.9-2.2,9.8,0l104,80C357.8,147.2,359,149.5,359,152z"/>
<g>
	<g>
		<g>
			<path d="M240,0C142.8,0,64,78.8,64,176c0,94.6,162.9,292.7,169.8,301.1c1.5,1.8,3.8,2.9,6.2,2.9s4.7-1.1,6.2-2.9
				C253.1,468.7,416,270.6,416,176C416,78.8,337.2,0,240,0z M240,459.3C209.9,421.7,80,255,80,176c0.1-88.3,71.7-159.9,160-160
				c88.3,0.1,159.9,71.7,160,160C400,255,270.1,421.7,240,459.3z"/>
			<path d="M348.9,145.7l-104-80c-2.9-2.2-6.9-2.2-9.8,0l-104,80c-3.5,2.7-4.2,7.7-1.5,11.2c1.5,2,3.9,3.1,6.3,3.1h24v88
				c0,4.4,3.6,8,8,8h144c4.4,0,8-3.6,8-8v-88h24c4.4,0,8-3.6,8-8C352,149.5,350.8,147.2,348.9,145.7z M256,240h-32v-48h32V240z
				 M312,144c-4.4,0-8,3.6-8,8v88h-32v-56c0-4.4-3.6-8-8-8h-48c-4.4,0-8,3.6-8,8v56h-32v-88c0-4.4-3.6-8-8-8h-8.5L240,82.1
				l80.5,61.9H312z"/>
		</g>
	</g>
</g>
</svg>
