<svg height="512pt" viewBox="0 -77 512.0071 512" width="512pt" xmlns="http://www.w3.org/2000/svg"><path d="m499.914062 248.25c-24.757812-33.34375-57.621093-59.808594-95.480468-76.886719-19.164063-8.214843-38.398438-15.5625-55.703125-21.785156-.128907-.230469-.144531-.484375-.292969-.707031-12.984375-18.765625-27.621094-36.335938-43.730469-52.496094-3.351562-3.234375-8.671875-3.1875-11.964843.101562-3.289063 3.292969-3.335938 8.613282-.101563 11.964844 9.859375 9.921875 19.148437 20.394532 27.824219 31.367188-21.671875-7.203125-36.222656-11.390625-36.511719-11.476563-2.054687-.589843-4.25-.382812-6.160156.570313l-13.910157 6.953125-22.246093-7.40625c-4.476563-1.488281-9.316407.933593-10.804688 5.410156s.933594 9.316406 5.410157 10.804687l25.601562 8.53125c2.140625.730469 4.488281.570313 6.511719-.449218l14.105469-7.074219c5.886718 1.707031 19.625 5.921875 37.546874 11.945313-5.292968 7.5-10.992187 14.710937-17.070312 21.589843h-27.363281c-2.492188 0-4.96875.359375-7.355469 1.074219l-73.738281 22.128906c-4.449219 1.339844-9.1875 1.367188-13.652344.082032l-87.074219-24.882813c-5.871094-59.324219-20.453125-117.460937-43.28125-172.535156-1.914062-4.304688-6.957031-6.246094-11.265625-4.332031-4.304687 1.910156-6.246093 6.953124-4.332031 11.261718.058594.128906 1.117188 2.5625 2.789062 6.726563l-.113281.050781-34.132812 25.597656c-2.730469 2.050782-3.976563 5.527344-3.167969 8.84375s3.515625 5.832032 6.882812 6.398438l47.367188 7.894531c10.355469 34.28125 17.5625 69.433594 21.53125 105.027344l-4.269531-1.222657c-1.523438-.433593-3.097657-.652343-4.683594-.648437h-22.410156c-9.695313-.03125-18.566407 5.453125-22.875 14.140625l-3.191407 6.382812-13.65625 13.449219c-4.046874 4.070313-5.769531 9.90625-4.574218 15.523438l6.769531 30.496093c-4.453125 3.144532-7.109375 8.246094-7.1328125 13.695313v17.425781c.0234375 7.464844 4.9570315 14.027344 12.1249995 16.121094l30.769532 43.082031c-10.367188-.3125-20.570313-2.6875-30.011719-6.988281-4.042969-2.304688-9.191406-.941406-11.5625 3.0625-2.375 4.003906-1.101563 9.171875 2.859375 11.617188 14.480469 6.792968 30.34375 10.121093 46.335938 9.726562 18.503906.542969 36.71875-4.691406 52.113281-14.976562 16.96875 10.355468 36.578125 15.558593 56.449219 14.976562 15.574218.183594 31.058593-2.417969 45.71875-7.679688 14.671874 5.265626 30.167968 7.867188 45.757812 7.679688 19.949219.601562 39.640625-4.648438 56.644531-15.105469 17.015625 10.457031 36.714844 15.707031 56.675781 15.105469 15.53125.164062 30.96875-2.4375 45.585938-7.679688 13.421875 5.222657 27.71875 7.828126 42.121094 7.679688 20.890625.816406 41.359375-6.03125 57.558594-19.25 2.277343-2.027344 3.300781-5.117188 2.683593-8.101562-.617187-2.988282-2.78125-5.417969-5.675781-6.375-2.894531-.957032-6.082031-.300782-8.359375 1.726562-5.976563 5.128906-12.988281 8.914062-20.554687 11.09375 9.496093-12.339844 17.488281-25.769531 23.808593-40.003906 6.558594-2.453125 10.921875-8.707032 10.957031-15.710938v-17.425781c-.03125-7.449219-4.945312-14-12.09375-16.109375zm-470.296874-202.164062 14.328124-10.742188c1.5 4.179688 3.113282 8.8125 4.8125 13.941406zm-12.542969 235.699218-.179688-17.246094h.179688l119.25-.042968c.078125 0 .148437.042968.222656.042968.078125 0 .144531-.042968.222656-.042968h33.628907c.101562 0 .179687.0625.28125.0625.640624 0 1.265624-.050782 1.90625-.0625l320.929687-.109375c.46875.089843.945313.140625 1.421875.152343v17.066407zm380.636719-94.71875c30.761718 13.917969 58.007812 34.5625 79.734374 60.40625h-233.8125c26.414063-13.238281 50.027344-31.445312 69.546876-53.621094.078124-.078124.136718-.164062.210937-.242187 8.527344-9.472656 16.335937-19.5625 23.375-30.1875 18.527344 6.550781 39.773437 14.554687 60.945313 23.625zm-353.042969.671875h22.410156l109.097656 31.175781c7.589844 2.167969 15.644531 2.113282 23.203125-.15625l73.738282-22.125c.796874-.234374 1.625-.355468 2.457031-.359374h10.957031c-26.660156 25.222656-66.144531 51.199218-115.859375 51.199218h-30.601563l-31.632812-31.632812c-.9375-.933594-2.078125-1.636719-3.335938-2.054688l-67.371093-22.460937c1.589843-2.257813 4.179687-3.59375 6.9375-3.585938zm-16.792969 18.28125 69.921875 23.3125 18.144531 18.140625h-92.042968l-6.902344-30.71875zm284.707031 120.164063c-.238281-.144532-.488281-.277344-.742187-.390625-.464844-.3125-.957032-.570313-1.476563-.777344-1-.421875-2.074219-.632813-3.15625-.613281-1.082031-.019532-2.152343.1875-3.148437.605468-.539063.210938-1.050782.480469-1.527344.800782-.25.113281-.492188.242187-.726562.382812-28.101563 22.886719-80.058594 14.636719-92.945313 7.683594-.257813-.136719-.539063-.136719-.792969-.25-1.023437-.4375-2.121094-.664062-3.234375-.664062-.554687-.003907-1.105469.046874-1.648437.152343-.5625.113281-1.109375.28125-1.636719.503907-.265625.121093-.554687.109374-.855469.257812-14.546875 7.875-65.125 14.957031-92.960937-7.683594-.289063-.175781-.589844-.332031-.894531-.476562-.472657-.3125-.976563-.574219-1.503907-.785156-.5-.183594-1.015625-.316407-1.542969-.398438-.535156-.101562-1.078124-.148438-1.621093-.148438-1.074219.058594-2.132813.289063-3.132813.683594-.519531.234375-1.015625.519532-1.476562.855469-.292969.152344-.578125.324219-.851563.511719-9.480469 7.828125-21.066406 12.664062-33.296875 13.898437l-29.757812-41.660156h447.933594c-7.527344 16.273437-18.410157 30.765625-31.933594 42.53125-12.28125.222656-24.460938-2.238281-35.695313-7.203125-.304687-.128906-.617187-.242188-.9375-.339844-1.53125-.671875-3.226562-.898437-4.882812-.648437-.585938.117187-1.15625.292969-1.707031.527343-.3125.074219-.621094.167969-.917969.28125-14.515625 7.894532-65.09375 14.976563-92.929688-7.636718zm0 0"/></svg>