<?xml version="1.0" encoding="utf-8"?>
<!-- Generator: Adobe Illustrator 21.1.0, SVG Export Plug-In . SVG Version: 6.00 Build 0)  -->
<svg version="1.1" id="Layer_1" xmlns="http://www.w3.org/2000/svg" xmlns:xlink="http://www.w3.org/1999/xlink" x="0px" y="0px"
	 viewBox="0 0 512 512" style="enable-background:new 0 0 512 512;" xml:space="preserve">
<style type="text/css">
	.st0{fill:#4DEEFF;}
	.st1{opacity:0.68;fill:#9061DB;enable-background:new    ;}
</style>
<rect x="33.9" y="108.4" transform="matrix(0.9956 9.368246e-02 -9.368246e-02 0.9956 11.5412 -4.133)" class="st0" width="31.8" height="24.9"/>
<path class="st0" d="M482,436.9H30c-7.9,0-14.4-6.4-14.4-14.4v0c0-7.9,6.4-14.4,14.4-14.4H482c7.9,0,14.4,6.4,14.4,14.4v0
	C496.4,430.4,489.9,436.9,482,436.9z"/>
<path class="st1" d="M486.5,395.4c-1.6,2.3-3.2,4.5-4.9,6.7c7.3-2.1,14-5.7,19.7-10.7c0.7-0.6,1.5-1.1,2.3-1.5
	c1.2-0.5,2.5-0.7,3.9-0.6v17.8c-14.7,10.4-32.5,15.6-50.6,14.9c-6.2,0.1-12.5-0.4-18.6-1.4c0,0,0,0-0.1,0c-7.4-1.2-14.8-3.2-21.8-6
	c-0.9,0.3-1.8,0.6-2.6,0.9c-13.2,4.4-27.2,6.6-41.1,6.5c-6.4,0.2-12.8-0.2-19.1-1.3c-12.5-2.1-24.4-6.5-35.3-13.2
	c-1,0.6-2,1.2-3.1,1.8c-15.6,8.8-33.4,13.2-51.3,12.7c-7.1,0.1-14.1-0.4-21.1-1.5c-7.8-1.2-15.4-3.2-22.9-5.8
	c-0.8,0.3-1.6,0.6-2.4,0.8c-13.4,4.5-27.4,6.7-41.5,6.5c-6.4,0.2-12.8-0.2-19.1-1.3c-12.4-2.1-24.3-6.5-35.1-13.1
	c-1,0.6-2,1.3-3,1.9c-14.1,8.6-30.5,13-47.1,12.5c-6.3,0.2-12.6-0.3-18.8-1.3c-8.9-1.5-17.5-4.2-25.7-8c-3.8-2.3-5-7.3-2.8-11.2
	c1-1.7,2.5-2.9,4.2-3.5c2.2-0.8,4.7-0.7,7,0.5c5.7,2.6,11.6,4.4,17.7,5.5c0,0,0,0,0,0c3.7,0.7,7.3,1,11.1,1.2L35,364
	c-6.9-2-11.6-8.3-11.6-15.5v-16.7c0-5.2,2.6-10.1,6.8-13.2l-6.5-29.3c-1.1-5.4,0.5-11,4.4-14.9l13.1-12.9l3.1-6.1
	c4.1-8.3,12.7-13.6,22-13.6h21.5c0.2,0,0.3,0,0.5,0c1.3,0,2.7,0.2,4,0.6l4.1,1.2c-0.5-4.3-1-8.5-1.6-12.8h8.7
	c0.7,5.5,1.3,11.1,1.9,16.6l83.6,23.9c2.5,0.7,5,1,7.5,0.9l0.5,0.1c4.3,1.2,8.8,1.2,13.1-0.1l70.8-21.2c2.3-0.7,4.7-1,7.1-1h26.3
	c5.4-6.1,10.5-12.5,15.3-19.2h53.6c9.4,3.6,19,7.5,28.6,11.6c36.3,16.4,67.9,41.8,91.7,73.8c1.5,0.4,2.9,1.1,4.2,1.9v43.8
	c-1,0.6-2,1.1-3.1,1.5C499.5,374.8,493.5,385.4,486.5,395.4z"/>
<path d="M496.6,361.1c4.5-2.9,7.4-8,7.4-13.5v-16.7c0-5.6-2.9-10.7-7.4-13.6c-1.3-0.8-2.7-1.5-4.2-1.9c-23.8-32-55.3-57.4-91.7-73.8
	c-8.7-3.7-17.5-7.3-26-10.6c-0.9-0.3-1.7-0.7-2.6-1c-8.6-3.3-17-6.4-24.9-9.3c-0.1-0.2-0.1-0.5-0.3-0.7c-12.5-18-26.5-34.9-42-50.4
	c-3.2-3.1-8.3-3.1-11.5,0.1c-3.2,3.2-3.2,8.3-0.1,11.5c9.5,9.5,18.4,19.6,26.7,30.1c-20.8-6.9-34.8-10.9-35.1-11
	c-2-0.6-4.1-0.4-5.9,0.6l-13.4,6.7l-21.4-7.1c-4.3-1.4-9,0.9-10.4,5.2c-1.4,4.3,0.9,8.9,5.2,10.4l24.6,8.2c2.1,0.7,4.3,0.6,6.2-0.4
	l13.6-6.8c5.6,1.6,18.8,5.7,36,11.5c-0.4,0.5-0.8,1.1-1.1,1.6c-4.8,6.6-9.9,13-15.3,19.2H277c-2.4,0-4.8,0.3-7.1,1l-70.8,21.2
	c-1.8,0.5-3.7,0.9-5.6,1c-2.5,0.1-5.1-0.2-7.5-0.9l-83.6-23.9c-0.5-5.5-1.2-11.1-1.9-16.6c0-0.3-0.1-0.7-0.1-1
	c-6.6-50.8-19.9-100.6-39.5-148.1c-1.8-4.1-6.7-6-10.8-4.2c-4.1,1.8-6,6.7-4.2,10.8c0.1,0.1,1.1,2.5,2.7,6.5l-0.1,0l-32.8,24.6
	c-2.6,2-3.8,5.3-3,8.5c0.8,3.2,3.4,5.6,6.6,6.1l45.5,7.6c8.7,28.8,15.1,58.3,19.1,88.1c0.5,4,1,8,1.5,12c0,0.3,0.1,0.5,0.1,0.8
	l-2.8-0.8l-1.3-0.4c-1.5-0.4-3-0.6-4.5-0.6H55.3c-9.3,0-17.8,5.2-22,13.6l-3.1,6.1l-13.1,12.9c-3.9,3.9-5.5,9.5-4.4,14.9l6.5,29.3
	c-4.3,3-6.8,7.9-6.8,13.2v16.7c0,7.2,4.8,13.5,11.6,15.5l29.5,41.4c-1,0-2-0.1-3.1-0.2c0,0,0,0,0,0c-8.5-0.6-16.9-2.7-24.7-6.1
	c-0.3-0.1-0.7-0.3-1-0.5c-3.9-2.2-8.8-0.9-11.1,2.9c-2.3,3.8-1,8.8,2.8,11.2c10.6,5,22.1,8,33.7,9c3.6,0.3,7.2,0.4,10.8,0.3
	c17.8,0.5,35.3-4.5,50-14.4c1.7,1,3.3,2,5,2.9c11.8,6.3,24.8,10.1,38.1,11.2c3.7,0.3,7.4,0.4,11.1,0.3c15,0.2,29.8-2.3,43.9-7.4
	c1.8,0.7,3.7,1.3,5.6,1.8c8.2,2.5,16.7,4.2,25.3,5c4.3,0.4,8.7,0.6,13.1,0.5c19.1,0.6,38.1-4.5,54.4-14.5c1.6,1,3.2,1.9,4.9,2.8
	c11.9,6.4,25,10.3,38.4,11.4c3.7,0.3,7.4,0.4,11.1,0.3c14.9,0.1,29.7-2.3,43.8-7.4c1.8,0.7,3.6,1.3,5.4,1.9c7.9,2.6,16.1,4.3,24.5,5
	c0,0,0,0,0.1,0c3.5,0.3,7,0.5,10.6,0.4c18.1,0.7,35.9-4.6,50.6-14.9c1.6-1.1,3.2-2.3,4.7-3.6c2.2-1.9,3.2-4.9,2.6-7.8
	c-0.4-2-1.5-3.7-3.1-4.9c-0.7-0.5-1.5-0.9-2.3-1.2c-0.6-0.2-1.2-0.3-1.8-0.4c-2.2-0.2-4.5,0.5-6.2,2c-2.1,1.8-4.4,3.5-6.8,5
	c-4,2.5-8.4,4.4-12.9,5.7c9.1-11.9,16.8-24.7,22.9-38.4C494.6,362.2,495.6,361.7,496.6,361.1z M40.8,121.2l13.8-10.3
	c1.4,4,3,8.5,4.6,13.4L40.8,121.2z M394.2,256.6L394.2,256.6c29.5,13.4,55.7,33.2,76.6,58H246.3c25.4-12.7,48-30.2,66.8-51.5
	c0.1-0.1,0.1-0.2,0.2-0.2c8.2-9.1,15.7-18.8,22.4-29C353.5,240.2,373.9,247.9,394.2,256.6z M181.5,287.2c7.3,2.1,15,2,22.3-0.2
	l70.8-21.2c0.8-0.2,1.6-0.3,2.4-0.3h10.5c-25.6,24.2-63.5,49.2-111.2,49.2h-29.4l-30.4-30.4c-0.9-0.9-2-1.6-3.2-2l-64.7-21.6
	c1.5-2.2,4-3.5,6.7-3.4h21.5L181.5,287.2z M123.7,314.6H35.3l-6.6-29.5l10.4-10.3l67.1,22.4L123.7,314.6z M444.1,404.6
	c-11.8,0.2-23.5-2.2-34.3-6.9c-0.3-0.1-0.6-0.2-0.9-0.3c-1.5-0.7-3.1-0.9-4.7-0.6c-0.6,0.1-1.1,0.3-1.6,0.5
	c-0.3,0.1-0.6,0.2-0.9,0.3c-13.9,7.6-62.5,14.4-89.2-7.3c-0.2-0.1-0.5-0.3-0.7-0.4c-0.5-0.3-0.9-0.5-1.4-0.8c-1-0.4-2-0.6-3-0.6
	c-1,0-2.1,0.2-3,0.6c-0.5,0.2-1,0.5-1.5,0.8c-0.2,0.1-0.5,0.2-0.7,0.4c-27,22-76.9,14.1-89.2,7.4c-0.2-0.1-0.5-0.1-0.8-0.2
	c-1-0.4-2-0.6-3.1-0.6c-0.5,0-1.1,0-1.6,0.1c-0.5,0.1-1.1,0.3-1.6,0.5c-0.2,0.1-0.5,0.1-0.8,0.2c-14,7.6-62.5,14.4-89.3-7.4
	c-0.3-0.2-0.6-0.3-0.9-0.5c-0.5-0.3-0.9-0.6-1.4-0.8c-0.5-0.2-1-0.3-1.5-0.4c-0.5-0.1-1-0.1-1.6-0.1c-1,0.1-2,0.3-3,0.7
	c-0.5,0.2-1,0.5-1.4,0.8c-0.3,0.1-0.5,0.3-0.8,0.5c-9.1,7.5-20.2,12.2-32,13.3l-28.6-40h430.1C467.6,379.4,457.1,393.3,444.1,404.6z
	 M487.6,347.4l-458.8,0.2L28.6,331h0.2l114.5,0c0.1,0,0.1,0,0.2,0c0.1,0,0.1,0,0.2,0H176c0.1,0,0.2,0.1,0.3,0.1
	c0.6,0,1.2-0.1,1.8-0.1l308.1-0.1c0.5,0.1,0.9,0.1,1.4,0.1V347.4z"/>
</svg>
