<?xml version="1.0" encoding="utf-8"?>
<!-- Generator: Adobe Illustrator 21.1.0, SVG Export Plug-In . SVG Version: 6.00 Build 0)  -->
<svg version="1.1" id="Layer_1" xmlns="http://www.w3.org/2000/svg" xmlns:xlink="http://www.w3.org/1999/xlink" x="0px" y="0px"
	 viewBox="0 0 512 512" style="enable-background:new 0 0 512 512;" xml:space="preserve">
<style type="text/css">
	.st0{opacity:0.68;fill:#9061DB;}
	.st1{fill:#4DEEFF;}
</style>
<path class="st0" d="M97.2,97.4h398.1c4.3,0,7.6,3.9,6.8,8.1l-35.3,203.3c-0.6,3.3-3.5,5.8-6.8,5.8H132.5c-3.4,0-6.3-2.4-6.8-5.8
	L90.3,105.6C89.6,101.3,92.8,97.4,97.2,97.4z"/>
<circle class="st1" cx="217" cy="433.3" r="38.9"/>
<circle class="st1" cx="367.9" cy="431.4" r="39.4"/>
<g>
	<g>
		<path d="M206.6,388.4c-23.9,0-43.3,19.4-43.3,43.3s19.4,43.3,43.3,43.3s43.3-19.4,43.3-43.3C250,407.9,230.5,388.4,206.6,388.4z
			 M206.6,450.9c-10.6,0-19.1-8.6-19.1-19.1c0-10.6,8.6-19.1,19.1-19.1s19.1,8.6,19.1,19.1C225.8,442.3,217.2,450.9,206.6,450.9z"/>
	</g>
</g>
<g>
	<g>
		<path d="M358.6,388.4c-23.9,0-43.3,19.4-43.3,43.3s19.4,43.3,43.3,43.3s43.3-19.4,43.3-43.3C402,407.9,382.5,388.4,358.6,388.4z
			 M358.6,450.9c-10.6,0-19.1-8.6-19.1-19.1c0-10.6,8.6-19.1,19.1-19.1c10.6,0,19.1,8.6,19.1,19.1
			C377.8,442.3,369.2,450.9,358.6,450.9z"/>
	</g>
</g>
<g>
	<g>
		<path d="M369.3,160.3H195.9c-6.7,0-12.1,5.4-12.1,12.1c0,6.7,5.4,12.1,12.1,12.1h173.4c6.7,0,12.1-5.4,12.1-12.1
			C381.4,165.7,376,160.3,369.3,160.3z"/>
	</g>
</g>
<g>
	<g>
		<path d="M359.9,223.1H205.4c-6.7,0-12.1,5.4-12.1,12.1c0,6.7,5.4,12.1,12.1,12.1h154.5c6.7,0,12.1-5.4,12.1-12.1
			C372,228.5,366.6,223.1,359.9,223.1z"/>
	</g>
</g>
<g>
	<g>
		<path d="M487.3,106.3c-4.6-5.7-11.5-8.9-18.8-8.9H91.7l-7.6-36.9c-1.6-7.7-6.8-14.2-14.1-17.3L16.9,20.1
			C10.8,17.5,3.7,20.3,1,26.4c-2.7,6.1,0.2,13.3,6.3,15.9l53.1,23.1l34.1,165.7l13.1,63.5l11.3,54.9c2.3,11.2,12.3,19.3,23.7,19.3
			h289.9c6.7,0,12.1-5.4,12.1-12.1c0-6.7-5.4-12.1-12.1-12.1H142.6l-7.1-34.6h299.2c10.1,0,19-6.3,22.6-15.5
			c0.5-1.2,0.9-2.5,1.1-3.8l18.8-91.3l15-73C493.8,119.4,492,112,487.3,106.3z M434.7,285.9H130.5L96.7,121.6h371.9L434.7,285.9z"/>
	</g>
</g>
</svg>
