<?xml version="1.0" encoding="utf-8"?>
<!-- Generator: Adobe Illustrator 21.1.0, SVG Export Plug-In . SVG Version: 6.00 Build 0)  -->
<svg version="1.1" id="Capa_1" xmlns="http://www.w3.org/2000/svg" xmlns:xlink="http://www.w3.org/1999/xlink" x="0px" y="0px"
	 viewBox="0 0 419.3 419.5" style="enable-background:new 0 0 419.3 419.5;" xml:space="preserve">
<style type="text/css">
	.st0{fill:#E8E6F3;}
	.st1{fill:#FFFFFF;stroke:#FFFFFF;stroke-miterlimit:10;}
	.st2{fill:#6472B8;}
	.st3{fill:#A478B9;}
	.st4{fill:none;stroke:#A478B9;stroke-width:11;stroke-miterlimit:10;}
</style>
<title>dish</title>
<circle class="st0" cx="188.1" cy="168.5" r="150"/>
<path class="st1" d="M78.3,161.4"/>
<path class="st2" d="M251.9,126.4l-3.1-10.3c-4-11.7-16.7-18-28.4-14c-6.6,2.2-11.8,7.4-14,14l-3.1,10.3c-2.6,8.7-3.2,17.9-1.6,26.8
	c1.4,7.5,6.2,14,13,17.6l-3.5,78.4c-0.5,4.4,1,8.7,3.9,12c6.3,6.9,17.1,7.4,24.1,1.1c0.4-0.3,0.7-0.7,1.1-1.1
	c2.9-3.2,4.3-7.4,3.9-11.7l-3.5-78.7c6.8-3.6,11.5-10.1,13-17.6C255.1,144.3,254.5,135.1,251.9,126.4z M243.9,151.5
	c-1.1,5.4-4.9,9.9-10.1,11.7c-2,0.7-3.3,2.7-3.2,4.8l3.7,82.3c0.2,1.6-0.4,3.2-1.5,4.4c-2.9,2.9-7.7,2.9-10.6,0
	c-1.1-1.3-1.6-3.1-1.4-4.8l3.7-82c0.1-2.1-1.2-4-3.2-4.8c-5.2-1.8-9.1-6.2-10.1-11.7c-1.3-7.4-0.9-15.1,1.3-22.3l3.1-10.3
	c2.4-6.5,9.7-9.9,16.3-7.5c3.5,1.3,6.2,4,7.5,7.5l3.1,10.3C244.7,136.4,245.2,144.1,243.9,151.5z"/>
<path class="st2" d="M176.3,100.9c-2.7,0-4.9,2.2-4.9,4.9v0v41.9l-13.2,13.2c-1,1-1.5,2.3-1.5,3.6l4.3,85.4c0.1,1.8-0.6,3.6-1.8,4.9
	c-2.7,2.7-7,2.7-9.7,0l0,0c-1.3-1.3-1.9-3.1-1.8-5l4.3-85.4c0.1-1.4-0.4-2.7-1.4-3.7l-13.2-13.2v-41.9c0-2.7-2.2-4.9-4.9-4.9
	c-2.7,0-4.9,2.2-4.9,4.9v43.9c0,1.3,0.5,2.5,1.4,3.4l13.1,13.1l-4.2,83.2c-0.5,9.1,6.5,16.8,15.6,17.3c9.1,0.5,16.8-6.5,17.3-15.6
	c0,0,0-0.1,0-0.1c0-0.5,0-1.1,0-1.6l-4.2-83.2l13.1-13.1c0.9-0.9,1.4-2.2,1.4-3.4v-43.9C181.2,103.1,179,100.9,176.3,100.9z"/>
<path class="st2" d="M147.1,100.9c-2.7,0-4.9,2.2-4.9,4.9v0v39c0,2.7,2.2,4.9,4.9,4.9c2.7,0,4.9-2.2,4.9-4.9v-39
	C152,103.1,149.8,100.9,147.1,100.9z"/>
<path class="st2" d="M161.7,100.9c-2.7,0-4.9,2.2-4.9,4.9v0v39c0,2.7,2.2,4.9,4.9,4.9c2.7,0,4.9-2.2,4.9-4.9v-39
	C166.6,103.1,164.4,100.9,161.7,100.9z"/>
<path class="st3" d="M105.6,285.4"/>
<path class="st3" d="M206.8,265.6c-0.3-2.7-2.6-4.6-5.3-4.4h-0.2l0,0c-6.9,0.8-13.8,0.8-20.7,0c-2.7-0.3-5.1,1.6-5.4,4.3
	c-0.3,2.7,1.6,5.1,4.3,5.4c7.6,0.9,15.3,0.9,22.9,0C205.1,270.7,207.1,268.3,206.8,265.6C206.8,265.6,206.8,265.6,206.8,265.6z"/>
<path class="st3" d="M265.6,111.2c-1.7-2.1-4.8-2.3-6.9-0.6l0,0l0,0c-2.1,1.7-2.3,4.8-0.6,6.9c29.4,34.9,27.2,86.5-5.2,118.7
	c-1.8,2-1.7,5.1,0.2,6.9c1.9,1.7,4.8,1.8,6.6,0C295.8,207.4,298.3,150,265.6,111.2z"/>
<path class="st1" d="M158.3,92.3"/>
<path class="st3" d="M214,79.3c-19.1-4.6-39.1-3.3-57.4,3.5c-2.5,0.9-3.8,3.8-2.9,6.3c0.9,2.5,3.8,3.8,6.3,2.9
	c16.5-6.2,34.5-7.3,51.7-3.2c2.6,0.7,5.3-0.8,6-3.4s-0.8-5.3-3.4-6C214.2,79.3,214.1,79.3,214,79.3z"/>
<path class="st3" d="M128.8,236c-30.4-30.6-34.2-78.7-8.8-113.6c1.6-2.2,1.1-5.2-1.1-6.8c-2.1-1.5-5-1.1-6.7,0.9l-0.1,0.1
	c-28.2,38.8-24,92.3,9.8,126.2c2,1.8,5.1,1.7,6.9-0.2C130.5,240.8,130.5,237.9,128.8,236z"/>
<circle class="st4" cx="187.9" cy="168.8" r="149.7"/>
<g>
	<path class="st3" d="M378.1,365.2l-89.7-84.5l17.1-18.2l89.7,84.5c4,3.8,4.2,10.1,0.4,14.1l-3.4,3.6
		C388.4,368.8,382.1,369,378.1,365.2z"/>
</g>
</svg>
