<?xml version="1.0" encoding="utf-8"?>
<!-- Generator: Adobe Illustrator 21.1.0, SVG Export Plug-In . SVG Version: 6.00 Build 0)  -->
<svg version="1.1" id="Layer_1" xmlns="http://www.w3.org/2000/svg" xmlns:xlink="http://www.w3.org/1999/xlink" x="0px" y="0px"
	 viewBox="0 0 512 512" style="enable-background:new 0 0 512 512;" xml:space="preserve">
<style type="text/css">
	.st0{fill:#BEC8E7;}
	.st1{fill:#E8E7F4;}
	.st2{fill:#A3B5E2;}
	.st3{fill:#FFFFFF;}
	.st4{fill:#8FA5D1;}
	.st5{fill:#A478B9;}
	.st6{fill:#6472B8;}
</style>
<g>
	<circle class="st0" cx="256" cy="256" r="245.4"/>
	<circle class="st1" cx="256" cy="256" r="166.5"/>
	<path class="st2" d="M124.5,256c0-115.9,80.4-213,188.4-238.7c-18.3-4.4-37.3-6.7-57-6.7C120.5,10.6,10.6,120.5,10.6,256
		c0,135.5,109.9,245.4,245.4,245.4c19.6,0,38.7-2.4,57-6.7C204.9,469,124.5,371.9,124.5,256z"/>
	<path class="st3" d="M275.6,220.9l-82.8,76.2l15.9,15.9c4.8,4.8,10.5,8.3,16.7,10.6l73.2-79.5L275.6,220.9z"/>
	<path class="st4" d="M169.8,400.1c-29.1-40.6-46.5-90.3-46.5-144.1s17.3-103.5,46.5-144.1c-49,29.4-81.8,82.8-81.8,144.1
		C87.9,317.3,120.8,370.7,169.8,400.1z"/>
	<path class="st3" d="M361.3,200.5c-3.7,3.7-10,3.3-13.7-0.4l-1.2-1.2c-3.7-3.7-4.1-10-0.4-13.7l-11.6-11.6
		c-3.7,3.7-10,3.3-13.7-0.4l0,0c-3.7-3.7-4.1-10-0.4-13.7l-11-4.2c-8.3,8.3-9.5,42.6-9.5,42.6L123.1,361.2c-9.7,9.7-9.7,25.5,0,35.2
		s25.5,9.7,35.2,0L321.4,220c0,0,35.8-0.2,44.1-8.5L361.3,200.5z"/>
	<path class="st3" d="M133.3,115.8l246.1,246.1c9.7,9.7,9.7,25.5,0,35.2l0,0c-9.7,9.7-25.5,9.7-35.2,0L285.1,338
		c-6.1-6.1-7.4-15-4-22.4c1.8-3.9,1.5-8.4-1.5-11.4l-10-10c-3.9-3.9-10.2-3.9-14.1,0l0,0c-7.8,7.8-20.4,7.8-28.2,0l-61.7-61.7
		C95.4,162.4,133.3,115.8,133.3,115.8z"/>
	<path class="st5" d="M139.1,110c-1.6-1.6-3.9-2.5-6.2-2.4c-2.3,0.1-4.5,1.2-6,3c-0.5,0.6-11.2,14.1-12,37
		c-1,29.5,14.1,60.1,44.9,90.9l61.7,61.7c5.3,5.3,12.4,8.2,19.9,8.2c7.5,0,14.6-2.9,19.9-8.2c0.4-0.4,0.9-0.5,1.2-0.5
		c0.3,0,0.8,0.1,1.2,0.5l10,10c0.4,0.4,0.2,1.4-0.1,2.1c-4.9,10.6-2.6,23.3,5.7,31.6l59.1,59.1c6.5,6.5,14.9,9.7,23.4,9.7
		c8.5,0,17-3.2,23.4-9.7c12.9-12.9,12.9-33.9,0-46.8L139.1,110z M373.6,391.3c-6.5,6.5-17.1,6.5-23.6,0l-59.1-59.1
		c-3.4-3.4-4.4-8.7-2.4-13.2c3.3-7.3,2.1-15.3-3.2-20.6l-10-10c-3.4-3.4-8-5.3-12.9-5.3c-4.9,0-9.4,1.9-12.9,5.3
		c-2.2,2.2-5.2,3.4-8.3,3.4c-3.1,0-6.1-1.2-8.3-3.4l-61.7-61.7c-47.7-47.7-42.5-82.5-36.3-97.6l238.5,238.5
		C380.1,374.2,380.1,384.8,373.6,391.3z"/>
	<path class="st5" d="M328.6,190.9c1.6,1.6,3.7,2.4,5.8,2.4s4.2-0.8,5.8-2.4l52.4-52.4c3.2-3.2,3.2-8.4,0-11.6
		c-3.2-3.2-8.4-3.2-11.6,0l-52.4,52.4C325.4,182.5,325.4,187.7,328.6,190.9z"/>
	<path class="st5" d="M282.5,224.1c2.1,0,4.2-0.8,5.8-2.4l17.2-17.2c1.5-1.5,2.4-3.5,2.4-5.6l0.4-18.6c0.1-5.7,3.3-12.2,8.5-17.3
		l53.5-53.5c3.2-3.2,3.2-8.4,0-11.6c-3.2-3.2-8.4-3.2-11.6,0l-53.5,53.5c-8.2,8.2-13,18.6-13.3,28.6l-0.4,15.3L276.7,210
		c-3.2,3.2-3.2,8.4,0,11.6C278.3,223.3,280.4,224.1,282.5,224.1z"/>
	<path class="st5" d="M218.3,324.9l-65.7,65.7c-3.2,3.2-7.3,4.9-11.8,4.9c-4.5,0-8.7-1.7-11.8-4.9c-3.2-3.2-4.9-7.3-4.9-11.8
		c0-4.5,1.7-8.7,4.9-11.8l63.5-63.5c3.2-3.2,3.2-8.4,0-11.6c-3.2-3.2-8.4-3.2-11.6,0l-63.5,63.5c-6.3,6.3-9.7,14.6-9.7,23.4
		c0,8.8,3.4,17.2,9.7,23.4c6.3,6.3,14.6,9.7,23.4,9.7s17.2-3.4,23.4-9.7l65.7-65.7c3.2-3.2,3.2-8.4,0-11.6
		C226.7,321.7,221.5,321.7,218.3,324.9z"/>
	<path class="st5" d="M422.9,150.4c-3.2-3.2-8.4-3.2-11.6,0l-53.4,53.4c-5.1,5.1-11.6,8-17.5,8l-19.3-0.3c-2.2,0-4.4,0.8-5.9,2.4
		l-17.2,17.2c-3.2,3.2-3.2,8.4,0,11.6c1.6,1.6,3.7,2.4,5.8,2.4s4.2-0.8,5.8-2.4l14.8-14.8l15.8,0.2c10.4,0.2,21.1-4.5,29.4-12.8
		l53.4-53.4C426.1,158.8,426.1,153.6,422.9,150.4z"/>
	<path class="st6" d="M435.3,76.7C387.4,28.8,323.7,2.4,256,2.4S124.6,28.8,76.7,76.7S2.4,188.3,2.4,256s26.4,131.4,74.3,179.3
		s111.6,74.3,179.3,74.3s131.4-26.4,179.3-74.3s74.3-111.6,74.3-179.3S483.2,124.6,435.3,76.7z M423.7,423.7
		c-44.8,44.8-104.4,69.5-167.7,69.5s-122.9-24.7-167.7-69.5C43.5,378.9,18.8,319.4,18.8,256S43.5,133.1,88.3,88.3
		C133.1,43.5,192.6,18.8,256,18.8s122.9,24.7,167.7,69.5c44.8,44.8,69.5,104.4,69.5,167.7S468.5,378.9,423.7,423.7z"/>
</g>
</svg>
