<?xml version="1.0" encoding="utf-8"?>
<!-- Generator: Adobe Illustrator 21.1.0, SVG Export Plug-In . SVG Version: 6.00 Build 0)  -->
<svg version="1.1" id="Layer_1" xmlns="http://www.w3.org/2000/svg" xmlns:xlink="http://www.w3.org/1999/xlink" x="0px" y="0px"
	 viewBox="0 0 200 200" style="enable-background:new 0 0 200 200;" xml:space="preserve">
<style type="text/css">
	.st0{fill:#A9A4F4;}
	.st1{fill:#7B44D3;}
</style>
<g transform="translate(50,50)">
	<g transform="scale(0.8)">
		<g transform="translate(-50,-50)">
			<g transform="translate(-15.344 -20)">
				
					<animateTransform  accumulate="none" additive="replace" attributeName="transform" begin="0s" calcMode="linear" dur="1s" fill="remove" keyTimes="0;0.33;0.66;1" repeatCount="indefinite" restart="always" type="translate" values="-20 -20;20 -20;0 20;-20 -20">
					</animateTransform>
				<path class="st0" d="M85.5,44.8c-9.6,0-18.7,3.8-25.5,10.6S49.5,71.2,49.5,80.9s3.8,18.7,10.6,25.5s15.9,10.6,25.5,10.6
					s18.7-3.8,25.5-10.6c6.8-6.8,10.6-15.9,10.6-25.5s-3.8-18.7-10.6-25.5C104.2,48.6,95.2,44.8,85.5,44.8z"/>
				<path class="st1" d="M154.6,137.5l-22.2-22.2l-7-6.9c3.2-4.7,5.6-9.9,7-15.2c2.1-8,2.1-16.5,0-24.5c-2.1-8-6.3-15.7-12.6-22
					c-9.4-9.4-21.8-14.2-34.2-14.2c-12.4,0-24.8,4.7-34.2,14.2c-18.9,18.9-18.9,49.5,0,68.4c9.4,9.4,21.8,14.2,34.2,14.2
					c9.6,0,19.2-2.9,27.4-8.5l19.4,19.4l9.8,9.8c1.7,1.7,4,2.6,6.2,2.6s4.5-0.9,6.2-2.6C158,146.5,158,140.9,154.6,137.5z
					 M111,106.4c-6.8,6.8-15.9,10.6-25.5,10.6s-18.7-3.8-25.5-10.6c-6.8-6.8-10.6-15.9-10.6-25.5S53.2,62.2,60,55.4
					s15.9-10.6,25.5-10.6s18.7,3.8,25.5,10.6s10.6,15.9,10.6,25.5C121.6,90.5,117.8,99.6,111,106.4z"/>
			</g>
		</g>
	</g>
</g>
</svg>
