<?xml version="1.0" encoding="utf-8"?>
<!-- Generator: Adobe Illustrator 21.1.0, SVG Export Plug-In . SVG Version: 6.00 Build 0)  -->
<svg version="1.1" xmlns="http://www.w3.org/2000/svg" xmlns:xlink="http://www.w3.org/1999/xlink" x="0px" y="0px"
	 viewBox="0 0 1800 1200" style="enable-background:new 0 0 1800 1200;" xml:space="preserve">
<style type="text/css">
	.st0{display:none;}
	.st1{display:inline;}
	.st2{fill:#4C467C;stroke:#25243F;stroke-width:3;stroke-miterlimit:10;}
	.st3{fill:#4C467C;stroke:#4C467C;stroke-width:3;stroke-miterlimit:10;}
	.st4{opacity:0.39;fill:#C29DFC;}
	.st5{fill:#643F9E;stroke:#643F9E;stroke-miterlimit:10;}
	.st6{fill:#353535;}
	.st7{fill:#C69320;}
	.st8{fill:#E5E5E5;}
	.st9{fill:#FF6903;}
	.st10{fill:#CC0000;}
	.st11{fill:#A6DDFF;}
</style>
<g id="Layer_1" class="st0">
	<g class="st1">
		<path class="st2" d="M1246.9,906.1h-38.4c-0.9,0-1.6,0.7-1.6,1.6c0,0.9,0.7,1.6,1.6,1.6h38.4c0.9,0,1.6-0.7,1.6-1.6
			C1248.5,906.8,1247.8,906.1,1246.9,906.1z M1246.9,906.1h-38.4c-0.9,0-1.6,0.7-1.6,1.6c0,0.9,0.7,1.6,1.6,1.6h38.4
			c0.9,0,1.6-0.7,1.6-1.6C1248.5,906.8,1247.8,906.1,1246.9,906.1z M1246.9,906.1h-38.4c-0.9,0-1.6,0.7-1.6,1.6
			c0,0.9,0.7,1.6,1.6,1.6h38.4c0.9,0,1.6-0.7,1.6-1.6C1248.5,906.8,1247.8,906.1,1246.9,906.1z M1246.9,906.1h-38.4
			c-0.9,0-1.6,0.7-1.6,1.6c0,0.9,0.7,1.6,1.6,1.6h38.4c0.9,0,1.6-0.7,1.6-1.6C1248.5,906.8,1247.8,906.1,1246.9,906.1z
			 M1246.9,906.1h-38.4c-0.9,0-1.6,0.7-1.6,1.6c0,0.9,0.7,1.6,1.6,1.6h38.4c0.9,0,1.6-0.7,1.6-1.6
			C1248.5,906.8,1247.8,906.1,1246.9,906.1z M1246.9,906.1h-38.4c-0.9,0-1.6,0.7-1.6,1.6c0,0.9,0.7,1.6,1.6,1.6h38.4
			c0.9,0,1.6-0.7,1.6-1.6C1248.5,906.8,1247.8,906.1,1246.9,906.1z M1246.9,906.1h-38.4c-0.9,0-1.6,0.7-1.6,1.6
			c0,0.9,0.7,1.6,1.6,1.6h38.4c0.9,0,1.6-0.7,1.6-1.6C1248.5,906.8,1247.8,906.1,1246.9,906.1z M1246.9,906.1h-38.4
			c-0.9,0-1.6,0.7-1.6,1.6c0,0.9,0.7,1.6,1.6,1.6h38.4c0.9,0,1.6-0.7,1.6-1.6C1248.5,906.8,1247.8,906.1,1246.9,906.1z
			 M1246.9,906.1h-38.4c-0.9,0-1.6,0.7-1.6,1.6c0,0.9,0.7,1.6,1.6,1.6h38.4c0.9,0,1.6-0.7,1.6-1.6
			C1248.5,906.8,1247.8,906.1,1246.9,906.1z M1246.9,906.1h-38.4c-0.9,0-1.6,0.7-1.6,1.6c0,0.9,0.7,1.6,1.6,1.6h38.4
			c0.9,0,1.6-0.7,1.6-1.6C1248.5,906.8,1247.8,906.1,1246.9,906.1z M1246.9,906.1h-38.4c-0.9,0-1.6,0.7-1.6,1.6
			c0,0.9,0.7,1.6,1.6,1.6h38.4c0.9,0,1.6-0.7,1.6-1.6C1248.5,906.8,1247.8,906.1,1246.9,906.1z M1246.9,906.1h-38.4
			c-0.9,0-1.6,0.7-1.6,1.6c0,0.9,0.7,1.6,1.6,1.6h38.4c0.9,0,1.6-0.7,1.6-1.6C1248.5,906.8,1247.8,906.1,1246.9,906.1z
			 M1246.9,906.1h-38.4c-0.9,0-1.6,0.7-1.6,1.6c0,0.9,0.7,1.6,1.6,1.6h38.4c0.9,0,1.6-0.7,1.6-1.6
			C1248.5,906.8,1247.8,906.1,1246.9,906.1z M1246.9,906.1h-38.4c-0.9,0-1.6,0.7-1.6,1.6c0,0.9,0.7,1.6,1.6,1.6h38.4
			c0.9,0,1.6-0.7,1.6-1.6C1248.5,906.8,1247.8,906.1,1246.9,906.1z M1246.9,906.1h-38.4c-0.9,0-1.6,0.7-1.6,1.6
			c0,0.9,0.7,1.6,1.6,1.6h38.4c0.9,0,1.6-0.7,1.6-1.6C1248.5,906.8,1247.8,906.1,1246.9,906.1z M1251.9,933.6
			c-0.1,0.3-0.3,0.6-0.4,0.8c0-0.1,0.1-0.3,0-0.5c0.2-0.3,0.4-0.7,0.6-1c0.5-0.6,0.8-1.4,1.4-2.1
			C1252.9,931.7,1252.4,932.7,1251.9,933.6z M1246.9,906.1h-38.4c-0.9,0-1.6,0.7-1.6,1.6c0,0.9,0.7,1.6,1.6,1.6h38.4
			c0.9,0,1.6-0.7,1.6-1.6C1248.5,906.8,1247.8,906.1,1246.9,906.1z M1246.9,906.1h-38.4c-0.9,0-1.6,0.7-1.6,1.6
			c0,0.9,0.7,1.6,1.6,1.6h38.4c0.9,0,1.6-0.7,1.6-1.6C1248.5,906.8,1247.8,906.1,1246.9,906.1z M1246.9,906.1h-38.4
			c-0.9,0-1.6,0.7-1.6,1.6c0,0.9,0.7,1.6,1.6,1.6h38.4c0.9,0,1.6-0.7,1.6-1.6C1248.5,906.8,1247.8,906.1,1246.9,906.1z
			 M1246.9,906.1h-38.4c-0.9,0-1.6,0.7-1.6,1.6c0,0.9,0.7,1.6,1.6,1.6h38.4c0.9,0,1.6-0.7,1.6-1.6
			C1248.5,906.8,1247.8,906.1,1246.9,906.1z M1246.9,906.1h-38.4c-0.9,0-1.6,0.7-1.6,1.6c0,0.9,0.7,1.6,1.6,1.6h38.4
			c0.9,0,1.6-0.7,1.6-1.6C1248.5,906.8,1247.8,906.1,1246.9,906.1z M1246.9,906.1h-38.4c-0.9,0-1.6,0.7-1.6,1.6
			c0,0.9,0.7,1.6,1.6,1.6h38.4c0.9,0,1.6-0.7,1.6-1.6C1248.5,906.8,1247.8,906.1,1246.9,906.1z M1246.9,906.1h-38.4
			c-0.9,0-1.6,0.7-1.6,1.6c0,0.9,0.7,1.6,1.6,1.6h38.4c0.9,0,1.6-0.7,1.6-1.6C1248.5,906.8,1247.8,906.1,1246.9,906.1z
			 M1246.9,906.1h-38.4c-0.9,0-1.6,0.7-1.6,1.6c0,0.9,0.7,1.6,1.6,1.6h38.4c0.9,0,1.6-0.7,1.6-1.6
			C1248.5,906.8,1247.8,906.1,1246.9,906.1z M1246.9,906.1h-38.4c-0.9,0-1.6,0.7-1.6,1.6c0,0.9,0.7,1.6,1.6,1.6h38.4
			c0.9,0,1.6-0.7,1.6-1.6C1248.5,906.8,1247.8,906.1,1246.9,906.1z M1246.9,906.1h-38.4c-0.9,0-1.6,0.7-1.6,1.6
			c0,0.9,0.7,1.6,1.6,1.6h38.4c0.9,0,1.6-0.7,1.6-1.6C1248.5,906.8,1247.8,906.1,1246.9,906.1z M1246.9,906.1h-38.4
			c-0.9,0-1.6,0.7-1.6,1.6c0,0.9,0.7,1.6,1.6,1.6h38.4c0.9,0,1.6-0.7,1.6-1.6C1248.5,906.8,1247.8,906.1,1246.9,906.1z
			 M1246.9,906.1h-38.4c-0.9,0-1.6,0.7-1.6,1.6c0,0.9,0.7,1.6,1.6,1.6h38.4c0.9,0,1.6-0.7,1.6-1.6
			C1248.5,906.8,1247.8,906.1,1246.9,906.1z M1246.9,906.1h-38.4c-0.9,0-1.6,0.7-1.6,1.6c0,0.9,0.7,1.6,1.6,1.6h38.4
			c0.9,0,1.6-0.7,1.6-1.6C1248.5,906.8,1247.8,906.1,1246.9,906.1z M1246.9,906.1h-38.4c-0.9,0-1.6,0.7-1.6,1.6
			c0,0.9,0.7,1.6,1.6,1.6h38.4c0.9,0,1.6-0.7,1.6-1.6C1248.5,906.8,1247.8,906.1,1246.9,906.1z M1246.9,906.1h-38.4
			c-0.9,0-1.6,0.7-1.6,1.6c0,0.9,0.7,1.6,1.6,1.6h38.4c0.9,0,1.6-0.7,1.6-1.6C1248.5,906.8,1247.8,906.1,1246.9,906.1z
			 M1246.9,906.1h-38.4c-0.9,0-1.6,0.7-1.6,1.6c0,0.9,0.7,1.6,1.6,1.6h38.4c0.9,0,1.6-0.7,1.6-1.6
			C1248.5,906.8,1247.8,906.1,1246.9,906.1z M1396.3,971.9c3.5-6,4.4-26.3,4.4-26.3c0.7-9.7,0-24.5,0-24.5
			c-45.6-40.6-184-47.3-184-47.3c-4.4-0.3-50.9-22-50.9-22c-73.5-37-157.2-20.6-176.9-16.8c-19.7,3.8-120.8,28.6-120.8,28.6
			s-11.5-4.4-21.8-5.1c-10.4-0.7-5.3,7.9-5.3,7.9l4.9,10.4c0,0,8,4.9,16.1,7.1c2.2,0.6,4.5,1,6.5,1c0.2,0,0.5,0,0.7,0
			c9.7-0.2-0.2,13-9.2,13.3s-22.5-2.1-22.5-2.1l-4.4,4.2c-9.9,29.4,7.4,52.7,7.4,52.7c-7.5,7.5,41.9,18.5,41.9,18.5
			s-15-70.5,50.9-70.5s58,75.4,58,75.4c-0.5,4.6,2,4.6,2,4.6c6.6-4,251.9,3.2,251.9,3.2l2.1-1.7c0.9-28.4,6.2-77.4,61.7-77.4
			c55.6,0,47.9,77.2,47.9,77.2c6.9,1.5,32.3-4.7,32.3-4.7c0.2-0.7,0.4-1.3,0.6-1.9C1392.2,969.9,1396.3,971.9,1396.3,971.9l0.6-4.4
			 M1066.5,894.2h-20.4c-1.4,0-2.6-1.2-2.6-2.6c0-1.5,1.1-2.6,2.6-2.6h20.4c1.4,0,2.6,1.2,2.6,2.6
			C1069.1,893,1067.9,894.2,1066.5,894.2z M1195.9,886.7l-119.5-10l-68.8-4.3l-13.2-2.5l-14.3-1.2c-22.4-0.1-22.2-10.3-20.8-11.9
			c0.2-0.2,0.3-0.4,0.3-0.6c0.1-0.5,12-19.6,97.6-22.1c80.3-2.3,128.7,37.3,140,49.9C1198.2,885.1,1197.4,886.8,1195.9,886.7z"/>
		<path class="st3" d="M1250,937.1c0.1-0.3,0.3-0.5,0.4-0.8C1250.2,936.6,1250.1,936.9,1250,937.1z"/>
		<path class="st3" d="M1248.5,907.7c0,0.9-0.7,1.6-1.6,1.6h-38.4c-0.9,0-1.6-0.7-1.6-1.6c0-0.9,0.7-1.6,1.6-1.6h38.4
			C1247.8,906.1,1248.5,906.8,1248.5,907.7z"/>
		<path class="st3" d="M1248.5,907.7c0,0.9-0.7,1.6-1.6,1.6h-38.4c-0.9,0-1.6-0.7-1.6-1.6c0-0.9,0.7-1.6,1.6-1.6h38.4
			C1247.8,906.1,1248.5,906.8,1248.5,907.7z"/>
	</g>
</g>
<g id="Layer_2">
	<path class="st4" d="M1231.8,675.6v122.1c0,0.5,0,0.9-0.1,1.3c-0.3,2.3-1.2,4.4-2.6,6.2c-1.4,1.8-3.3,3.1-5.5,3.9
		c-1.2,0.4-2.5,0.6-3.8,0.6H732.7c-1.3,0-2.6-0.2-3.8-0.6c-4.7-1.6-8.2-6.1-8.2-11.4V655.3c9.5-21.4,17.7-34.5,21.2-34.5
		c2.5-2,6.2-3.9,10.7-5.7h411.8L1231.8,675.6z"/>
	<g>
		<g>
			<path class="st5" d="M1439.2,841.2c-2.8-4.5-11.8-9.6-12.4-13.7c-0.2-1.3-0.4-2.6-0.7-3.9c-0.8-4.4-2-9.1-3.3-13.8
				c-6.5-23.3-17-47.3-17-47.3c-12.6-29.1-156.6-71.1-156.6-71.1l-17.4-15.7l-67.4-60.5l-2.2-2c-24.3-23.3-336.8-26.2-409.5,2
				c-4.5,1.8-8.2,3.7-10.7,5.7c-3.5,0-11.7,13.2-21.2,34.5c-12.6,28.3-27.4,70.9-36.3,116.4c-1.7,8.7-3.2,17.5-4.5,26.4
				c-0.2,1.2-0.3,2.4-0.6,3.6c-0.2,1-0.4,2-0.6,3.1c-0.3,1.4-0.6,2.8-1,4.3c0,0,0,0.1,0,0.2c-1.1,4.5-2.5,9.3-4.2,14.2
				c-0.8,2.3-1.7,4.6-2.6,6.9c-1.5,3.7-7,4.2-10.4,5.6c-2.2,0.9-3.5,2.2-2.4,5c2.2,5.4,6,10,10.5,13.9c0,0,0,0,0,0
				c16.6,14.2,43.6,18.7,43.6,18.7s36.3,0,46,0.2c-0.4-2.4-0.6-5-0.7-7.5c0-0.6,0-1.2,0-1.7c0-0.3,0-0.6,0-0.9c0,0,0,0,0,0
				c0.1-4.1,0.5-8,1.4-11.8c0,0,0,0,0-0.1c0-0.1,0-0.1,0-0.2c0.1-0.5,0.2-1.1,0.4-1.6v0c2.1-7.9,6-15,11.1-20.9c0,0,0,0,0,0
				c9.2-10.6,22.7-17.6,38.1-19.4c2.6-0.3,5.2-0.4,7.8-0.4c2.7,0,5.3,0.1,7.8,0.4c13,1.5,24.7,6.8,33.5,14.8c0,0,0.1,0.1,0.1,0.1
				c0.3,0.2,0.5,0.5,0.8,0.7c0,0,0,0,0,0c6.3,6,11.1,13.4,13.9,21.9c0,0.1,0.1,0.2,0.1,0.3c0.1,0.4,0.3,0.8,0.4,1.2
				c1.4,4.6,2.1,9.6,2.2,14.8v0c0,0.3,0,0.6,0,0.8c0,0.6,0,1.2,0,1.7c-0.1,2.9-0.4,5.8-0.9,8.7c31.3-0.1,80.8-0.1,134.7-0.1
				c74.4,0.1,157.3,0.3,212.5,0.6c8.3,0,16,0.1,22.9,0.1c-0.9-4.1-0.9-6.6-0.9-11c0-4.4,0.5-8.6,1.4-12.7c0.1-0.5,0.3-1.1,0.4-1.6
				c6.5-24.7,29.6-41,57.1-41c15.5,0,29.7,5.2,40.2,14.2c9.4,8,15.9,19.1,18,32.2c0,0,0,0,0,0.1c0.4,2.6,0.6,5.2,0.7,7.9v0
				c0,0.3,0,0.5,0,0.8c0,0.6,0,1.2,0,1.7c-0.1,3.9-0.6,7.8-1.5,11.5c32.5,0,49.8-0.4,52.7-2.4c3.5-2.4,7.6-5.5,11.7-9.1
				c7.3-6.5,14.2-14.6,15.8-22.4C1440.1,843,1439.8,842.1,1439.2,841.2z M1200.7,712.7c-2.8-8.9-11.8-15.4-22.6-15.4
				c-6.5,0-7,9.5-7,21.1c0,11.7,0.6,21.1,7,21.1c9.1,0,17-4.7,20.9-11.5c3.5,2.1,8.7,6.1,12.8,8.9c-2.6,1.9-5.2,2.8-5.2,2.8
				l-171.8,0.8c-11.3,0-21.5-11.2-22.8-24.5l-6.1-62.1c-1-10.6,5.9-19,15.5-19h101c3.7,0,7.4,1.2,10.7,3.3
				c17.8,8.1,76.6,74,82.1,83.4c0.9,1.5,1.4,2.9,1.7,4.2L1200.7,712.7z M975.4,740.5h-86.3c-11,0-18.9-11.2-17.7-24.5l5.8-62.1
				c1-10.6,9.4-19,18.8-19h74.1c9.4,0,17.6,8.3,18.5,19l4.8,62.1C994.5,729.3,986.5,740.5,975.4,740.5z M733.4,716l17.5-62.1
				c3-10.6,13-19,22.4-19h78.4c9.4,0,16.1,8.3,14.9,19l-6.9,62.1c-1.5,13.3-11.6,24.5-22.7,24.5h-90.5
				C735.5,740.5,729.7,729.3,733.4,716z"/>
			<g>
				<path class="st6" d="M826.3,809.1H677.2c-6.6,3.3-20.4,5.4-20.8,8.4c-0.3,1.6-0.5,3.1-0.7,4.5c-1.8,15.2,18.2,25.1,30.7,29.8
					h73.1c0-1.2-0.1-2.3-0.1-3.5C759.4,834.1,783.7,805.8,826.3,809.1z"/>
				<path class="st6" d="M1297.9,809.1H820.6c33.3-0.3,45,24,52.2,39.3c0.5,1.1,4.3,2.3,4.2,3.5h368.4c0-1.1,0-2.3,0-3.5
					C1245.5,834.1,1266.7,810,1297.9,809.1z"/>
				<path class="st6" d="M1438,819.9c-3.5-3.9-12.1-9.8-17.5-10.8h-125c33.6-4.2,67.7,25,67.7,39.3c0,1.1,0,2.3-0.1,3.5h65.2
					c4.3-6.9,12.2-8.4,13.5-16.6C1442.2,831.1,1441.7,826.8,1438,819.9z"/>
			</g>
			<path class="st6" d="M1054.1,760.6c0,1.8-1.5,3.3-3.3,3.3H1024c-1.8,0-3.4-1.5-3.4-3.3l0,0c0-1.9,1.5-3.4,3.4-3.4h26.8
				C1052.6,757.2,1054.1,758.7,1054.1,760.6L1054.1,760.6z"/>
			<path class="st6" d="M996.8,760.6c0,1.8-1.5,3.3-3.3,3.3h-26.8c-1.9,0-3.4-1.5-3.4-3.3l0,0c0-1.9,1.5-3.4,3.4-3.4h26.8
				C995.3,757.2,996.8,758.7,996.8,760.6L996.8,760.6z"/>
			<g>
				<path class="st7" d="M1350.9,807.8c0-9.6,1.6-31.9,10.6-31.9c9,0,48.3,0.6,48.3,0.6s13.8,30.1,9.9,30.1
					C1407.9,806.6,1350.9,807.8,1350.9,807.8z"/>
				<path class="st8" d="M1354.3,804.1c0-7.8,1.5-25.8,9.9-25.8c8.4,0,46,0.2,46,0.2s10.4,25,8.7,25
					C1407.8,803.5,1354.3,804.1,1354.3,804.1z"/>
				<path class="st9" d="M1378.5,802.7l-19.5,0.2c-4,0.1-2.8-5.7-1.6-12.2l0,0c1.1-5.9,3.4-10.4,6.8-10.4h14.8
					C1379.9,780.3,1379.6,802.7,1378.5,802.7z"/>
			</g>
			<g>
				<path class="st6" d="M775.3,823.5H656.1c0,2-1,5.4-1.5,8.5c-0.3,1.6-0.5,3.1-0.6,4.5c-1.8,15.2,29,25.1,41.5,29.9h62.3
					c0-1.2-0.1-2.3-0.1-3.5C757.6,848.4,765.2,834.6,775.3,823.5z"/>
				<path class="st6" d="M1261.3,823.5H856.9c12,12.3,18.5,25,18.5,39.4c0,1.2-0.1,2.3-0.1,3.5h368.4c0-1.1,0-2.2,0-3.5
					C1243.7,848.4,1249.9,834,1261.3,823.5z"/>
				<path class="st6" d="M1442.1,833.4c-0.1-2.4,0.1-9-5.3-9.9h-94.6c10.8,11.7,19.1,25,19.1,39.4c0,1.2-0.1,2.3-0.1,3.5h63
					c7.2-4.4,15.3-15.6,17.7-23.7C1442.3,838.4,1442.3,837.3,1442.1,833.4z"/>
			</g>
			<g>
				<path class="st10" d="M689.5,763.2c4.3-2.1,9.6,2.4,10.8,13.2c1.2,10.8-1.5,28.3-1.5,28.3h-22
					C676.8,804.8,682.3,766.9,689.5,763.2z"/>
				<path class="st8" d="M702.1,805.7c0,2.2-2.7,4-6,4h-15.6c-3.3,0-6-1.8-6-4l0,0c0-2.2,2.7-4.1,6-4.1h15.6
					C699.4,801.6,702.1,803.4,702.1,805.7L702.1,805.7z"/>
			</g>
			<path class="st11" d="M1211.9,736.9c-4.1-2.9-9.3-6.8-12.8-8.9c-3.9,6.8-11.8,11.5-20.9,11.5c-6.5,0-7-9.5-7-21.1
				c0-11.7,0.6-21.1,7-21.1c10.8,0,19.8,6.5,22.6,15.4l16.2,13.2C1218.1,731,1215,734.7,1211.9,736.9z"/>
			<path class="st6" d="M1232.4,729.7c0.1-0.7-0.1-1.8-0.7-3.1c-7.7-17.9-76.3-86.3-90-96.3c-14.7-10.8-134.4-8.5-147.3-8.5
				c0,0,4.3,27,6.2,66.6c1,21.8,3.5,76.2,5.5,120.8c0,0.2,0,0.4,0,0.6c0.2,4.7,0.4,9.3,0.6,13.8c0.5,10.7,0.9,20.4,1.3,28.4
				c0.2,5.7,0.5,10.6,0.7,14.4c0.2,4.4,0.3,7.4,0.4,8.5c0,0.4,0,0.6,0,0.6h223.3c0,0,0-3.4-0.1-9.1c-0.1-3.8-0.1-8.7-0.2-14.4
				c-0.1-8.2-0.2-18-0.3-28.4c0-4.7-0.1-9.5-0.1-14.4c0-3.3,0-6.7-0.1-10c-0.1-20.1-0.1-39.8,0.1-53.2
				C1231.9,737.5,1232.1,731.6,1232.4,729.7z M1229.2,809.1c0,4.9,0,9.7,0,14.4c0,10.7,0.1,20.5,0.1,28.4c0,6.2,0.1,11.2,0.1,14.4
				c0,2.6,0,4.1,0,4.1l-216.2,0.1c0,0-0.1-1.5-0.2-4.2c-0.2-3.2-0.5-8.2-0.8-14.4c-0.4-7.8-0.9-17.5-1.5-28.4
				c-0.2-4.4-0.5-9-0.8-13.8c0-0.2,0-0.4,0-0.6c-2.3-43-5.2-96.3-6.1-117.6c-1.8-38.1-5.2-66.9-5.2-66.9c12.3,0,127.3-2.8,141.4,7.6
				c14,10.4,89.9,87.4,89.5,98c-0.3,7.8-0.3,42.3-0.2,75.1C1229.2,806.5,1229.2,807.8,1229.2,809.1z"/>
			<g>
				<path d="M1201.6,718.4c0,3.5-0.9,6.7-2.6,9.6c-3.9,6.8-11.8,11.5-20.9,11.5c-6.5,0-7-9.5-7-21.1c0-11.7,0.6-21.1,7-21.1
					c10.8,0,19.8,6.5,22.6,15.4C1201.3,714.5,1201.6,716.4,1201.6,718.4z"/>
				<path d="M1221.3,729.4c0,7.2,0,12.6-4.2,10.8c-1.1-0.5-3.1-1.8-5.3-3.3c-4.1-2.9-9.3-6.8-12.8-8.9c-1.6-1-2.8-1.5-3.5-1.5
					c-3,0,3.6-15,3.6-15l1.6,1.3l16.2,13.2L1221.3,729.4z"/>
			</g>
		</g>
		<path d="M838.5,746.4c8.1-1.8,15.9-5.2,15.9-3c0,2.1-4.3,8.7-7,8.2C844.6,751.2,838.5,746.4,838.5,746.4z"/>
		<path d="M765.7,762.5c-0.5-2.5,8.6-4.7,12.2-3.8c3.7,0.9,4.8,15.1,3.7,15.8c0,0-11.8-5.5-12.9-7.8
			C767.6,764.4,765.7,762.5,765.7,762.5z"/>
	</g>
</g>
</svg>
