<?xml version="1.0" encoding="utf-8"?>
<!-- Generator: Adobe Illustrator 21.1.0, SVG Export Plug-In . SVG Version: 6.00 Build 0)  -->
<svg version="1.1" id="Capa_1" xmlns="http://www.w3.org/2000/svg" xmlns:xlink="http://www.w3.org/1999/xlink" x="0px" y="0px"
	 viewBox="0 0 512 512" style="enable-background:new 0 0 512 512;" xml:space="preserve">
<style type="text/css">
	.st0{fill:#643F9E;}
	.st1{fill:#C29DFC;}
</style>
<g>
	<path class="st0" d="M184.3,507.7c-13.4,0-24.4-10.9-24.4-24.4s10.9-24.4,24.4-24.4h268.9v-85c-0.1-41.3-33.7-75-75.1-75.1
		l-103.3,0c-39.2,0-76.1-15.2-103.9-42.9c-27.8-27.7-43.2-64.6-43.4-103.8C127.2,71,193,4.6,274.2,4.3l0.6,0
		c39.2,0,76.1,15.2,103.9,42.9c27.8,27.7,43.2,64.5,43.4,103.8c0.1,36.3-13,71.3-37.1,98.4l-0.7,0.8l1,0.1
		c65.4,3.9,116.6,58.2,116.5,123.8v109.4c0,13.4-10.9,24.4-24.4,24.4H184.3z M275.4,54.4C249.2,55.1,224.9,66,207,85.1
		c-18,19-27.5,43.9-26.7,70.1c0.7,24.6,10.5,47.9,27.7,65.5c17.2,17.7,40.1,28.1,64.7,29.6l7.8,0c54-3.4,95.1-50,91.7-104
		c-1.6-24.8-12.3-47.8-30.3-64.9S300.3,54.7,275.4,54.4L275.4,54.4L275.4,54.4z"/>
	<path class="st0" d="M274.8,4.8L274.8,4.8c39.1,0,75.9,15.2,103.6,42.8c27.7,27.6,43.1,64.3,43.2,103.4c0.1,36.2-13,71-37,98.1
		l-1.4,1.5l2.1,0.1c65.1,3.9,116.1,58,116.1,123.3v109.4c0,13.2-10.7,23.9-23.9,23.9H184.3c-13.2,0-23.9-10.7-23.9-23.9
		c0-13.2,10.7-23.9,23.9-23.9h268.4h1v-1V374c0-20.2-7.9-39.1-22.2-53.4c-14.3-14.3-33.2-22.1-53.4-22.2h-97.7h-5l-0.6,0
		c-39.1,0-75.9-15.2-103.6-42.8c-27.7-27.6-43.1-64.3-43.2-103.4c-0.2-39.2,15-76.2,42.6-104C198.2,20.4,235,4.9,274.2,4.8
		L274.8,4.8 M272.6,250.7L272.6,250.7h7.8h0l0,0c54.2-3.4,95.6-50.3,92.2-104.5c-1.6-24.9-12.4-48.1-30.5-65.2
		c-18.1-17.2-41.8-26.8-66.8-27.1c-54.3,1.6-97.2,47-95.7,101.3c0.7,24.7,10.6,48.1,27.8,65.9C224.8,238.8,247.9,249.3,272.6,250.7
		L272.6,250.7 M274.8,3.8c-0.2,0-0.4,0-0.6,0C192.6,4.1,126.7,70.6,127,152.2c0.3,81.4,66.5,147.2,147.8,147.2c0.2,0,0.4,0,0.6,0h5
		h97.7c41.2,0.1,74.5,33.4,74.6,74.6v84.5H184.3c-13.7,0-24.9,11.1-24.9,24.9c0,13.7,11.1,24.9,24.9,24.9h293.3
		c13.7,0,24.9-11.1,24.9-24.9V374c0.1-65.9-51.2-120.4-117-124.3c24.1-27.2,37.4-62.4,37.3-98.7C422.3,69.6,356.2,3.8,274.8,3.8
		L274.8,3.8z M272.7,249.7c-50.5-2.9-90.5-44-91.9-94.6c-1.5-53.8,40.9-98.7,94.7-100.3c51,0.6,93,40.5,96.2,91.4
		c3.4,53.8-37.5,100.1-91.2,103.5H272.7L272.7,249.7z"/>
</g>
<g>
	<g>
		<g>
			<path class="st1" d="M147.3,359.6c-7.3,19.6-23.6,34.5-43.6,39c-4.8,1.1-9.8,1.6-15,1.4c-31.5-1.2-57.1-27.9-58.3-61
				c-1.4-36.3,26.3-66.2,60.5-66.2c14.6,0,28,5.5,38.5,14.6c5.6,4.9,2.1,14.1-5.3,14.1h-2c-2.8,0-5.5-0.9-7.7-2.4
				c-8.1-5.6-18.1-8.4-28.8-7.1c-19,2.4-34.2,18.2-36.9,38.2c-3.6,27.5,16.7,51.1,42.2,51.1c12.3,0,23.3-5.5,31.1-14.2
				c0.1-0.1,0.1-0.1,0.2-0.2c-5.1-1.6-21.4-5-22.7-9.2c-0.5-1.6,0.8-3.2,2.5-3.2l32.7-0.1v0h8.9C146.3,354.3,148.3,357,147.3,359.6z
				"/>
		</g>
	</g>
</g>
<g>
	<g>
		<path class="st0" d="M89,419.9c-46,0-83.5-37.5-83.5-83.5c0-46,37.5-83.5,83.5-83.5s83.5,37.5,83.5,83.5
			C172.5,382.4,135,419.9,89,419.9z M89,265.6c-39,0-70.8,31.8-70.8,70.8c0,39,31.8,70.8,70.8,70.8s70.8-31.8,70.8-70.8
			C159.8,297.3,128,265.6,89,265.6z"/>
		<path class="st0" d="M89,253.4c45.8,0,83,37.2,83,83c0,45.8-37.2,83-83,83s-83-37.2-83-83C6,290.6,43.2,253.4,89,253.4 M89,407.7
			c39.3,0,71.3-32,71.3-71.3c0-39.3-32-71.3-71.3-71.3s-71.3,32-71.3,71.3C17.7,375.7,49.7,407.7,89,407.7 M89,252.4
			c-46.3,0-84,37.7-84,84c0,46.3,37.7,84,84,84s84-37.7,84-84C173,290.1,135.3,252.4,89,252.4L89,252.4z M89,406.7
			c-38.8,0-70.3-31.5-70.3-70.3c0-38.8,31.5-70.3,70.3-70.3s70.3,31.5,70.3,70.3C159.3,375.1,127.7,406.7,89,406.7L89,406.7z"/>
	</g>
</g>
<g>
	<g>
		<path class="st0" d="M221.4,453.3c-1.2,0-2.4-0.4-3.3-1.3l-58.8-50.3c-2.6-2.2-3.2-6.6-1.3-9.7c1.1-1.8,2.8-2.8,4.7-2.8
			c1.2,0,2.4,0.4,3.3,1.3l58.8,50.3c2.6,2.2,3.2,6.6,1.3,9.7C224.9,452.2,223.2,453.3,221.4,453.3z"/>
		<path class="st0" d="M162.6,389.6L162.6,389.6c1.1,0,2.1,0.4,3,1.2l58.8,50.3c2.4,2.1,3,6.2,1.2,9.1c-1,1.6-2.6,2.6-4.2,2.6
			c-1.1,0-2.1-0.4-3-1.2l-58.8-50.3c-2.4-2.1-3-6.2-1.2-9.1C159.4,390.6,161,389.6,162.6,389.6 M162.6,388.6c-1.9,0-3.9,1.1-5.1,3.1
			l0,0c-2,3.3-1.4,8,1.4,10.4l58.8,50.3c1.1,0.9,2.4,1.4,3.7,1.4c1.9,0,3.9-1.1,5.1-3.1l0,0c2-3.3,1.4-8-1.4-10.4L166.3,390
			C165.2,389.1,163.9,388.6,162.6,388.6L162.6,388.6z"/>
	</g>
</g>
<g>
	<path class="st0" d="M131.8,304.7l-1.4,1.1c-2,1.6-2.5,4.4-1.2,6.7c4.8,8.6,6.9,19,5.4,29.6c0,0,0,0,0,0.1c-0.4,2.8,1.4,5.5,4,5.9
		l1.7,0.3c2.6,0.4,5.1-1.4,5.5-4.2c0-0.1,0-0.2,0-0.3c2-13.6-0.8-26.8-6.9-37.8C137.4,303.5,134.1,302.8,131.8,304.7z"/>
</g>
</svg>
