<?xml version="1.0" encoding="utf-8"?>
<!-- Generator: Adobe Illustrator 21.1.0, SVG Export Plug-In . SVG Version: 6.00 Build 0)  -->
<svg version="1.1" id="Layer_1" xmlns="http://www.w3.org/2000/svg" xmlns:xlink="http://www.w3.org/1999/xlink" x="0px" y="0px"
	 viewBox="0 0 800 800" style="enable-background:new 0 0 800 800;" xml:space="preserve">
<style type="text/css">
	.st0{display:none;}
	.st1{display:inline;fill:#EFEFEF;}
	.st2{fill:#BED4EA;}
</style>
<g id="Background" class="st0">
	<rect x="0.2" class="st1" width="799.8" height="800"/>
</g>
<g id="Designed_by_Freepik">
</g>
<g>
	<path d="M49.3,402.7C47.9,209,203.8,50.9,397.5,49.4C591,48,749.2,203.7,750.7,397.4c1.5,193.7-154.4,351.7-347.9,353.2
		C209.1,752,50.8,596.3,49.3,402.7z"/>
	<path class="st2" d="M162.2,401.8c-0.9-131.4,104.7-238.6,236.1-239.6l0,0c131.2-1,238.3,104.7,239.3,236l0,0
		c1,131.3-104.6,238.5-235.7,239.6l0,0C270.5,638.7,163.3,533.1,162.2,401.8L162.2,401.8z M197.8,401.5
		C199,513.1,290,602.6,401.7,601.9l0,0C513.1,601,602.7,510,602,398.5l0,0c-1-111.6-92-201.2-203.4-200.6l0,0
		C286.9,199,197.4,290,197.8,401.5L197.8,401.5L197.8,401.5z"/>
	<path class="st2" d="M612.3,445.6c-86.3-4.6-150.4-23.2-150.6-46c-0.2-22.9,63.7-42.4,150-48.3c-5.7-24.6-15.7-48.1-29.2-69.3
		c-64.3,57.8-123,90.4-139.1,74.2c-16.3-16.1,15-75.2,71.9-140.3c-13.8-8.7-28.8-15.8-44.8-21.3c-8.3-2.9-16.6-5.1-25-7
		c-4.4,86.3-23.1,150.5-45.8,150.7c-23,0.2-42.6-63.7-48.4-150c-24.6,5.7-48,15.7-69.2,29.4c57.9,64.2,90.2,122.8,74.1,139.2
		c-16,16.4-75.2-15.2-140.3-72.1c-8.6,13.9-16,28.8-21.4,44.8c-2.9,8.2-5,16.5-6.9,24.9c86.3,4.5,150.7,23.1,150.9,46
		c0.2,22.9-63.9,42.5-150.2,48.3c5.8,24.6,15.8,48,29.5,69.2c64.1-58,122.8-90.2,139.1-74.2c16.3,16-15.1,75.3-72.1,140.3
		c13.9,8.7,28.9,15.9,44.9,21.5c8.3,2.8,16.4,4.9,24.9,6.9c4.5-86.4,23.1-150.8,46.1-151c22.7-0.2,42.4,63.9,48.1,150.3
		c24.8-5.8,48.1-15.7,69.2-29.5c-57.7-64-90-122.8-73.9-139.1c15.9-16.3,75.1,15,140.2,72.1c8.5-13.9,15.8-28.8,21.3-45
		C608.4,462.1,610.6,453.8,612.3,445.6z"/>
</g>
</svg>
